<?xml version="1.0" encoding="UTF-8" standalone="no"?>
<!-- Created with Inkscape (http://www.inkscape.org/) -->

<svg
   xmlns:dc="http://purl.org/dc/elements/1.1/"
   xmlns:cc="http://creativecommons.org/ns#"
   xmlns:rdf="http://www.w3.org/1999/02/22-rdf-syntax-ns#"
   xmlns:svg="http://www.w3.org/2000/svg"
   xmlns="http://www.w3.org/2000/svg"
   version="1.1"
   width="500"
   height="270"
   id="svg2">
  <defs
     id="defs4" />
  <metadata
     id="metadata7">
    <rdf:RDF>
      <cc:Work
         rdf:about="">
        <dc:format>image/svg+xml</dc:format>
        <dc:type
           rdf:resource="http://purl.org/dc/dcmitype/StillImage" />
        <dc:title></dc:title>
      </cc:Work>
    </rdf:RDF>
  </metadata>
  <g
     transform="translate(-161.36117,-224.09895)"
     id="layer1">
    <g
       transform="matrix(0.77762796,0,0,0.77762796,146.42462,109.84658)"
       id="g3761">
      <path
         d="m 173.74624,406.87471 31.31473,-249.50768 36.36549,-8.08122 31.31473,235.36554 z"
         id="path2985"
         style="fill:#ffffff;stroke:#000000;stroke-width:1px;stroke-linecap:butt;stroke-linejoin:miter;stroke-opacity:1" />
      <path
         d="m 181.32238,409.90517 31.31473,-249.50768 36.36549,-8.08122 31.31473,235.36554 z"
         id="path2987"
         style="fill:#cccccc;stroke:#000000;stroke-width:1px;stroke-linecap:butt;stroke-linejoin:miter;stroke-opacity:1" />
      <path
         d="m 249.01786,152.36218 -7.5,-3.125 -36.42857,8.21429 7.67857,2.85714 z"
         id="path2989"
         style="fill:#ececec;stroke:#000000;stroke-width:1px;stroke-linecap:butt;stroke-linejoin:round;stroke-opacity:1" />
      <path
         d="m 212.70025,160.36592 -7.60772,-2.96733 -31.34629,249.50768 7.60771,2.99889 z"
         id="path3759"
         style="fill:#e6e6e6;stroke:#000000;stroke-width:1px;stroke-linecap:butt;stroke-linejoin:round;stroke-opacity:1" />
    </g>
    <path
       d="m 325.27905,236.6594 -1.1109,178.85444 158.30284,61.09934 -1.66635,-178.29899 z"
       id="path3777"
       style="fill:none;stroke:#000000;stroke-width:0.77762794px;stroke-linecap:butt;stroke-linejoin:miter;stroke-opacity:1" />
    <path
       d="m 337.77664,251.3788 -0.83317,64.43203 32.07716,12.35873 1.24975,-62.90455 z"
       id="path3779"
       style="fill:#808080;stroke:#000000;stroke-width:0.77762794px;stroke-linecap:butt;stroke-linejoin:miter;stroke-opacity:1" />
    <path
       d="m 430.25883,289.70475 -0.83318,64.43202 32.07716,12.35874 1.24975,-62.90455 z"
       id="path3783"
       style="fill:#808080;stroke:#000000;stroke-width:0.77762794px;stroke-linecap:butt;stroke-linejoin:miter;stroke-opacity:1" />
    <path
       d="m 383.87887,269.98633 -0.83317,64.43203 32.07716,12.35872 1.24975,-62.90455 z"
       id="path3785"
       style="fill:#808080;stroke:#000000;stroke-width:0.77762794px;stroke-linecap:butt;stroke-linejoin:miter;stroke-opacity:1" />
    <path
       d="m 336.94347,332.75202 -0.83318,64.43202 32.07716,12.35874 1.24975,-62.90456 z"
       id="path3787"
       style="fill:#808080;stroke:#000000;stroke-width:0.77762794px;stroke-linecap:butt;stroke-linejoin:miter;stroke-opacity:1" />
    <path
       d="m 429.42565,371.07796 -0.83317,64.43203 32.07716,12.35873 1.24975,-62.90455 z"
       id="path3789"
       style="fill:#808080;stroke:#000000;stroke-width:0.77762794px;stroke-linecap:butt;stroke-linejoin:miter;stroke-opacity:1" />
    <path
       d="m 383.0457,351.35954 -0.83318,64.43203 32.07716,12.35873 1.24975,-62.90455 z"
       id="path3791"
       style="fill:#808080;stroke:#000000;stroke-width:0.77762794px;stroke-linecap:butt;stroke-linejoin:miter;stroke-opacity:1" />
    <g
       transform="matrix(0.77762796,0,0,0.77762796,253.90391,154.56019)"
       id="g3819">
      <path
         d="m 251.42857,264.1479 c -4.64286,1.78571 -0.71428,8.57142 -1.07143,12.5 -0.35714,3.92857 -2.14285,16.42857 1.07143,16.42857"
         id="path3821"
         style="fill:none;stroke:#000000;stroke-width:1px;stroke-linecap:butt;stroke-linejoin:miter;stroke-opacity:1" />
      <path
         d="m 253.95395,264.90551 c -4.64286,1.78571 -0.71428,8.57142 -1.07143,12.5 -0.35714,3.92857 -2.14285,16.42857 1.07143,16.42857"
         id="path3823"
         style="fill:none;stroke:#000000;stroke-width:1px;stroke-linecap:butt;stroke-linejoin:miter;stroke-opacity:1" />
      <path
         d="m 256.6056,265.66312 c -4.64286,1.78571 -0.71428,8.57142 -1.07143,12.5 -0.35714,3.92857 -2.14285,16.42857 1.07143,16.42857"
         id="path3825"
         style="fill:none;stroke:#000000;stroke-width:1px;stroke-linecap:butt;stroke-linejoin:miter;stroke-opacity:1" />
      <path
         d="m 259.13098,266.547 c -4.64286,1.78571 -0.71428,8.57142 -1.07143,12.5 -0.35714,3.92857 -2.14285,16.42857 1.07143,16.42857"
         id="path3827"
         style="fill:none;stroke:#000000;stroke-width:1px;stroke-linecap:butt;stroke-linejoin:miter;stroke-opacity:1" />
      <path
         d="m 252.69126,264.52671 c -4.64286,1.78571 -0.71428,8.57142 -1.07143,12.5 -0.35714,3.92857 -2.14285,16.42857 1.07143,16.42857"
         id="path3829"
         style="fill:none;stroke:#000000;stroke-width:1px;stroke-linecap:butt;stroke-linejoin:miter;stroke-opacity:1" />
      <path
         d="m 255.21664,265.28432 c -4.64286,1.78571 -0.71428,8.57142 -1.07143,12.5 -0.35714,3.92857 -2.14285,16.42857 1.07143,16.42857"
         id="path3831"
         style="fill:none;stroke:#000000;stroke-width:1px;stroke-linecap:butt;stroke-linejoin:miter;stroke-opacity:1" />
      <path
         d="m 257.86829,266.04193 c -4.64286,1.78571 -0.71428,8.57142 -1.07143,12.5 -0.35714,3.92857 -2.14285,16.42857 1.07143,16.42857"
         id="path3833"
         style="fill:none;stroke:#000000;stroke-width:1px;stroke-linecap:butt;stroke-linejoin:miter;stroke-opacity:1" />
      <path
         d="m 260.39367,266.92581 c -4.64286,1.78571 -0.71428,8.57142 -1.07143,12.5 -0.35714,3.92857 -2.14285,16.42857 1.07143,16.42857"
         id="path3835"
         style="fill:none;stroke:#000000;stroke-width:1px;stroke-linecap:butt;stroke-linejoin:miter;stroke-opacity:1" />
    </g>
    <g
       transform="matrix(0.77762796,0,0,0.77762796,303.61656,174.83406)"
       id="g3767">
      <path
         d="m 173.74624,406.87471 31.31473,-249.50768 36.36549,-8.08122 31.31473,235.36554 z"
         id="path3769"
         style="fill:#ffffff;stroke:#000000;stroke-width:1px;stroke-linecap:butt;stroke-linejoin:miter;stroke-opacity:1" />
      <path
         d="m 181.32238,409.90517 31.31473,-249.50768 36.36549,-8.08122 31.31473,235.36554 z"
         id="path3771"
         style="fill:#cccccc;stroke:#000000;stroke-width:1px;stroke-linecap:butt;stroke-linejoin:miter;stroke-opacity:1" />
      <path
         d="m 249.01786,152.36218 -7.5,-3.125 -36.42857,8.21429 7.67857,2.85714 z"
         id="path3773"
         style="fill:#ececec;stroke:#000000;stroke-width:1px;stroke-linecap:butt;stroke-linejoin:round;stroke-opacity:1" />
      <path
         d="m 212.70025,160.36592 -7.60772,-2.96733 -31.34629,249.50768 7.60771,2.99889 z"
         id="path3775"
         style="fill:#e6e6e6;stroke:#000000;stroke-width:1px;stroke-linecap:butt;stroke-linejoin:round;stroke-opacity:1" />
    </g>
    <g
       transform="matrix(0.77762796,0,0,0.77762796,146.42462,109.84658)"
       id="g3809">
      <path
         d="m 251.42857,264.1479 c -4.64286,1.78571 -0.71428,8.57142 -1.07143,12.5 -0.35714,3.92857 -2.14285,16.42857 1.07143,16.42857"
         id="path3793"
         style="fill:none;stroke:#000000;stroke-width:1px;stroke-linecap:butt;stroke-linejoin:miter;stroke-opacity:1" />
      <path
         d="m 253.95395,264.90551 c -4.64286,1.78571 -0.71428,8.57142 -1.07143,12.5 -0.35714,3.92857 -2.14285,16.42857 1.07143,16.42857"
         id="path3795"
         style="fill:none;stroke:#000000;stroke-width:1px;stroke-linecap:butt;stroke-linejoin:miter;stroke-opacity:1" />
      <path
         d="m 256.6056,265.66312 c -4.64286,1.78571 -0.71428,8.57142 -1.07143,12.5 -0.35714,3.92857 -2.14285,16.42857 1.07143,16.42857"
         id="path3797"
         style="fill:none;stroke:#000000;stroke-width:1px;stroke-linecap:butt;stroke-linejoin:miter;stroke-opacity:1" />
      <path
         d="m 259.13098,266.547 c -4.64286,1.78571 -0.71428,8.57142 -1.07143,12.5 -0.35714,3.92857 -2.14285,16.42857 1.07143,16.42857"
         id="path3799"
         style="fill:none;stroke:#000000;stroke-width:1px;stroke-linecap:butt;stroke-linejoin:miter;stroke-opacity:1" />
      <path
         d="m 252.69126,264.52671 c -4.64286,1.78571 -0.71428,8.57142 -1.07143,12.5 -0.35714,3.92857 -2.14285,16.42857 1.07143,16.42857"
         id="path3801"
         style="fill:none;stroke:#000000;stroke-width:1px;stroke-linecap:butt;stroke-linejoin:miter;stroke-opacity:1" />
      <path
         d="m 255.21664,265.28432 c -4.64286,1.78571 -0.71428,8.57142 -1.07143,12.5 -0.35714,3.92857 -2.14285,16.42857 1.07143,16.42857"
         id="path3803"
         style="fill:none;stroke:#000000;stroke-width:1px;stroke-linecap:butt;stroke-linejoin:miter;stroke-opacity:1" />
      <path
         d="m 257.86829,266.04193 c -4.64286,1.78571 -0.71428,8.57142 -1.07143,12.5 -0.35714,3.92857 -2.14285,16.42857 1.07143,16.42857"
         id="path3805"
         style="fill:none;stroke:#000000;stroke-width:1px;stroke-linecap:butt;stroke-linejoin:miter;stroke-opacity:1" />
      <path
         d="m 260.39367,266.92581 c -4.64286,1.78571 -0.71428,8.57142 -1.07143,12.5 -0.35714,3.92857 -2.14285,16.42857 1.07143,16.42857"
         id="path3807"
         style="fill:none;stroke:#000000;stroke-width:1px;stroke-linecap:butt;stroke-linejoin:miter;stroke-opacity:1" />
    </g>
    <g
       transform="matrix(-0.25881905,0.96592583,-0.96592583,-0.25881905,691.88205,77.45473)"
       id="g3837">
      <g
         transform="matrix(0.77762796,0,0,0.77762796,91.389953,-16.795136)"
         id="g3865">
        <path
           d="m 236.659,271.48671 c 4.17494,0.31613 1.79977,6.67393 0.99202,14.04148 -0.96045,8.76039 -0.46782,14.0834 -3.89652,12.05379"
           id="path3839"
           style="fill:none;stroke:#000000;stroke-width:1px;stroke-linecap:butt;stroke-linejoin:miter;stroke-opacity:1" />
        <path
           d="m 238.53325,270.89207 c 4.17494,0.31613 1.79977,6.67393 0.99202,14.04148 -0.96045,8.76039 -0.46782,14.0834 -3.89652,12.05379"
           id="path3855"
           style="fill:none;stroke:#000000;stroke-width:1px;stroke-linecap:butt;stroke-linejoin:miter;stroke-opacity:1" />
        <path
           d="m 240.57998,270.25122 c 4.17494,0.31613 1.79977,6.67393 0.99202,14.04148 -0.96045,8.76039 -0.46782,14.0834 -3.89652,12.05379"
           id="path3857"
           style="fill:none;stroke:#000000;stroke-width:1px;stroke-linecap:butt;stroke-linejoin:miter;stroke-opacity:1" />
        <path
           d="m 242.45423,269.65658 c 4.17494,0.31613 1.79977,6.67393 0.99202,14.04148 -0.96045,8.76039 -0.46782,14.0834 -3.89652,12.05379"
           id="path3859"
           style="fill:none;stroke:#000000;stroke-width:1px;stroke-linecap:butt;stroke-linejoin:miter;stroke-opacity:1" />
        <path
           d="m 244.50096,269.01573 c 4.17494,0.31613 1.79977,6.67393 0.99202,14.04148 -0.96045,8.76039 -0.46782,14.0834 -3.89652,12.05379"
           id="path3861"
           style="fill:none;stroke:#000000;stroke-width:1px;stroke-linecap:butt;stroke-linejoin:miter;stroke-opacity:1" />
        <path
           d="m 246.37521,268.42109 c 4.17494,0.31613 1.79977,6.67393 0.99202,14.04148 -0.96045,8.76039 -0.46782,14.0834 -3.89652,12.05379"
           id="path3863"
           style="fill:none;stroke:#000000;stroke-width:1px;stroke-linecap:butt;stroke-linejoin:miter;stroke-opacity:1" />
      </g>
      <g
         transform="matrix(0.77762796,0,0,0.77762796,86.36394,32.735641)"
         id="g3873">
        <path
           d="m 236.659,271.48671 c 4.17494,0.31613 1.79977,6.67393 0.99202,14.04148 -0.96045,8.76039 -0.46782,14.0834 -3.89652,12.05379"
           id="path3875"
           style="fill:none;stroke:#000000;stroke-width:1px;stroke-linecap:butt;stroke-linejoin:miter;stroke-opacity:1" />
        <path
           d="m 238.53325,270.89207 c 4.17494,0.31613 1.79977,6.67393 0.99202,14.04148 -0.96045,8.76039 -0.46782,14.0834 -3.89652,12.05379"
           id="path3877"
           style="fill:none;stroke:#000000;stroke-width:1px;stroke-linecap:butt;stroke-linejoin:miter;stroke-opacity:1" />
        <path
           d="m 240.57998,270.25122 c 4.17494,0.31613 1.79977,6.67393 0.99202,14.04148 -0.96045,8.76039 -0.46782,14.0834 -3.89652,12.05379"
           id="path3879"
           style="fill:none;stroke:#000000;stroke-width:1px;stroke-linecap:butt;stroke-linejoin:miter;stroke-opacity:1" />
        <path
           d="m 242.45423,269.65658 c 4.17494,0.31613 1.79977,6.67393 0.99202,14.04148 -0.96045,8.76039 -0.46782,14.0834 -3.89652,12.05379"
           id="path3881"
           style="fill:none;stroke:#000000;stroke-width:1px;stroke-linecap:butt;stroke-linejoin:miter;stroke-opacity:1" />
        <path
           d="m 244.50096,269.01573 c 4.17494,0.31613 1.79977,6.67393 0.99202,14.04148 -0.96045,8.76039 -0.46782,14.0834 -3.89652,12.05379"
           id="path3883"
           style="fill:none;stroke:#000000;stroke-width:1px;stroke-linecap:butt;stroke-linejoin:miter;stroke-opacity:1" />
        <path
           d="m 246.37521,268.42109 c 4.17494,0.31613 1.79977,6.67393 0.99202,14.04148 -0.96045,8.76039 -0.46782,14.0834 -3.89652,12.05379"
           id="path3885"
           style="fill:none;stroke:#000000;stroke-width:1px;stroke-linecap:butt;stroke-linejoin:miter;stroke-opacity:1" />
      </g>
      <g
         transform="matrix(0.77762796,0,0,0.77762796,210.77646,0.82256192)"
         id="g3887">
        <path
           d="m 236.659,271.48671 c 4.17494,0.31613 1.79977,6.67393 0.99202,14.04148 -0.96045,8.76039 -0.46782,14.0834 -3.89652,12.05379"
           id="path3889"
           style="fill:none;stroke:#000000;stroke-width:1px;stroke-linecap:butt;stroke-linejoin:miter;stroke-opacity:1" />
        <path
           d="m 238.53325,270.89207 c 4.17494,0.31613 1.79977,6.67393 0.99202,14.04148 -0.96045,8.76039 -0.46782,14.0834 -3.89652,12.05379"
           id="path3891"
           style="fill:none;stroke:#000000;stroke-width:1px;stroke-linecap:butt;stroke-linejoin:miter;stroke-opacity:1" />
        <path
           d="m 240.57998,270.25122 c 4.17494,0.31613 1.79977,6.67393 0.99202,14.04148 -0.96045,8.76039 -0.46782,14.0834 -3.89652,12.05379"
           id="path3893"
           style="fill:none;stroke:#000000;stroke-width:1px;stroke-linecap:butt;stroke-linejoin:miter;stroke-opacity:1" />
        <path
           d="m 242.45423,269.65658 c 4.17494,0.31613 1.79977,6.67393 0.99202,14.04148 -0.96045,8.76039 -0.46782,14.0834 -3.89652,12.05379"
           id="path3895"
           style="fill:none;stroke:#000000;stroke-width:1px;stroke-linecap:butt;stroke-linejoin:miter;stroke-opacity:1" />
        <path
           d="m 244.50096,269.01573 c 4.17494,0.31613 1.79977,6.67393 0.99202,14.04148 -0.96045,8.76039 -0.46782,14.0834 -3.89652,12.05379"
           id="path3897"
           style="fill:none;stroke:#000000;stroke-width:1px;stroke-linecap:butt;stroke-linejoin:miter;stroke-opacity:1" />
        <path
           d="m 246.37521,268.42109 c 4.17494,0.31613 1.79977,6.67393 0.99202,14.04148 -0.96045,8.76039 -0.46782,14.0834 -3.89652,12.05379"
           id="path3899"
           style="fill:none;stroke:#000000;stroke-width:1px;stroke-linecap:butt;stroke-linejoin:miter;stroke-opacity:1" />
      </g>
      <g
         transform="matrix(0.77762796,0,0,0.77762796,216.28351,-48.430491)"
         id="g3901">
        <path
           d="m 236.659,271.48671 c 4.17494,0.31613 1.79977,6.67393 0.99202,14.04148 -0.96045,8.76039 -0.46782,14.0834 -3.89652,12.05379"
           id="path3903"
           style="fill:none;stroke:#000000;stroke-width:1px;stroke-linecap:butt;stroke-linejoin:miter;stroke-opacity:1" />
        <path
           d="m 238.53325,270.89207 c 4.17494,0.31613 1.79977,6.67393 0.99202,14.04148 -0.96045,8.76039 -0.46782,14.0834 -3.89652,12.05379"
           id="path3905"
           style="fill:none;stroke:#000000;stroke-width:1px;stroke-linecap:butt;stroke-linejoin:miter;stroke-opacity:1" />
        <path
           d="m 240.57998,270.25122 c 4.17494,0.31613 1.79977,6.67393 0.99202,14.04148 -0.96045,8.76039 -0.46782,14.0834 -3.89652,12.05379"
           id="path3907"
           style="fill:none;stroke:#000000;stroke-width:1px;stroke-linecap:butt;stroke-linejoin:miter;stroke-opacity:1" />
        <path
           d="m 242.45423,269.65658 c 4.17494,0.31613 1.79977,6.67393 0.99202,14.04148 -0.96045,8.76039 -0.46782,14.0834 -3.89652,12.05379"
           id="path3909"
           style="fill:none;stroke:#000000;stroke-width:1px;stroke-linecap:butt;stroke-linejoin:miter;stroke-opacity:1" />
        <path
           d="m 244.50096,269.01573 c 4.17494,0.31613 1.79977,6.67393 0.99202,14.04148 -0.96045,8.76039 -0.46782,14.0834 -3.89652,12.05379"
           id="path3911"
           style="fill:none;stroke:#000000;stroke-width:1px;stroke-linecap:butt;stroke-linejoin:miter;stroke-opacity:1" />
        <path
           d="m 246.37521,268.42109 c 4.17494,0.31613 1.79977,6.67393 0.99202,14.04148 -0.96045,8.76039 -0.46782,14.0834 -3.89652,12.05379"
           id="path3913"
           style="fill:none;stroke:#000000;stroke-width:1px;stroke-linecap:butt;stroke-linejoin:miter;stroke-opacity:1" />
      </g>
      <g
         transform="matrix(-0.20126493,-0.75113092,0.75113092,-0.20126493,91.389953,-16.795136)"
         id="text3915"
         style="font-size:40px;font-style:normal;font-weight:normal;line-height:125%;letter-spacing:0px;word-spacing:0px;fill:#000000;fill-opacity:1;stroke:none;font-family:Sans">
        <path
           d="m -648.43421,121.34885 c -3e-5,1.33333 -0.88003,2 -2.64,2 l -3.16,0 c -0.98669,-1.92 -2.25335,-3.8 -3.8,-5.64 -1.52002,-1.86666 -2.70668,-2.94666 -3.56,-3.24 l -3.84,0 0,4.88 1.4,0 c 0.87999,0 1.49332,0.12 1.84,0.36 0.53332,0.45333 0.79998,1 0.8,1.64 -2e-5,1.33333 -0.88001,2 -2.64,2 l -6,0 c -0.90667,0 -1.50667,-0.13334 -1.8,-0.4 -0.56,-0.4 -0.84,-0.93334 -0.84,-1.6 0,-0.77333 0.32,-1.34667 0.96,-1.72 0.29333,-0.18667 0.85333,-0.28 1.68,-0.28 l 0.6,0 0,-15.32 -0.6,0 c -0.88001,2e-5 -1.48001,-0.11998 -1.8,-0.36 -0.56,-0.42665 -0.84,-0.97332 -0.84,-1.64 0,-0.77331 0.32,-1.34665 0.96,-1.72 0.29333,-0.18665 0.85333,-0.27998 1.68,-0.28 l 8.92,0 c 2.58665,2e-5 4.69331,0.66669 6.32,2 1.65331,1.30668 2.47998,3.01335 2.48,5.12 -2e-5,2.45334 -1.44002,4.46667 -4.32,6.04 1.73331,1.52001 3.41331,3.57334 5.04,6.16 l 0.52,0 c 0.87997,0 1.49331,0.12 1.84,0.36 0.5333,0.4 0.79997,0.94667 0.8,1.64 m -17,-10.88 3.04,0 c 1.67998,1e-5 3.06665,-0.31999 4.16,-0.96 1.11998,-0.66666 1.67998,-1.49332 1.68,-2.48 -2e-5,-0.85332 -0.41335,-1.55999 -1.24,-2.12 -0.82669,-0.58665 -1.88002,-0.87998 -3.16,-0.88 l -4.48,0 0,6.44"
           id="path3972"
           style="font-variant:normal;font-weight:bold;font-stretch:normal;font-family:TlwgTypewriter;-inkscape-font-specification:TlwgTypewriter Bold" />
        <path
           d="m -632.56984,117.02885 -9.52,0 -0.92,2.32 0.92,0 c 0.85333,0 1.45333,0.12 1.8,0.36 0.55999,0.42667 0.83999,0.97333 0.84,1.64 -10e-6,0.77333 -0.32001,1.34666 -0.96,1.72 -0.29334,0.18666 -0.85334,0.28 -1.68,0.28 l -5.32,0 c -1.76,0 -2.64,-0.66667 -2.64,-2 0,-0.77333 0.32,-1.34667 0.96,-1.72 0.29333,-0.18667 0.86667,-0.28 1.72,-0.28 l 6.2,-15.32 -2.52,0 c -0.88,2e-5 -1.49334,-0.11998 -1.84,-0.36 -0.56,-0.42665 -0.84,-0.97332 -0.84,-1.64 0,-0.71998 0.32,-1.29331 0.96,-1.72 0.29333,-0.18665 0.86666,-0.27998 1.72,-0.28 l 8.64,0 7.96,19.32 c 0.93331,0 1.55998,0.13333 1.88,0.4 0.55998,0.4 0.83998,0.93333 0.84,1.6 -2e-5,0.77333 -0.32002,1.34666 -0.96,1.72 -0.29336,0.18666 -0.85336,0.28 -1.68,0.28 l -5.56,0 c -0.85335,0 -1.45335,-0.13334 -1.8,-0.4 -0.56001,-0.4 -0.84001,-0.93334 -0.84,-1.6 -10e-6,-0.77333 0.31999,-1.34667 0.96,-1.72 0.26665,-0.18667 0.82665,-0.28 1.68,-0.28 l 0.92,0 -0.92,-2.32 m -1.64,-4 -3.12,-7.68 -3.16,7.68 6.28,0"
           id="path3974"
           style="font-variant:normal;font-weight:bold;font-stretch:normal;font-family:TlwgTypewriter;-inkscape-font-specification:TlwgTypewriter Bold" />
        <path
           d="m -619.54546,107.78885 0,11.56 1.4,0 c 0.85332,0 1.46665,0.12 1.84,0.36 0.53332,0.4 0.79999,0.94667 0.8,1.64 -10e-6,0.72 -0.32001,1.29333 -0.96,1.72 -0.32001,0.18666 -0.88001,0.28 -1.68,0.28 l -5.16,0 c -0.88,0 -1.49334,-0.13334 -1.84,-0.4 -0.56,-0.4 -0.84,-0.93334 -0.84,-1.6 0,-1.33333 0.81333,-2 2.44,-2 l 0,-15.32 c -1.38667,-0.13332 -2.08,-0.81332 -2.08,-2.04 0,-0.71998 0.32,-1.29331 0.96,-1.72 0.32,-0.18665 0.82666,-0.27998 1.52,-0.280004 0.45333,2.4e-5 1.18666,0.01335 2.2,0.04 1.03999,2e-5 1.81332,2e-5 2.32,0 l 5.52,11.88 5.4,-11.88 4.4,0 c 0.87997,2e-5 1.49331,0.12002 1.84,0.36 0.53331,0.45335 0.79997,1.00002 0.8,1.64 -3e-5,1.20002 -0.69336,1.86668 -2.08,2 l 0,15.32 c 1.62664,0 2.43997,0.66667 2.44,2 -3e-5,0.72 -0.32003,1.29333 -0.96,1.72 -0.32003,0.18666 -0.88003,0.28 -1.68,0.28 l -5.2,0 c -0.90669,0 -1.50669,-0.13334 -1.8,-0.4 -0.56002,-0.4 -0.84002,-0.93334 -0.84,-1.6 -2e-5,-0.77333 0.31998,-1.34667 0.96,-1.72 0.29331,-0.18667 0.85331,-0.28 1.68,-0.28 l 1.4,0 0,-11.56 -4.44,10.04 -3.64,0 -4.72,-10.04"
           id="path3976"
           style="font-variant:normal;font-weight:bold;font-stretch:normal;font-family:TlwgTypewriter;-inkscape-font-specification:TlwgTypewriter Bold" />
      </g>
      <g
         transform="matrix(-0.20126493,-0.75113092,0.75113092,-0.20126493,91.389953,-16.795136)"
         id="text3919"
         style="font-size:40px;font-style:normal;font-weight:normal;line-height:125%;letter-spacing:0px;word-spacing:0px;fill:#000000;fill-opacity:1;stroke:none;font-family:Sans">
        <path
           d="m -122.94856,212.23444 -9.52,0 -0.92,2.32 0.92,0 c 0.85332,1e-5 1.45332,0.12001 1.8,0.36 0.55999,0.42667 0.83999,0.97334 0.84,1.64 -1e-5,0.77334 -0.32001,1.34667 -0.96,1.72 -0.29334,0.18667 -0.85334,0.28 -1.68,0.28 l -5.32,0 c -1.76,0 -2.64,-0.66666 -2.64,-2 0,-0.77333 0.32,-1.34666 0.96,-1.72 0.29333,-0.18666 0.86666,-0.27999 1.72,-0.28 l 6.2,-15.32 -2.52,0 c -0.88001,2e-5 -1.49334,-0.11998 -1.84,-0.36 -0.56001,-0.42664 -0.84,-0.97331 -0.84,-1.64 0,-0.71997 0.31999,-1.29331 0.96,-1.72 0.29333,-0.18664 0.86666,-0.27997 1.72,-0.28 l 8.64,0 7.96,19.32 c 0.93331,1e-5 1.55997,0.13334 1.88,0.4 0.55997,0.40001 0.83997,0.93334 0.84,1.6 -3e-5,0.77334 -0.32003,1.34667 -0.96,1.72 -0.29336,0.18667 -0.85336,0.28 -1.68,0.28 l -5.56,0 c -0.85335,0 -1.45335,-0.13333 -1.8,-0.4 -0.56002,-0.4 -0.84002,-0.93333 -0.84,-1.6 -2e-5,-0.77333 0.31998,-1.34666 0.96,-1.72 0.26665,-0.18666 0.82665,-0.27999 1.68,-0.28 l 0.92,0 -0.92,-2.32 m -1.64,-4 -3.12,-7.68 -3.16,7.68 6.28,0"
           id="path3958"
           style="font-variant:normal;font-weight:bold;font-stretch:normal;font-family:TlwgTypewriter;-inkscape-font-specification:TlwgTypewriter Bold" />
        <path
           d="m -105.36419,199.23444 0,15.32 8.600003,0 0,-3.68 c -1.9e-5,-0.87999 0.119981,-1.49332 0.36,-1.84 0.39998,-0.55999 0.946647,-0.83999 1.64,-0.84 0.719978,1e-5 1.293311,0.32001 1.72,0.96 0.186644,0.29335 0.279977,0.86668 0.28,1.72 l 0,7.68 -18.880003,0 c -0.90667,0 -1.50667,-0.13333 -1.8,-0.4 -0.56,-0.4 -0.84,-0.93333 -0.84,-1.6 0,-0.77333 0.32,-1.34666 0.96,-1.72 0.29333,-0.18666 0.85333,-0.27999 1.68,-0.28 l 2.28,0 0,-15.32 -2.28,0 c -0.88,2e-5 -1.48,-0.11998 -1.8,-0.36 -0.56,-0.42664 -0.84,-0.97331 -0.84,-1.64 0,-0.77331 0.32,-1.34664 0.96,-1.72 0.29333,-0.18664 0.85333,-0.27997 1.68,-0.28 l 8.56,0 c 0.85332,3e-5 1.45332,0.12003 1.8,0.36 0.55999,0.42669 0.83999,0.97336 0.84,1.64 -10e-6,0.77336 -0.32001,1.34669 -0.96,1.72 -0.29334,0.18669 -0.85334,0.28002 -1.68,0.28 l -2.28,0"
           id="path3960"
           style="font-variant:normal;font-weight:bold;font-stretch:normal;font-family:TlwgTypewriter;-inkscape-font-specification:TlwgTypewriter Bold" />
        <path
           d="m -70.459812,199.23444 0,11.12 c -2.1e-5,2.85334 -1.12002,5.12001 -3.36,6.8 -1.706683,1.30667 -3.640014,1.96 -5.8,1.96 -2.16001,0 -4.093341,-0.65333 -5.8,-1.96 -2.240004,-1.73333 -3.360003,-3.99999 -3.36,-6.8 l 0,-11.12 c -1.626668,-0.0533 -2.44,-0.71998 -2.44,-2 0,-0.77331 0.319999,-1.34664 0.96,-1.72 0.266665,-0.18664 0.826664,-0.27997 1.68,-0.28 l 5.2,0 c 0.906658,3e-5 1.51999,0.12003 1.84,0.36 0.533323,0.45336 0.799989,1.00003 0.8,1.64 -1.1e-5,0.77336 -0.320011,1.34669 -0.96,1.72 -0.293343,0.18669 -0.853342,0.28002 -1.68,0.28 l -1.4,0 0,11.48 c -7e-6,1.22668 0.506659,2.26668 1.52,3.12 1.013324,0.85334 2.226656,1.28001 3.64,1.28 1.41332,1e-5 2.626652,-0.42666 3.64,-1.28 1.013317,-0.85332 1.519983,-1.89332 1.52,-3.12 l 0,-11.48 -1.4,0 c -0.880015,2e-5 -1.480014,-0.11998 -1.8,-0.36 -0.560013,-0.42664 -0.840013,-0.97331 -0.84,-1.64 -1.3e-5,-0.77331 0.319987,-1.34664 0.96,-1.72 0.266652,-0.18664 0.826652,-0.27997 1.68,-0.28 l 5.2,0 c 0.853312,3e-5 1.466644,0.12003 1.84,0.36 0.53331,0.40003 0.799976,0.94669 0.8,1.64 -2.4e-5,1.33336 -0.813356,2.00002 -2.44,2"
           id="path3962"
           style="font-variant:normal;font-weight:bold;font-stretch:normal;font-family:TlwgTypewriter;-inkscape-font-specification:TlwgTypewriter Bold" />
      </g>
      <g
         transform="matrix(-0.20126493,-0.75113092,0.75113092,-0.20126493,91.389953,-16.795136)"
         id="text3923"
         style="font-size:40px;font-style:normal;font-weight:normal;line-height:125%;letter-spacing:0px;word-spacing:0px;fill:#000000;fill-opacity:1;stroke:none;font-family:Sans">
        <path
           d="m -255.1143,109.55444 0,-15.319997 -0.6,0 c -0.88,2e-5 -1.48,-0.11998 -1.8,-0.36 -0.56,-0.426646 -0.84,-0.973312 -0.84,-1.64 0,-0.746644 0.32,-1.319977 0.96,-1.72 0.29333,-0.186643 0.85333,-0.279976 1.68,-0.28 l 10.12,0 c 2.26665,2.4e-5 4.13332,0.62669 5.6,1.88 1.49331,1.253354 2.23998,2.826686 2.24,4.72 -2e-5,1.706682 -0.84002,3.213347 -2.52,4.519997 2.82665,1.41335 4.23998,3.34668 4.24,5.8 -2e-5,1.92001 -0.72002,3.46667 -2.16,4.64 -1.44002,1.17334 -3.34668,1.76 -5.72,1.76 l -11.8,0 c -0.90667,0 -1.50667,-0.13333 -1.8,-0.4 -0.56,-0.4 -0.84,-0.93333 -0.84,-1.6 0,-0.77333 0.32,-1.34666 0.96,-1.72 0.29333,-0.18666 0.85333,-0.27999 1.68,-0.28 l 0.6,0 m 4,-9.679997 4.52,0 c 1.43999,1.4e-5 2.59999,-0.279986 3.48,-0.84 0.90665,-0.586651 1.35998,-1.333317 1.36,-2.24 -2e-5,-0.799982 -0.36001,-1.426648 -1.08,-1.88 -0.72001,-0.453314 -1.70668,-0.67998 -2.96,-0.68 l -5.32,0 0,5.64 m 0,9.679997 7,0 c 2.71998,1e-5 4.07998,-0.71999 4.08,-2.16 -2e-5,-1.06666 -0.57335,-1.94666 -1.72,-2.64 -0.98668,-0.58665 -2.30668,-0.87999 -3.96,-0.88 l -5.4,0 0,5.68"
           id="path3965"
           style="font-variant:normal;font-weight:bold;font-stretch:normal;font-family:TlwgTypewriter;-inkscape-font-specification:TlwgTypewriter Bold" />
        <path
           d="m -223.96992,114.07444 c -2.10668,0 -3.82668,-0.58666 -5.16,-1.76 -1.30667,-1.19999 -1.96001,-2.86666 -1.96,-5 l 0,-7.24 -1.08,0 c -0.66667,2e-5 -1.2,-0.18665 -1.6,-0.559997 -0.4,-0.373319 -0.6,-0.853318 -0.6,-1.44 0,-0.773317 0.32,-1.346649 0.96,-1.72 0.29333,-0.186649 0.85333,-0.279982 1.68,-0.28 l 4.64,0 0,11.119997 c -1e-5,1.92001 1.17332,2.88001 3.52,2.88 1.01332,1e-5 1.85332,-0.17333 2.52,-0.52 0.66665,-0.37333 1.51998,-1.10666 2.56,-2.2 l 0,-7.28 -1.4,0 c -0.80002,2e-5 -1.32002,-0.07998 -1.56,-0.239997 -0.08,-0.05332 -0.16002,-0.106652 -0.24,-0.16 -0.56002,-0.453319 -0.84002,-0.986651 -0.84,-1.6 -2e-5,-0.773317 0.31998,-1.346649 0.96,-1.72 0.29332,-0.186649 0.85332,-0.279982 1.68,-0.28 l 5.4,0 0,13.479997 c 1.62664,1e-5 2.43997,0.66667 2.44,2 -3e-5,0.72 -0.32003,1.29334 -0.96,1.72 -0.29336,0.18667 -0.85336,0.28 -1.68,0.28 l -3.8,0 0,-1.92 c -0.98669,0.93334 -1.88002,1.57334 -2.68,1.92 -0.77335,0.34667 -1.70668,0.52 -2.8,0.52"
           id="path3967"
           style="font-variant:normal;font-weight:bold;font-stretch:normal;font-family:TlwgTypewriter;-inkscape-font-specification:TlwgTypewriter Bold" />
        <path
           d="m -192.66555,102.31444 c -0.77335,10e-6 -1.46668,-0.53332 -2.08,-1.6 -1.09335,-0.773316 -2.46668,-1.159983 -4.12,-1.159997 -1.01334,1.4e-5 -1.93334,0.146681 -2.76,0.44 -0.80001,0.266677 -1.20001,0.586677 -1.2,0.959997 -1e-5,0.37335 0.34666,0.69335 1.04,0.96 0.39999,0.13335 1.51999,0.33335 3.36,0.6 2.71999,0.37335 4.65332,0.88001 5.8,1.52 0.87998,0.48001 1.55998,1.12001 2.04,1.92 0.50665,0.80001 0.75998,1.66668 0.76,2.6 -2e-5,1.62667 -0.84002,2.97334 -2.52,4.04 -1.68001,1.06667 -3.81335,1.6 -6.4,1.6 -2.32001,0 -4.29334,-0.38666 -5.92,-1.16 -0.4,0.32 -0.82667,0.48 -1.28,0.48 -0.77334,0 -1.36,-0.32 -1.76,-0.96 -0.18667,-0.34666 -0.28,-0.90666 -0.28,-1.68 l 0,-1.32 c 0,-0.90666 0.13333,-1.51999 0.4,-1.84 0.4,-0.55999 0.94666,-0.83999 1.64,-0.84 1.01333,10e-6 1.69333,0.58668 2.04,1.76 1.14666,1.04001 2.81333,1.56001 5,1.56 1.27999,1e-5 2.37332,-0.17333 3.28,-0.52 0.93332,-0.34666 1.39999,-0.74666 1.4,-1.2 -1e-5,-0.58666 -0.45335,-1.05332 -1.36,-1.4 -0.61335,-0.23999 -1.84001,-0.46666 -3.68,-0.68 -2.80001,-0.29332 -4.82667,-0.86666 -6.08,-1.72 -1.25334,-0.85332 -1.88,-2.06665 -1.88,-3.64 0,-1.599983 0.77333,-2.906648 2.32,-3.919997 1.54666,-1.039982 3.51999,-1.559982 5.92,-1.56 1.94665,1.8e-5 3.66665,0.346685 5.16,1.04 0.29332,-0.693315 0.71998,-1.039982 1.28,-1.04 1.25332,1.8e-5 1.87998,0.880017 1.88,2.64 l 0,1.48 c -2e-5,0.880017 -0.12002,1.493347 -0.36,1.839997 -0.45335,0.53335 -1.00002,0.80001 -1.64,0.8"
           id="path3969"
           style="font-variant:normal;font-weight:bold;font-stretch:normal;font-family:TlwgTypewriter;-inkscape-font-specification:TlwgTypewriter Bold" />
      </g>
      <g
         transform="matrix(-0.20126493,-0.75113092,0.75113092,-0.20126493,91.389953,-16.795136)"
         id="text3927"
         style="font-size:40px;font-style:normal;font-weight:normal;line-height:125%;letter-spacing:0px;word-spacing:0px;fill:#000000;fill-opacity:1;stroke:none;font-family:Sans">
        <path
           d="m -163.21707,336.06314 c 2.82666,2e-5 5.22665,0.90668 7.2,2.72 1.99998,1.81335 2.99998,4.01335 3,6.6 -2e-5,2.61334 -1.00002,4.82667 -3,6.64 -2.00001,1.78667 -4.44001,2.68 -7.32,2.68 -2.88001,0 -5.32,-0.89333 -7.32,-2.68 -2,-1.81333 -3,-4.02666 -3,-6.64 0,-2.63999 1,-4.85332 3,-6.64 2,-1.78665 4.47999,-2.67998 7.44,-2.68 m -0.04,4 c -1.81334,1e-5 -3.33334,0.50668 -4.56,1.52 -1.22667,1.01335 -1.84,2.28001 -1.84,3.8 0,1.49334 0.6,2.76001 1.8,3.8 1.22666,1.01334 2.73333,1.52 4.52,1.52 1.78666,0 3.27999,-0.50666 4.48,-1.52 1.22665,-1.03999 1.83999,-2.30666 1.84,-3.8 -1e-5,-1.49332 -0.61335,-2.74665 -1.84,-3.76 -1.20001,-1.03999 -2.66668,-1.55999 -4.4,-1.56"
           id="path3994"
           style="font-variant:normal;font-weight:bold;font-stretch:normal;font-family:TlwgTypewriter;-inkscape-font-specification:TlwgTypewriter Bold" />
        <path
           d="m -144.39269,351.42314 0,6.84 2.32,0 c 0.87999,0 1.49332,0.12 1.84,0.36 0.53332,0.4 0.79999,0.94666 0.8,1.64 -1e-5,0.71999 -0.32001,1.29333 -0.96,1.72 -0.29335,0.18666 -0.85335,0.27999 -1.68,0.28 l -6.96,0 c -0.90667,-1e-5 -1.52,-0.13334 -1.84,-0.4 -0.53333,-0.40001 -0.8,-0.93334 -0.8,-1.6 0,-0.77334 0.32,-1.34667 0.96,-1.72 0.26666,-0.18667 0.82666,-0.28 1.68,-0.28 l 0.64,0 0,-17.68 -0.64,0 c -0.88,10e-6 -1.49334,-0.11999 -1.84,-0.36 -0.53333,-0.45332 -0.8,-0.99998 -0.8,-1.64 0,-0.77332 0.32,-1.34665 0.96,-1.72 0.34666,-0.18665 0.90666,-0.27998 1.68,-0.28 l 4.64,0 0,1.8 c 1.81332,-1.54665 3.85332,-2.31998 6.12,-2.32 2.79998,2e-5 5.11998,0.86668 6.96,2.6 1.86664,1.70668 2.79998,3.85335 2.8,6.44 -2e-5,2.45334 -0.92002,4.49334 -2.76,6.12 -1.84002,1.62667 -4.14668,2.44 -6.92,2.44 -2.18668,0 -4.25334,-0.74666 -6.2,-2.24 m 5.96,-11.36 c -1.68001,1e-5 -3.02668,0.38668 -4.04,1.16 -0.58668,0.42668 -1.05334,0.97335 -1.4,1.64 -0.34668,0.66668 -0.52001,1.32001 -0.52,1.96 -1e-5,1.41334 0.54666,2.57334 1.64,3.48 1.11999,0.90667 2.55999,1.36001 4.32,1.36 1.73332,10e-6 3.14665,-0.45333 4.24,-1.36 1.11998,-0.90666 1.67998,-2.05332 1.68,-3.44 -2e-5,-0.66666 -0.17335,-1.33332 -0.52,-2 -0.34669,-0.66665 -0.81335,-1.21332 -1.4,-1.64 -1.01335,-0.77332 -2.34668,-1.15999 -4,-1.16"
           id="path3996"
           style="font-variant:normal;font-weight:bold;font-stretch:normal;font-family:TlwgTypewriter;-inkscape-font-specification:TlwgTypewriter Bold" />
        <path
           d="m -114.96832,340.06314 c -1.89334,1e-5 -3.41334,0.53335 -4.56,1.6 -1.12,1.04001 -1.68,2.41334 -1.68,4.12 0,3.28001 2.34666,4.92 7.04,4.92 1.75999,0 3.15999,-0.17333 4.2,-0.52 0.50665,-0.16 1.17332,-0.57333 2,-1.24 0.34665,-0.31999 0.74665,-0.47999 1.2,-0.48 0.53332,10e-6 0.99998,0.20001 1.4,0.6 0.39998,0.40001 0.59998,0.88 0.6,1.44 -2e-5,1.06667 -0.85335,2.04 -2.56,2.92 -1.76001,0.85333 -4.13335,1.28 -7.12,1.28 -3.68001,0 -6.45334,-0.92 -8.32,-2.76 -1.62667,-1.62666 -2.44,-3.67999 -2.44,-6.16 0,-2.85332 0.94667,-5.18665 2.84,-7 1.92,-1.81332 4.38666,-2.71998 7.4,-2.72 2.29332,2e-5 4.21332,0.40002 5.76,1.2 0.23998,-0.79998 0.74665,-1.19998 1.52,-1.2 1.27998,2e-5 1.91998,0.88002 1.92,2.64 l 0,3.08 c -2e-5,0.88001 -0.12002,1.48001 -0.36,1.8 -0.42668,0.56001 -0.97335,0.84001 -1.64,0.84 -0.58668,1e-5 -1.06668,-0.18666 -1.44,-0.56 -0.24001,-0.18666 -0.44001,-0.63999 -0.6,-1.36 -0.13335,-0.63999 -0.44001,-1.11999 -0.92,-1.44 -1.09335,-0.66665 -2.50668,-0.99999 -4.24,-1"
           id="path3998"
           style="font-variant:normal;font-weight:bold;font-stretch:normal;font-family:TlwgTypewriter;-inkscape-font-specification:TlwgTypewriter Bold" />
        <path
           d="m -91.263942,336.06314 c 2.826652,2e-5 5.22665,0.90668 7.2,2.72 1.999979,1.81335 2.999978,4.01335 3,6.6 -2.2e-5,2.61334 -1.000021,4.82667 -3,6.64 -2.000017,1.78667 -4.440015,2.68 -7.32,2.68 -2.880009,0 -5.320006,-0.89333 -7.32,-2.68 -1.999998,-1.81333 -2.999998,-4.02666 -2.999998,-6.64 0,-2.63999 1,-4.85332 2.999998,-6.64 1.999994,-1.78665 4.479991,-2.67998 7.44,-2.68 m -0.04,4 c -1.813343,1e-5 -3.333342,0.50668 -4.56,1.52 -1.226673,1.01335 -1.840005,2.28001 -1.84,3.8 -5e-6,1.49334 0.599994,2.76001 1.8,3.8 1.226658,1.01334 2.733323,1.52 4.52,1.52 1.786653,0 3.279985,-0.50666 4.48,-1.52 1.226649,-1.03999 1.839982,-2.30666 1.84,-3.8 -1.8e-5,-1.49332 -0.613351,-2.74665 -1.84,-3.76 -1.200015,-1.03999 -2.66668,-1.55999 -4.4,-1.56"
           id="path4000"
           style="font-variant:normal;font-weight:bold;font-stretch:normal;font-family:TlwgTypewriter;-inkscape-font-specification:TlwgTypewriter Bold" />
        <path
           d="m -58.159567,329.10314 0,20.96 0.64,0 c 0.879978,0 1.49331,0.12 1.84,0.36 0.533309,0.45334 0.799976,1 0.8,1.64 -2.4e-5,0.77334 -0.320024,1.34667 -0.96,1.72 -0.293356,0.18667 -0.853356,0.28 -1.68,0.28 l -4.64,0 0,-1.4 c -1.920015,1.30667 -3.933346,1.96 -6.04,1.96 -2.906675,0 -5.266672,-0.86667 -7.08,-2.6 -1.866669,-1.81333 -2.800001,-4.05333 -2.8,-6.72 -10e-7,-2.66665 0.933331,-4.89332 2.8,-6.68 1.813328,-1.73332 4.186659,-2.59998 7.12,-2.6 2.319987,2e-5 4.319985,0.66668 6,2 l 0,-4.96 -0.64,0 c -0.880015,2e-5 -1.493348,-0.11998 -1.84,-0.36 -0.533347,-0.45331 -0.800014,-0.99998 -0.8,-1.64 -1.4e-5,-0.74664 0.319986,-1.30664 0.96,-1.68 0.293318,-0.18664 0.853318,-0.27997 1.68,-0.28 l 4.64,0 m -10,10.92 c -1.840009,10e-6 -3.293341,0.53335 -4.36,1.6 -1.040005,1.04001 -1.560005,2.26668 -1.56,3.68 -5e-6,1.52001 0.546661,2.78667 1.64,3.8 1.119992,1.01334 2.559991,1.52 4.32,1.52 1.839987,0 3.306652,-0.53333 4.4,-1.6 1.039984,-1.03999 1.559983,-2.25333 1.56,-3.64 -1.7e-5,-1.46666 -0.520016,-2.71999 -1.56,-3.76 -1.093348,-1.06665 -2.573346,-1.59999 -4.44,-1.6"
           id="path4002"
           style="font-variant:normal;font-weight:bold;font-stretch:normal;font-family:TlwgTypewriter;-inkscape-font-specification:TlwgTypewriter Bold" />
        <path
           d="m -33.415192,347.18314 -16.32,0 c 0.90666,2.34667 3.093325,3.52 6.56,3.52 1.49332,0 3.666651,-0.37333 6.52,-1.12 0.533314,-0.13333 0.973314,-0.19999 1.32,-0.2 0.533313,10e-6 0.986646,0.20001 1.36,0.6 0.373312,0.37334 0.559978,0.84 0.56,1.4 -2.2e-5,0.77334 -0.466688,1.37334 -1.4,1.8 -0.906686,0.4 -2.240018,0.74667 -4,1.04 -1.733348,0.32 -3.30668,0.48 -4.72,0.48 -3.093342,0 -5.626673,-0.86667 -7.6,-2.6 -1.973335,-1.73333 -2.960001,-3.95999 -2.96,-6.68 -1e-6,-2.63999 0.986665,-4.85332 2.96,-6.64 1.999994,-1.81332 4.453325,-2.71998 7.36,-2.72 2.986652,2e-5 5.453317,0.90668 7.4,2.72 1.973313,1.81335 2.959978,4.09335 2.96,6.84 l 0,1.56 m -16.2,-3.52 11.76,0 c -0.320017,-1.09332 -1.01335,-1.95999 -2.08,-2.6 -1.066681,-0.66665 -2.333346,-0.99999 -3.8,-1 -1.466677,1e-5 -2.746675,0.33335 -3.84,1 -1.066673,0.66668 -1.746672,1.53335 -2.04,2.6"
           id="path4004"
           style="font-variant:normal;font-weight:bold;font-stretch:normal;font-family:TlwgTypewriter;-inkscape-font-specification:TlwgTypewriter Bold" />
      </g>
      <g
         transform="matrix(-0.20126493,-0.75113092,0.75113092,-0.20126493,91.389953,-16.795136)"
         id="text3931"
         style="font-size:40px;font-style:normal;font-weight:normal;line-height:125%;letter-spacing:0px;word-spacing:0px;fill:#000000;fill-opacity:1;stroke:none;font-family:Sans">
        <path
           d="m -664.80562,369.99455 0,6.84 2.31999,0 c 0.87999,0 1.49333,0.12 1.84001,0.36 0.53332,0.4 0.79998,0.94666 0.79999,1.64 -10e-6,0.72 -0.32001,1.29333 -0.95999,1.72 -0.29335,0.18666 -0.85335,0.27999 -1.68001,0.28 l -6.95999,0 c -0.90667,-10e-6 -1.52001,-0.13334 -1.84,-0.4 -0.53334,-0.40001 -0.8,-0.93334 -0.80001,-1.6 1e-5,-0.77334 0.32001,-1.34667 0.96,-1.72 0.26667,-0.18667 0.82667,-0.28 1.68001,-0.28 l 0.64,0 0,-17.68 -0.64,0 c -0.88001,2e-5 -1.49334,-0.11998 -1.84,-0.36 -0.53334,-0.45332 -0.8,-0.99998 -0.80001,-1.64 1e-5,-0.77332 0.32001,-1.34665 0.96,-1.72 0.34667,-0.18665 0.90667,-0.27998 1.68001,-0.28 l 4.64,0 0,1.8 c 1.81332,-1.54665 3.85332,-2.31998 6.12,-2.32 2.79998,2e-5 5.11998,0.86669 6.95999,2.6 1.86665,1.70668 2.79998,3.85335 2.80001,6.44 -3e-5,2.45334 -0.92003,4.49334 -2.76,6.12 -1.84002,1.62667 -4.14669,2.44 -6.92001,2.44 -2.18667,0 -4.25334,-0.74666 -6.19999,-2.24 m 5.95999,-11.36 c -1.68001,2e-5 -3.02667,0.38668 -4.03999,1.16 -0.58668,0.42668 -1.05335,0.97335 -1.4,1.64 -0.34668,0.66668 -0.52001,1.32001 -0.52,1.96 -10e-6,1.41334 0.54665,2.57334 1.64,3.48 1.11999,0.90667 2.55998,1.36001 4.31999,1.36 1.73332,10e-6 3.14666,-0.45333 4.24,-1.36 1.11999,-0.90666 1.67999,-2.05332 1.68001,-3.44 -2e-5,-0.66665 -0.17336,-1.33332 -0.52,-2 -0.34669,-0.66665 -0.81336,-1.21332 -1.40001,-1.64 -1.01334,-0.77332 -2.34668,-1.15998 -4,-1.16"
           id="path3979"
           style="font-variant:normal;font-weight:bold;font-stretch:normal;font-family:TlwgTypewriter;-inkscape-font-specification:TlwgTypewriter Bold" />
        <path
           d="m -636.66125,355.15455 0,2.6 c 1.59999,-1.19998 2.86665,-2.01331 3.8,-2.44 0.93332,-0.42665 1.89332,-0.63998 2.88,-0.64 1.41331,2e-5 2.71998,0.50669 3.92,1.52 0.74664,0.61335 1.11998,1.24002 1.12,1.88 -2e-5,0.56002 -0.20002,1.04002 -0.6,1.44 -0.40002,0.40001 -0.86669,0.60001 -1.4,0.6 -0.48002,10e-6 -1.00002,-0.23999 -1.56,-0.72 -0.56002,-0.47998 -1.08002,-0.71998 -1.56,-0.72 -0.64002,2e-5 -1.42668,0.29335 -2.36,0.88 -0.90668,0.56001 -2.32001,1.62668 -4.24,3.2 l 0,5.88 5.56,0 c 0.87998,1e-5 1.49332,0.12001 1.84,0.36 0.55998,0.42667 0.83998,0.97334 0.84,1.64 -2e-5,0.77334 -0.32002,1.34667 -0.96,1.72 -0.32002,0.18667 -0.89335,0.28 -1.72,0.28 l -11.88,0 c -0.88,0 -1.49334,-0.13333 -1.84,-0.4 -0.53334,-0.4 -0.8,-0.93333 -0.8,-1.6 0,-0.77333 0.32,-1.34666 0.96,-1.72 0.26666,-0.18666 0.82666,-0.27999 1.68,-0.28 l 2.32,0 0,-9.48 -1.4,0 c -0.90667,2e-5 -1.50667,-0.13332 -1.8,-0.4 -0.56,-0.39998 -0.84,-0.93332 -0.84,-1.6 0,-1.33331 0.88,-1.99998 2.64,-2 l 5.4,0"
           id="path3981"
           style="font-variant:normal;font-weight:bold;font-stretch:normal;font-family:TlwgTypewriter;-inkscape-font-specification:TlwgTypewriter Bold" />
        <path
           d="m -611.67687,354.63455 c 2.82665,2e-5 5.22664,0.90669 7.2,2.72 1.99997,1.81335 2.99997,4.01335 3,6.6 -3e-5,2.61334 -1.00003,4.82667 -3,6.64 -2.00002,1.78667 -4.44002,2.68 -7.32,2.68 -2.88001,0 -5.32001,-0.89333 -7.32001,-2.68 -2,-1.81333 -3,-4.02666 -3,-6.64 0,-2.63999 1,-4.85332 3,-6.64 2,-1.78665 4.48,-2.67998 7.44001,-2.68 m -0.04,4 c -1.81335,2e-5 -3.33335,0.50668 -4.56001,1.52 -1.22667,1.01335 -1.84,2.28001 -1.84,3.8 0,1.49334 0.6,2.76001 1.80001,3.8 1.22665,1.01334 2.73332,1.52001 4.52,1.52 1.78665,1e-5 3.27998,-0.50666 4.48,-1.52 1.22664,-1.03999 1.83998,-2.30666 1.84,-3.8 -2e-5,-1.49332 -0.61336,-2.74665 -1.84,-3.76 -1.20002,-1.03998 -2.66669,-1.55998 -4.4,-1.56"
           id="path3983"
           style="font-variant:normal;font-weight:bold;font-stretch:normal;font-family:TlwgTypewriter;-inkscape-font-specification:TlwgTypewriter Bold" />
        <path
           d="m -583.4125,356.59455 0,-1.44 4.64,0 c 0.87998,2e-5 1.49331,0.12002 1.84,0.36 0.53331,0.45335 0.79998,1.00002 0.8,1.64 -2e-5,0.77335 -0.32002,1.34668 -0.96,1.72 -0.29336,0.18668 -0.85336,0.28002 -1.68,0.28 l -0.64,0 0,14.28 c -2e-5,2.10667 -0.73335,3.86666 -2.2,5.28 -1.44002,1.41333 -3.25335,2.11999 -5.44,2.12 l -4.48,0 c -0.90667,-10e-6 -1.50667,-0.13334 -1.8,-0.4 -0.56001,-0.40001 -0.84001,-0.93334 -0.84,-1.6 -10e-6,-0.77334 0.31999,-1.34667 0.96,-1.72 0.29333,-0.18667 0.85333,-0.28 1.68,-0.28 l 4.36,0 c 1.14665,0 2.05332,-0.30667 2.72,-0.92 0.69332,-0.61333 1.03998,-1.44 1.04,-2.48 l 0,-2.2 c -1.76001,1.30667 -3.64001,1.96 -5.64,1.96 -2.69334,0 -4.94667,-0.88 -6.76,-2.64 -1.78667,-1.78666 -2.68,-3.99999 -2.68,-6.64 0,-2.66665 0.89333,-4.87998 2.68,-6.64 1.81333,-1.78665 4.06666,-2.67998 6.76,-2.68 2.18665,2e-5 4.06665,0.66669 5.64,2 m -5.56,2 c -1.52001,2e-5 -2.82667,0.52002 -3.92,1.56 -1.06667,1.01335 -1.60001,2.25335 -1.6,3.72 -1e-5,1.46668 0.53333,2.72001 1.6,3.76 1.09333,1.04001 2.39999,1.56001 3.92,1.56 1.51999,1e-5 2.82665,-0.50666 3.92,-1.52 1.09332,-1.03999 1.63998,-2.27999 1.64,-3.72 -2e-5,-1.49332 -0.54668,-2.75999 -1.64,-3.8 -1.06668,-1.03998 -2.37335,-1.55998 -3.92,-1.56"
           id="path3985"
           style="font-variant:normal;font-weight:bold;font-stretch:normal;font-family:TlwgTypewriter;-inkscape-font-specification:TlwgTypewriter Bold" />
        <path
           d="m -564.70812,355.15455 0,2.6 c 1.59998,-1.19998 2.86665,-2.01331 3.79999,-2.44 0.93332,-0.42665 1.89332,-0.63998 2.88,-0.64 1.41332,2e-5 2.71998,0.50669 3.92001,1.52 0.74664,0.61335 1.11997,1.24002 1.12,1.88 -3e-5,0.56002 -0.20003,1.04002 -0.6,1.44 -0.40003,0.40001 -0.86669,0.60001 -1.4,0.6 -0.48003,10e-6 -1.00002,-0.23999 -1.56001,-0.72 -0.56001,-0.47998 -1.08001,-0.71998 -1.55999,-0.72 -0.64002,2e-5 -1.42669,0.29335 -2.36,0.88 -0.90669,0.56001 -2.32002,1.62668 -4.24,3.2 l 0,5.88 5.55999,0 c 0.87999,1e-5 1.49332,0.12001 1.84,0.36 0.55999,0.42667 0.83999,0.97334 0.84001,1.64 -2e-5,0.77334 -0.32002,1.34667 -0.96001,1.72 -0.32001,0.18667 -0.89335,0.28 -1.72,0.28 l -11.88,0 c -0.88,0 -1.49333,-0.13333 -1.83999,-0.4 -0.53334,-0.4 -0.80001,-0.93333 -0.80001,-1.6 0,-0.77333 0.32,-1.34666 0.96001,-1.72 0.26666,-0.18666 0.82666,-0.27999 1.67999,-0.28 l 2.32001,0 0,-9.48 -1.4,0 c -0.90668,2e-5 -1.50668,-0.13332 -1.80001,-0.4 -0.56,-0.39998 -0.84,-0.93332 -0.83999,-1.6 -10e-6,-1.33331 0.87999,-1.99998 2.64,-2 l 5.4,0"
           id="path3987"
           style="font-variant:normal;font-weight:bold;font-stretch:normal;font-family:TlwgTypewriter;-inkscape-font-specification:TlwgTypewriter Bold" />
        <path
           d="m -536.32375,372.63455 0,-0.92 c -2.00001,1.04 -4.21334,1.56 -6.64,1.56 -1.97334,0 -3.66667,-0.52 -5.08,-1.56 -1.41334,-1.06666 -2.12,-2.34666 -2.12,-3.84 0,-1.30666 0.52,-2.54666 1.56,-3.72 1.81333,-2.02665 4.51999,-3.03999 8.12,-3.04 1.19999,10e-6 2.58665,0.13335 4.16,0.4 l 0,-0.92 c -2e-5,-1.30665 -1.24001,-1.95998 -3.72,-1.96 -1.36001,2e-5 -2.90668,0.22668 -4.64,0.68 -0.66667,0.16002 -1.20001,0.24002 -1.6,0.24 -0.56,2e-5 -1.02667,-0.18665 -1.4,-0.56 -0.37334,-0.39998 -0.56,-0.89332 -0.56,-1.48 0,-0.85332 0.4,-1.41331 1.2,-1.68 2.26666,-0.79998 4.55999,-1.19998 6.88,-1.2 2.45332,2e-5 4.37332,0.52002 5.76,1.56 1.41331,1.04002 2.11998,2.49335 2.12,4.36 l 0,8.08 0.64,0 c 0.87998,1e-5 1.49331,0.12001 1.84,0.36 0.53331,0.45334 0.79998,1 0.8,1.64 -2e-5,0.77334 -0.32002,1.34667 -0.96,1.72 -0.26669,0.18667 -0.82669,0.28 -1.68,0.28 l -4.68,0 m 0.04,-5.4 0,-2 c -1.68001,-0.29332 -3.16001,-0.43999 -4.44,-0.44 -1.36001,10e-6 -2.57334,0.29334 -3.64,0.88 -1.04001,0.58668 -1.56001,1.26667 -1.56,2.04 -10e-6,0.45334 0.29333,0.82667 0.88,1.12 0.58666,0.29334 1.30666,0.44001 2.16,0.44 2.18666,1e-5 4.38665,-0.67999 6.6,-2.04"
           id="path3989"
           style="font-variant:normal;font-weight:bold;font-stretch:normal;font-family:TlwgTypewriter;-inkscape-font-specification:TlwgTypewriter Bold" />
        <path
           d="m -528.61937,357.15455 c 0,-1.33331 0.89333,-1.99998 2.67999,-2 l 3.72,0 0,0.96 c 1.22666,-0.98665 2.36,-1.47998 3.4,-1.48 1.51999,2e-5 2.87999,0.65335 4.08001,1.96 1.19998,-1.30665 2.58665,-1.95998 4.15999,-1.96 1.49332,2e-5 2.73332,0.50669 3.72001,1.52 1.01331,0.98668 1.51997,2.22668 1.51999,3.72 l 0,8.76 c 1.59998,1e-5 2.39998,0.66667 2.40001,2 -3e-5,1.33334 -0.88003,2 -2.64001,2 l -3.76,0 0,-12.44 c -10e-6,-0.58665 -0.10668,-0.98665 -0.31999,-1.2 -0.18669,-0.23998 -0.54669,-0.35998 -1.08,-0.36 -0.53335,2e-5 -1.01335,0.12002 -1.44001,0.36 -0.40001,0.24002 -0.93334,0.72001 -1.59999,1.44 l 0,8.2 c 0.74665,1e-5 1.33331,0.18667 1.76,0.56 0.42665,0.34667 0.63998,0.82667 0.64,1.44 -2e-5,0.72 -0.32002,1.29334 -0.96001,1.72 -0.29334,0.18667 -0.85334,0.28 -1.67999,0.28 l -3.76,0 0,-12.44 c -2e-5,-0.55998 -0.10668,-0.95998 -0.32,-1.2 -0.21335,-0.23998 -0.57335,-0.35998 -1.08001,-0.36 -0.96,2e-5 -1.97334,0.60002 -3.04,1.8 l 0,8.2 c 1.62666,1e-5 2.44,0.66667 2.44001,2 -10e-6,0.72 -0.32001,1.29334 -0.96,1.72 -0.29335,0.18667 -0.85334,0.28 -1.68,0.28 l -3.52001,0 c -0.88,0 -1.49333,-0.13333 -1.83999,-0.4 -0.56,-0.4 -0.84,-0.93333 -0.84,-1.6 0,-1.33333 0.79999,-1.99999 2.39999,-2 l 0,-9.48 c -1.6,-0.0533 -2.39999,-0.71998 -2.39999,-2"
           id="path3991"
           style="font-variant:normal;font-weight:bold;font-stretch:normal;font-family:TlwgTypewriter;-inkscape-font-specification:TlwgTypewriter Bold" />
      </g>
      <path
         d="m 293.13666,401.62209 c -8.25076,-17.91572 -6.64396,-50.54864 3.35736,-64.72934 l -15.76962,7.67571"
         id="path3937"
         style="fill:none;stroke:#000000;stroke-width:1.71078134;stroke-linecap:butt;stroke-linejoin:miter;stroke-miterlimit:4;stroke-opacity:1;stroke-dasharray:none" />
      <path
         d="m 297.03053,336.749 2.70327,16.52694"
         id="path3939"
         style="fill:none;stroke:#000000;stroke-width:1.71078134;stroke-linecap:butt;stroke-linejoin:miter;stroke-miterlimit:4;stroke-opacity:1;stroke-dasharray:none" />
      <path
         d="m 222.98458,165.22974 c 8.78726,17.65877 35.22053,36.8622 52.53863,37.95855 l -15.86547,7.47559"
         id="path3941"
         style="fill:none;stroke:#000000;stroke-width:1.71078146;stroke-linecap:butt;stroke-linejoin:miter;stroke-miterlimit:4;stroke-opacity:1;stroke-dasharray:none" />
      <path
         d="M 275.97153,202.86038 264.78899,190.39449"
         id="path3943"
         style="fill:none;stroke:#000000;stroke-width:1.71078146;stroke-linecap:butt;stroke-linejoin:miter;stroke-miterlimit:4;stroke-opacity:1;stroke-dasharray:none" />
      <path
         d="m 265.15068,67.545579 c 1.66598,-13.097338 1.48848,-71.7041256 9.12291,-90.426005"
         id="path3945"
         style="fill:none;stroke:#000000;stroke-width:3.42156315;stroke-linecap:butt;stroke-linejoin:miter;stroke-miterlimit:4;stroke-opacity:1;stroke-dasharray:none" />
      <path
         d="m 238.64232,-18.50844 c 9.07481,18.8449914 50.48746,61.802515 55.54728,74.247767"
         id="path3947"
         style="fill:none;stroke:#000000;stroke-width:3.42156315;stroke-linecap:butt;stroke-linejoin:miter;stroke-miterlimit:4;stroke-opacity:1;stroke-dasharray:none" />
      <path
         d="m 394.43301,45.244212 c 14.71179,13.13813 26.25408,43.703878 22.73874,60.696848 l 11.3995,-13.3285"
         id="path3949"
         style="fill:none;stroke:#000000;stroke-width:1.71078146;stroke-linecap:butt;stroke-linejoin:miter;stroke-miterlimit:4;stroke-opacity:1;stroke-dasharray:none" />
      <path
         d="M 416.73709,106.28689 407.66634,92.20964"
         id="path3951"
         style="fill:none;stroke:#000000;stroke-width:1.71078146;stroke-linecap:butt;stroke-linejoin:miter;stroke-miterlimit:4;stroke-opacity:1;stroke-dasharray:none" />
      <path
         d="m 465.66936,278.23576 c 1.24266,-19.68512 -12.01224,-49.54808 -26.45061,-59.17368 l 17.47597,1.47934"
         id="path3953"
         style="fill:none;stroke:#000000;stroke-width:1.71078146;stroke-linecap:butt;stroke-linejoin:miter;stroke-miterlimit:4;stroke-opacity:1;stroke-dasharray:none" />
      <path
         d="m 438.66646,219.12126 3.43206,16.3911"
         id="path3955"
         style="fill:none;stroke:#000000;stroke-width:1.71078146;stroke-linecap:butt;stroke-linejoin:miter;stroke-miterlimit:4;stroke-opacity:1;stroke-dasharray:none" />
    </g>
  </g>
</svg>
