<?xml version="1.0" encoding="UTF-8" standalone="no"?>
<!-- Created with Inkscape (http://www.inkscape.org/) -->

<svg
   xmlns:dc="http://purl.org/dc/elements/1.1/"
   xmlns:cc="http://creativecommons.org/ns#"
   xmlns:rdf="http://www.w3.org/1999/02/22-rdf-syntax-ns#"
   xmlns:svg="http://www.w3.org/2000/svg"
   xmlns="http://www.w3.org/2000/svg"
   xmlns:sodipodi="http://sodipodi.sourceforge.net/DTD/sodipodi-0.dtd"
   xmlns:inkscape="http://www.inkscape.org/namespaces/inkscape"
   version="1.1"
   width="300"
   height="400"
   id="svg3010"
   inkscape:version="0.48.4 r9939"
   sodipodi:docname="Bonsai-logo.svg">
  <sodipodi:namedview
     pagecolor="#ffffff"
     bordercolor="#666666"
     borderopacity="1"
     objecttolerance="10"
     gridtolerance="10"
     guidetolerance="10"
     inkscape:pageopacity="0"
     inkscape:pageshadow="2"
     inkscape:window-width="1871"
     inkscape:window-height="1056"
     id="namedview11"
     showgrid="false"
     inkscape:zoom="2.38396"
     inkscape:cx="128.96547"
     inkscape:cy="238.35233"
     inkscape:window-x="49"
     inkscape:window-y="24"
     inkscape:window-maximized="1"
     inkscape:current-layer="svg3010"
     fit-margin-top="0"
     fit-margin-left="0"
     fit-margin-right="0"
     fit-margin-bottom="0" />
  <defs
     id="defs3012" />
  <metadata
     id="metadata3015">
    <rdf:RDF>
      <cc:Work
         rdf:about="">
        <dc:format>image/svg+xml</dc:format>
        <dc:type
           rdf:resource="http://purl.org/dc/dcmitype/StillImage" />
        <dc:title></dc:title>
      </cc:Work>
    </rdf:RDF>
  </metadata>
  <path
     d="m 116.27019,298.35986 c 11.5679,-13.43369 11.5679,-14.92632 16.79212,-12.68739 5.22421,2.23896 9.19306,4.49636 8.95579,2.23896 -0.63721,-6.06235 -5.59738,-6.34368 -2.23895,-9.70212 6.44172,-6.4417 5.97053,-5.22421 8.9558,-2.23895 2.98526,2.98526 10.8302,1.83994 14.18001,-8.20947 2.98526,-8.95579 22.94612,-13.08 26.12107,-27.6137 2.80554,-12.84269 0,-35.82319 -6.71684,-44.03268 -6.71686,-8.20947 -20.89686,-21.64316 -23.13581,-22.38947 -2.23896,-0.74632 -0.74633,-4.4779 -5.22422,-7.46316 -4.4779,-2.98528 -11.19475,-18.65791 -17.91159,-17.91161 -6.71685,0.74633 -22.38949,11.19475 -34.33055,14.18001 -11.941059,2.98526 -39.92792,8.58265 -44.405824,3.35843 -4.477904,-5.22421 -8.955793,-16.79211 -8.955793,-16.79211 l 6.343694,-1.49263 c 0,0 0.245633,8.45512 5.224212,13.43368 2.612099,2.61211 9.803632,2.70264 14.553166,1.11947 6.716847,-2.23894 18.28475,-4.10473 18.28475,-4.10473 0,0 -11.194753,2.23894 -14.92633,-2.23895 -3.731581,-4.47789 -7.463163,-11.94107 -7.463163,-11.94107 l 8.955803,0.74632 c 0,0 -1.49264,3.73158 3.731583,6.71686 5.224213,2.98526 16.41895,4.47789 21.643162,2.23894 5.22422,-2.23894 12.68738,-5.97052 19.40423,-8.20949 6.71684,-2.23895 11.5679,-4.85104 11.5679,-4.85104 0,0 -19.65196,-7.24654 -19.40422,-14.92633 0.37313,-11.56791 -8.48935,-5.3175 -13.57363,-12.50081 -2.814598,-3.97658 1.81915,-7.64975 -2.845336,-9.51554 C 90.19973,99.710678 74.103314,103.94441 69.62541,97.227586 65.14752,90.510743 74.476475,77.82336 74.476475,77.82336 l 4.85106,3.358432 c 0,0 -6.716851,11.194738 -3.731577,13.433689 2.985254,2.238954 19.404215,-2.238951 25.374742,2.238954 5.97053,4.477885 10.07527,-9.702118 11.5679,-14.180025 1.49264,-4.477894 3.73159,-8.582633 3.73159,-8.582633 l 7.09001,-1.119473 c 0,0 -5.2394,9.183332 -5.59738,14.553174 -0.18659,2.798687 -8.20948,13.526992 -6.71685,18.611282 1.49263,5.08427 2.42553,1.16611 7.46316,0.79295 4.33985,-0.32149 -1.50599,-11.266481 11.94107,-10.821599 14.53181,0.480803 12.91722,-13.921055 12.31421,-23.88212 l 8.9558,-2.238947 c 0,0 3.73158,11.941054 1.86579,16.792116 -2.89791,7.534579 -2.78077,7.382774 4.85107,5.970536 8.27828,-1.531866 8.95578,-3.731583 11.19473,-7.090015 4.82782,-7.24171 2.98526,-20.150532 2.98526,-20.150532 l 5.97055,-2.238954 c 0,0 1.11946,3.731584 0.37313,11.194748 -0.93049,9.304901 -2.23895,22.016335 -17.16528,24.255278 -14.92631,2.238949 -32.83792,5.970539 -32.0916,9.702129 0.74631,3.73159 -1.11948,11.56791 5.59738,14.55317 6.71684,2.98526 21.64316,7.46316 26.12106,16.41895 4.4779,8.9558 5.22422,17.16529 16.41896,17.16529 11.19475,0 23.50897,-0.74632 23.50897,-0.74632 2.66525,-7.83029 -1.04931,-14.51703 -4.85106,-22.38949 l 6.71685,-0.74633 c 3.88601,13.30834 5.73393,11.2454 4.47789,23.13582 0,0 11.94107,-1.49263 21.64318,-1.49263 9.70211,0 16.79212,-9.32897 12.31422,-13.80686 -4.47789,-4.4779 -16.0458,-9.32896 -16.0458,-9.32896 l 7.46317,-2.23895 c 0,0 10.82158,4.47791 14.92632,9.70212 3.80224,4.83922 1.11946,11.56791 -3.73159,15.29949 -8.7341,6.71854 -8.9558,5.22421 -22.38948,7.09 -17.06623,2.3703 -6.34369,1.49263 -29.85265,5.22423 -6.2977,0.99963 -8.95581,0.37313 -8.95581,0.37313 0,0 11.17811,16.69402 15.29949,16.04579 4.25791,-0.66969 20.07772,43.06861 19.77739,54.4811 -0.74632,28.36001 -23.23125,30.89413 -22.38949,40.67424 0.8999,10.45558 8.19123,11.4233 12.68737,20.89684 z"
     id="path2985"
     style="fill:#4d4d4d;fill-opacity:1;stroke:none"
     inkscape:connector-curvature="0" />
  <path
     d="m 40.145932,165.14239 c 0,0 -7.836325,15.67264 -1.49263,8.9558 6.34368,-6.71685 4.477889,-14.92633 6.34368,-6.71685 1.865791,8.20948 2.98526,2.61212 3.358421,-5.97053 0.373161,-8.58263 0,12.31423 2.238952,2.98527 2.238937,-9.32896 -1.49263,-19.40423 4.477889,-10.82159 5.970534,8.58264 5.928801,0.35158 6.716856,-1.11947 5.597372,-10.44843 3.35842,10.82157 6.716841,1.86579 3.358421,-8.95581 4.851065,5.59737 4.851065,-5.59737 0,-4.25465 2.985259,1.11946 5.224206,1.11946 2.238953,0 0.746323,-2.23893 4.477906,-0.37313 3.731572,1.86579 0.373134,-0.74631 4.47789,-1.11948 4.104738,-0.37313 0.746323,-7.46316 5.597368,-0.37313 4.851062,7.09 3.731589,2.61211 4.477895,0.74632 0.746324,-1.86578 -2.985259,-2.6121 1.865797,-2.6121 4.851062,0 2.985262,-2.98528 5.224212,-0.37319 2.23895,2.6121 1.11948,3.35842 2.98527,2.6121 1.86579,-0.74631 -1.11947,2.98527 2.23895,-0.74631 3.35842,-3.73159 -2.16163,-7.28286 4.10474,-5.22422 4.26894,1.40246 3.38006,1.57919 2.6121,-1.49264 -1.11946,-4.47789 -6.28572,-4.18649 2.61212,-0.37313 2.6121,1.11946 12.68737,0.37313 0,-2.23895 -12.68738,-2.61211 -4.85106,-2.98527 -5.59738,-5.59738 -0.74632,-2.61211 0,-4.10474 0,-4.10474 0,0 5.97054,-4.10474 -1.11948,-4.85106 -7.09,-0.74631 -5.59737,2.98527 -7.46316,-0.74631 -1.86579,-3.73158 -1.86579,-4.85106 -1.86579,-4.85106 0,0 -2.6121,4.10474 -2.98526,0 -0.373134,-4.10474 -2.985264,-4.47789 -7.090002,-2.23894 -4.104745,2.23894 1.492624,-2.98528 -6.343698,1.49263 -7.836322,4.47789 -5.597368,3.35842 -1.49263,0 4.104733,-3.35843 4.477901,-7.09001 -5.224218,-4.10475 -9.70211,2.98528 -14.180014,5.59738 -14.180014,5.59738 -8.209471,1.11948 -2.985259,-5.59737 -11.194731,1.11948 -5.48737,4.48963 -10.821584,-5.59741 -13.060535,1.4926 -2.238952,7.08999 -2.654599,-5.23222 -2.985274,-3.35842 -1.119469,6.34368 -4.953747,2.88105 -4.47789,-1e-5 0.791352,-4.79123 0.746308,-4.85106 -5.224226,0 -5.970519,4.85106 -4.104728,5.97053 -7.090002,8.9558 -2.98526,2.98525 -10.460477,-0.19092 -8.209486,5.59736 2.612114,6.71686 -16.4679657,7.83433 -10.8215837,9.32896 12.6873897,3.35842 -6.111167,5.28677 1.865805,5.22423 13.0817007,-0.10263 3.731568,5.59737 4.104729,11.56789 0.373161,5.97053 -2.98526,9.32895 3.3584207,6.71684 6.343694,-2.6121 0.169203,8.20559 9.702115,-2.98526 8.582632,-10.07526 9.328954,-4.10473 1.119483,4.47789 -8.209471,8.58265 6.716841,-2.98526 6.716841,-2.98526 0,0 -2.238951,4.85106 -0.373161,3.7316 5.224212,-1.86581 13.060536,-10.44844 6.716856,-3.35843 -6.343695,7.09001 2.98526,0.37314 4.104743,0.74631 z"
     id="path2989"
     style="fill:#9a3454;fill-opacity:1;stroke:none"
     inkscape:connector-curvature="0" />
  <path
     d="m 175.60233,139.76763 c 4.85105,5.59737 1.73106,12.44062 5.22421,3.35842 1.86579,-4.85105 0,-6.71684 3.35842,1.8658 3.35844,8.58264 3.245,6.12786 5.59738,1.49263 2.49341,-4.91312 0.37315,-10.07527 2.98526,-0.74632 2.61211,9.32897 -2.98526,4.85107 4.85106,0.74632 7.83633,-4.10474 2.61212,-3.73158 7.83633,-2.23893 5.22422,1.49263 4.4779,1.49263 7.09002,0.37313 2.61209,-1.11949 0.74629,-6.3437 4.47788,-1.49265 3.73159,4.85107 2.6121,3.35844 0.74633,4.85107 -1.86579,1.49263 2.98526,0 5.22421,0.74632 2.23895,0.74631 -6.34368,-7.83634 1.11947,-1.49264 6.63761,5.64197 5.97053,0.74632 1.11947,-2.98526 -4.85105,-3.73159 -1.86579,-8.58265 4.10474,-0.74634 5.97055,7.83633 -2.6121,2.61213 2.98527,3.35844 5.59737,0.74632 0.37314,2.98526 7.46317,-5.59737 7.09,-8.58265 5.97053,-2.61211 10.07526,-0.37319 4.10474,2.23895 4.10473,-7.09 5.22421,-2.98527 1.11947,4.10474 1e-5,1.11948 5.97053,1.11948 5.97054,0 6.71684,14.18001 4.85107,4.10474 -1.86581,-10.07526 -14.18002,-17.16527 -7.09002,-11.56789 7.09,5.59737 11.19021,0.71032 14.55318,2.23895 4.10474,1.86578 5.59653,0.93218 -0.37319,-4.10475 -8.90998,-7.5178 4.47789,0.74632 0.37313,-6.71685 -4.10474,-7.46316 4.46944,-3.36692 0.37319,-7.46316 -4.4779,-4.4779 -4.10474,-2.23894 -8.95579,-4.10474 -9.05543,-3.48286 -2.23895,-4.4779 -5.97053,-4.4779 -3.73158,0 -3.73158,1.11947 -4.85107,4.10474 -1.11947,2.98527 -1.11947,1.11948 -5.22421,-3.73158 -4.10474,-4.85107 -1.49263,-7.836335 -7.46316,-5.59738 -5.97054,2.23894 0.37314,-1.49264 -10.07526,3.35842 -10.44844,4.85107 -9.32896,-5.597375 -15.29949,1.11949 -3.66039,4.11792 0,-2.61212 -4.85105,-2.61212 -4.85107,0 2.6121,-3.35843 -5.22421,0 -7.83633,3.35843 -13.80686,2.23895 -18.65793,2.98527 -4.85107,0.74631 1.11947,2.61212 -4.85107,2.61212 -5.97051,0 -3.3584,-4.10476 -9.7021,0.74631 -6.34369,4.85106 -8.58263,4.47789 -10.44842,7.46316 -1.86579,2.98526 -2.98527,3.73158 -0.37313,7.83633 2.6121,4.10474 2.23895,4.47789 2.98526,6.71684 0.74632,2.23894 7.30779,0.97231 3.35842,6.71685 -4.10473,5.97053 7.46316,1.11947 7.46316,1.11947 z"
     id="path2992"
     style="fill:#9a3454;fill-opacity:1;stroke:none"
     inkscape:connector-curvature="0" />
  <path
     d="m 57.311196,80.062313 c 0,2.985265 4.477904,1.865785 3.358421,-1.119475 -1.119469,-2.985265 5.597372,-1.865785 5.597372,0 0,1.865797 -5.865819,9.170191 2.238952,4.10474 2.985274,-1.865786 0.373133,-4.10474 6.343695,-0.746313 5.213903,2.932831 1.492629,7.463155 4.477899,2.985265 2.98526,-4.477895 8.209473,-12.314217 8.209473,-9.328957 0,2.985265 1.492635,4.10474 1.492635,5.597375 0,1.49263 -0.847038,7.790495 0.373134,2.98526 2.793231,-11.000062 2.985276,-1.49263 4.851062,-0.746313 1.865797,0.746313 2.612109,-1.119473 4.851057,-1.865797 2.238954,-0.746306 6.343694,-3.358415 6.716844,0 0.37314,3.358432 -1.11948,2.238953 1.86579,1.11948 2.98527,-1.11948 2.23895,-3.358422 5.59738,-3.731583 3.35841,-0.373135 7.09,-6.716848 7.09,1.865797 0,8.582628 3.73158,-3.358432 1.86579,2.612103 -1.86578,5.970525 2.61211,7.463166 2.61211,3.731583 0,-7.845197 1.49263,-4.104744 4.10474,-7.463165 2.61211,-3.358426 4.4779,0 4.4779,2.612109 0,2.612108 0,1.119473 2.23894,0 2.23896,-1.119474 1.11948,-9.328952 4.10474,-3.358427 2.98527,5.970535 -1.11947,7.463165 4.10474,4.4779 5.22421,-2.98526 1.49263,-4.104739 2.61212,-5.597369 1.11947,-1.492629 4.85105,5.597369 5.22421,0.373136 5.4648,-8.486393 4.40358,4.708971 6.71684,3.358415 1.86579,-1.119463 -0.74631,1.492645 2.6121,-4.104739 3.35843,-5.597368 2.23895,-8.582629 4.85106,-5.224213 2.61212,3.358427 0,5.224213 4.10475,3.731584 4.10474,-1.49263 2.23893,-7.463167 6.34368,-6.716843 4.10474,0.746306 3.35843,2.985259 5.22422,4.104738 1.86578,1.119475 1.49263,-5.970525 4.85105,-4.851062 3.35844,1.119481 -1.11947,0.746324 3.35842,4.851062 4.47791,4.104734 0,-8.9558 7.46317,-2.612108 7.46318,6.343691 7.09,2.985271 7.09,2.985271 0,0 1.49265,14.553168 3.35844,7.463159 1.86577,-7.090004 0.74632,-7.836322 2.23895,-8.955801 1.49263,-1.119473 0,-10.448424 4.47789,1.119479 4.4779,11.567905 6.71684,1.119475 8.58264,1.865797 1.86578,0.746308 4.47789,1.49263 5.22422,4.477891 0.7463,2.985264 -2.23896,7.836321 1.49263,4.104738 3.73158,-3.731583 5.59737,-5.597368 8.20947,-2.238953 2.61211,3.358432 4.4779,12.314228 3.35843,4.477906 -1.11948,-7.836321 5.59737,0 -1.11948,-8.582645 -6.71684,-8.582629 -6.34368,-9.702108 -3.73158,-9.328951 2.61211,0.373134 12.68739,9.328951 4.10474,-0.373135 -8.58263,-9.702113 -9.70212,-12.314221 -9.70212,-12.314221 0,0 -1.86579,-2.612109 -1.11946,-7.836323 0.7463,-5.224213 6.71684,-0.373156 1.86579,-8.582631 -4.85104,-8.209477 2.71731,-7.025638 -7.83631,-10.448429 -13.80686,-4.477893 -9.7021,-14.180011 -19.03106,-9.702108 -10.56351,5.070487 -9.70213,-9.7021172 -15.29949,-7.09001 -5.59737,2.612107 -4.85107,2.612107 -6.71686,2.985273 -1.86579,0.373155 -5.22421,4.104737 -10.44842,-3.358428 -5.22421,-7.4631667 0.74631,-7.4631667 -5.22421,-7.4631667 -5.97053,0 1.86578,-7.0900005 -10.07528,2.612107 -11.94105,9.7021187 -10.07526,0.7463209 -21.64316,0.7463209 -11.5679,0 -14.18001,4.4778938 -18.65792,2.9852628 -4.47789,-1.4926319 2.23895,-5.9705252 -9.32895,0.373167 -11.567905,6.343679 -13.060535,7.090001 -13.060535,7.090001 0,0 -6.716847,2.238952 -8.209477,2.612106 -1.49263,0.373154 7.089998,-4.104739 -9.702113,1.119476 -16.792117,5.224213 -19.031069,5.224213 -21.270021,7.83632 -2.238952,2.612097 -1.119454,11.194739 -6.716841,16.045798 -5.597373,4.851049 1.029067,-7.517978 -8.582647,3.358417 -14.180004,16.045808 -2.387801,9.460354 -5.224211,18.284751 -3.358421,10.448425 3.731582,5.597378 3.731582,5.597378 0,0 -10.622403,19.690774 0.746322,6.716843 6.036628,-6.888947 13.433697,-12.687377 9.328954,-5.224223 -9.35127,17.002292 -5.597373,8.582645 -2.238952,8.209489 3.358435,-0.373134 13.433697,-8.955795 13.433697,-8.955795 -1.119469,0 -2.238952,6.343686 -2.238952,6.343686 z"
     id="path2994"
     style="fill:#9a3454;fill-opacity:1;stroke:none"
     inkscape:connector-curvature="0" />
  <path
     style="fill:#094c79;fill-opacity:1;stroke:none"
     d="m 11.477677,297.84911 c 100.792033,0 196.635553,0 281.215413,0 9.34713,0 6.60943,21.43199 0,28.04142 -5.66523,5.66523 -17.49365,5.79006 -24.0355,10.41539 -18.96637,13.4099 -23.23433,55.28165 -23.23433,55.28165 -64.09826,-0.3395 -128.18971,0.22892 -192.284039,0.80119 0,0 -2.759086,-40.95833 -22.433141,-53.67929 -6.952212,-4.49521 -13.374339,-4.56133 -19.228403,-10.41539 -7.1759547,-7.17594 -10.1483227,-30.44497 0,-30.44497 z"
     id="path2993"
     inkscape:connector-curvature="0"
     sodipodi:nodetypes="ssssccsss" />
  <path
     sodipodi:nodetypes="ssssccsss"
     inkscape:connector-curvature="0"
     id="path3763"
     d="m 22.388852,376.76568 c 89.937508,0 175.459408,0 250.930668,0 3.69367,0 1.4298,6.25298 1.4298,12.15334 0,7.14902 -1.10856,1.38193 -6.79156,5.71921 -5.84285,4.4593 -9.29373,4.64687 -9.29373,4.64687 -57.19537,-0.30296 -166.443248,-0.98217 -223.635112,-0.47153 0,0 0.706925,1.13564 -5.848502,-3.10299 -6.203515,-4.0111 -8.221368,2.02556 -8.221368,-5.36176 0,-6.04578 -1.54896,-13.58314 1.429804,-13.58314 z"
     style="fill:#4d4d4d;fill-opacity:1;stroke:none" />
</svg>
