<?xml version="1.0" encoding="UTF-8" standalone="no"?>
<!-- Created with Inkscape (http://www.inkscape.org/) -->

<svg
   xmlns:dc="http://purl.org/dc/elements/1.1/"
   xmlns:cc="http://creativecommons.org/ns#"
   xmlns:rdf="http://www.w3.org/1999/02/22-rdf-syntax-ns#"
   xmlns:svg="http://www.w3.org/2000/svg"
   xmlns="http://www.w3.org/2000/svg"
   xmlns:sodipodi="http://sodipodi.sourceforge.net/DTD/sodipodi-0.dtd"
   xmlns:inkscape="http://www.inkscape.org/namespaces/inkscape"
   version="1.1"
   width="55"
   height="55"
   id="svg3010"
   inkscape:version="0.48.4 r9939"
   sodipodi:docname="Bonsai-logo.svg">
  <sodipodi:namedview
     pagecolor="#ffffff"
     bordercolor="#666666"
     borderopacity="1"
     objecttolerance="10"
     gridtolerance="10"
     guidetolerance="10"
     inkscape:pageopacity="0"
     inkscape:pageshadow="2"
     inkscape:window-width="1871"
     inkscape:window-height="1056"
     id="namedview11"
     showgrid="false"
     inkscape:zoom="6.7428571"
     inkscape:cx="17.5"
     inkscape:cy="17.5"
     inkscape:window-x="49"
     inkscape:window-y="24"
     inkscape:window-maximized="1"
     inkscape:current-layer="svg3010" />
  <defs
     id="defs3012" />
  <metadata
     id="metadata3015">
    <rdf:RDF>
      <cc:Work
         rdf:about="">
        <dc:format>image/svg+xml</dc:format>
        <dc:type
           rdf:resource="http://purl.org/dc/dcmitype/StillImage" />
        <dc:title />
      </cc:Work>
    </rdf:RDF>
  </metadata>
  <g
     transform="matrix(1.5729969,0,0,1.5729969,-0.16106978,-1600.4563)"
     id="layer1">
    <g
       transform="matrix(0.12295527,0,0,0.12295527,-71.703279,988.88934)"
       id="g3031">
      <path
         d="m 695.02855,517.20117 c 11.07143,-12.85715 11.07143,-14.28572 16.07143,-12.14287 5,2.14286 8.79852,4.30338 8.57143,2.14286 -0.60986,-5.80215 -5.35715,-6.07142 -2.14286,-9.28571 6.16525,-6.16524 5.71429,-5 8.57143,-2.14286 2.85714,2.85714 10.36539,1.76097 13.57143,-7.85714 2.85714,-8.57143 21.96132,-12.51862 25,-26.42857 2.68513,-12.2915 0,-34.28572 -6.42857,-42.14286 -6.42858,-7.85714 -20,-20.71429 -22.14286,-21.42857 -2.14286,-0.71429 -0.71429,-4.28572 -5,-7.14286 -4.28572,-2.85714 -10.71429,-17.85714 -17.14286,-17.14286 -6.42857,0.71429 -21.42857,10.71429 -32.85714,13.57143 -11.42857,2.85714 -38.21429,8.21429 -42.5,3.21429 -4.28572,-5 -8.57143,-16.07143 -8.57143,-16.07143 l 6.07143,-1.42857 c 0,0 0.23512,8.09225 5,12.85714 2.49999,2.5 9.38288,2.58665 13.92857,1.07142 6.42857,-2.14285 17.5,-3.92856 17.5,-3.92856 0,0 -10.71429,2.14285 -14.28571,-2.14286 -3.57143,-4.28571 -7.14286,-11.42857 -7.14286,-11.42857 l 8.57143,0.71428 c 0,0 -1.42857,3.57143 3.57143,6.42858 5,2.85714 15.71428,4.28571 20.71428,2.14285 5,-2.14285 12.14286,-5.71428 18.57143,-7.85714 6.42857,-2.14286 11.07143,-4.64285 11.07143,-4.64285 0,0 -18.80853,-6.93553 -18.57143,-14.28572 0.35714,-11.07143 -8.125,-5.08928 -12.99107,-11.96429 -2.6938,-3.80591 1.74107,-7.32144 -2.72322,-9.10715 -9.23727,-3.69491 -24.64285,0.35714 -28.92857,-6.07143 -4.28571,-6.42857 4.64286,-18.57143 4.64286,-18.57143 l 4.64286,3.21429 c 0,0 -6.42857,10.71428 -3.57143,12.85714 2.85714,2.14286 18.57143,-2.14286 24.28571,2.14286 5.71429,4.28571 9.64286,-9.28572 11.07143,-13.57144 1.42857,-4.28571 3.57143,-8.21428 3.57143,-8.21428 l 6.78572,-1.07143 c 0,0 -5.01453,8.7892 -5.35715,13.92858 -0.17857,2.67857 -7.85714,12.94643 -6.42857,17.81251 1.42857,4.86607 2.32143,1.11607 7.14285,0.75892 4.15359,-0.30767 -1.44135,-10.78294 11.42858,-10.35715 13.90813,0.46015 12.36284,-13.32359 11.78571,-22.85714 l 8.57143,-2.14286 c 0,0 3.57143,11.42857 1.78572,16.07143 -2.77354,7.21121 -2.66144,7.06592 4.64286,5.71429 7.92299,-1.46612 8.57142,-3.57143 10.71428,-6.78572 4.62062,-6.93091 2.85714,-19.28571 2.85714,-19.28571 l 5.71429,-2.14286 c 0,0 1.07142,3.57143 0.35714,10.71429 -0.89055,8.90555 -2.14285,21.07143 -16.42857,23.21428 -14.28571,2.14286 -31.42858,5.71429 -30.71429,9.28573 0.71428,3.57143 -1.07143,11.07143 5.35715,13.92857 6.42857,2.85714 20.71428,7.14286 25,15.71428 4.28571,8.57143 5,16.42858 15.71428,16.42858 10.71429,0 22.5,-0.71429 22.5,-0.71429 2.55086,-7.49422 -1.00427,-13.89398 -4.64286,-21.42857 l 6.42858,-0.71429 c 3.71922,12.73715 5.48784,10.76277 4.28571,22.14286 0,0 11.42857,-1.42857 20.71429,-1.42857 9.28571,0 16.07143,-8.92858 11.78571,-13.21429 -4.28571,-4.28571 -15.35714,-8.92857 -15.35714,-8.92857 l 7.14286,-2.14286 c 0,0 10.35714,4.28572 14.28571,9.28572 3.63906,4.63153 1.07142,11.07143 -3.57143,14.64285 -8.35925,6.4302 -8.57143,5.00001 -21.42857,6.78572 -16.33378,2.26858 -6.07143,1.42857 -28.57143,5 -6.02741,0.95673 -8.57143,0.35714 -8.57143,0.35714 0,0 10.69837,15.97755 14.64286,15.35715 4.07517,-0.64096 19.21601,41.22017 18.92857,52.14285 -0.71429,27.14286 -22.2342,29.56822 -21.42857,38.92857 0.86128,10.00686 7.83969,10.93305 12.14286,20 z"
         id="path2985"
         style="fill:#aaaaaa;fill-opacity:1;stroke:none"
         inkscape:connector-curvature="0" />
      <path
         d="m 622.17141,389.70116 c 0,0 -7.5,15 -1.42857,8.57143 6.07142,-6.42857 4.28571,-14.28571 6.07142,-6.42857 1.78572,7.85714 2.85715,2.5 3.21429,-5.71429 0.35714,-8.21428 0,11.78572 2.14286,2.85715 2.14285,-8.92858 -1.42857,-18.57143 4.28571,-10.35715 5.71429,8.21429 5.67434,0.33647 6.42857,-1.07142 5.35715,-10 3.21429,10.35713 6.42857,1.78571 3.21429,-8.57143 4.64286,5.35714 4.64286,-5.35714 0,-4.07205 2.85714,1.07142 5,1.07142 2.14286,0 0.71429,-2.14285 4.28572,-0.35714 3.57142,1.78572 0.35714,-0.71428 4.28571,-1.07143 3.92857,-0.35714 0.71429,-7.14285 5.35714,-0.35714 4.64286,6.78571 3.57143,2.5 4.28571,0.71429 0.71429,-1.78571 -2.85714,-2.5 1.78572,-2.5 4.64286,0 2.85714,-2.85715 5,-0.35715 2.14286,2.5 1.07143,3.21429 2.85714,2.5 1.78572,-0.71428 -1.07142,2.85715 2.14286,-0.71428 3.21429,-3.57143 -2.06885,-6.97029 3.92857,-5 4.08573,1.34226 3.235,1.5114 2.5,-1.42858 -1.07142,-4.28571 -6.01595,-4.00682 2.50001,-0.35713 2.49999,1.07142 12.14285,0.35714 0,-2.14286 -12.14286,-2.5 -4.64286,-2.85715 -5.35715,-5.35715 -0.71429,-2.5 0,-3.92857 0,-3.92857 0,0 5.71429,-3.92857 -1.07143,-4.64286 -6.78571,-0.71428 -5.35714,2.85715 -7.14286,-0.71428 -1.78571,-3.57143 -1.78571,-4.64286 -1.78571,-4.64286 0,0 -2.5,3.92857 -2.85714,0 -0.35714,-3.92857 -2.85714,-4.28571 -6.78571,-2.14285 -3.92858,2.14285 1.42856,-2.85715 -6.07144,1.42857 -7.5,4.28571 -5.35714,3.21428 -1.42857,0 3.92857,-3.21429 4.28572,-6.78572 -5,-3.92858 -9.28571,2.85715 -13.57143,5.35715 -13.57143,5.35715 -7.85714,1.07143 -2.85714,-5.35714 -10.71428,1.07143 -5.25186,4.29698 -10.35714,-5.35715 -12.5,1.42857 -2.14286,6.78571 -2.54067,-5.00766 -2.85715,-3.21428 -1.07142,6.07142 -4.74114,2.7574 -4.28571,-10e-6 0.75739,-4.5856 0.71429,-4.64286 -5,0 -5.71428,4.64286 -3.92857,5.71429 -6.78571,8.57143 -2.85715,2.85714 -10.01154,-0.18273 -7.85715,5.35714 2.5,6.42858 -15.76119,7.49809 -10.35714,8.92857 12.14286,3.21429 -5.84889,5.05987 1.78572,5 12.52026,-0.0982 3.57142,5.35715 3.92857,11.07143 0.35714,5.71429 -2.85715,8.92857 3.21428,6.42857 6.07143,-2.5 0.16193,7.85341 9.28572,-2.85714 8.21428,-9.64286 8.92857,-3.92857 1.07143,4.28571 -7.85714,8.21429 6.42857,-2.85714 6.42857,-2.85714 0,0 -2.14286,4.64286 -0.35715,3.57143 5,-1.78572 12.5,-10 6.42858,-3.21428 -6.07143,6.78571 2.85714,0.35714 3.92857,0.71428 z"
         id="path2989"
         style="fill:#4d4d4d;stroke:none"
         inkscape:connector-curvature="0" />
      <path
         d="m 751.81426,365.41545 c 4.64286,5.35714 1.65676,11.90667 5,3.21428 1.78572,-4.64285 0,-6.42857 3.21429,1.78572 3.21429,8.21428 3.10572,5.86486 5.35714,1.42857 2.3864,-4.70226 0.35714,-9.64286 2.85714,-0.71429 2.5,8.92858 -2.85714,4.64286 4.64286,0.71429 7.5,-3.92857 2.50001,-3.57143 7.50001,-2.14285 5,1.42857 4.28571,1.42857 6.78571,0.35714 2.5,-1.07143 0.71428,-6.07143 4.28571,-1.42858 3.57143,4.64286 2.5,3.21429 0.71429,4.64286 -1.78571,1.42858 2.85714,0 5,0.71429 2.14286,0.71428 -6.07142,-7.50001 1.07143,-1.42858 6.35273,5.39983 5.71428,0.71429 1.07142,-2.85714 -4.64285,-3.57142 -1.78571,-8.21429 3.92858,-0.71429 5.71429,7.5 -2.5,2.50001 2.85714,3.21429 5.35714,0.71429 0.35714,2.85714 7.14286,-5.35714 6.78571,-8.21429 5.71429,-2.5 9.64286,-0.35715 3.92857,2.14286 3.92856,-6.78571 4.99999,-2.85714 1.07143,3.92857 1e-5,1.07143 5.71429,1.07143 5.71429,0 6.42857,13.57143 4.64286,3.92857 -1.78572,-9.64285 -13.57143,-16.42857 -6.78572,-11.07142 6.78571,5.35714 10.70994,0.67984 13.92858,2.14286 3.92857,1.78571 5.35634,0.89218 -0.35715,-3.92858 -8.52758,-7.19515 4.28571,0.71429 0.35714,-6.42857 -3.92857,-7.14286 4.2776,-3.22242 0.35715,-7.14286 -4.28572,-4.28571 -3.92858,-2.14285 -8.57143,-3.92857 -8.66679,-3.33338 -2.14286,-4.28571 -5.71429,-4.28571 -3.57143,0 -3.57143,1.07142 -4.64286,3.92857 -1.07142,2.85714 -1.07142,1.07143 -5,-3.57143 -3.92857,-4.64287 -1.42857,-7.50001 -7.14285,-5.35715 -5.71429,2.14285 0.35714,-1.42858 -9.64286,3.21428 -10,4.64287 -8.92857,-5.35714 -14.64285,1.07144 -3.50329,3.94119 -1e-5,-2.50001 -4.64286,-2.50001 -4.64286,0 2.5,-3.21429 -5,0 -7.5,3.2143 -13.21429,2.14286 -17.85715,2.85715 -4.64286,0.71428 1.07143,2.50001 -4.64286,2.50001 -5.71428,0 -3.21428,-3.92859 -9.28571,0.71428 -6.07143,4.64286 -8.21428,4.28571 -10,7.14286 -1.78571,2.85714 -2.85714,3.57142 -0.35714,7.5 2.5,3.92857 2.14286,4.28571 2.85714,6.42857 0.71429,2.14285 6.99416,0.93058 3.21429,6.42857 -3.92857,5.71428 7.14285,1.07143 7.14285,1.07143 z"
         id="path2992"
         style="fill:#4d4d4d;stroke:none"
         inkscape:connector-curvature="0" />
      <path
         d="m 638.59998,308.27258 c 0,2.85714 4.28571,1.78571 3.21428,-1.07143 -1.07142,-2.85714 5.35715,-1.78571 5.35715,0 0,1.78572 -5.61407,8.77662 2.14285,3.92857 2.85715,-1.78571 0.35714,-3.92857 6.07143,-0.71428 4.99014,2.80696 1.42857,7.14285 4.28572,2.85714 2.85714,-4.28571 7.85714,-11.78571 7.85714,-8.92857 0,2.85714 1.42857,3.92857 1.42857,5.35714 0,1.42857 -0.81068,7.45614 0.35714,2.85714 2.67335,-10.52796 2.85715,-1.42857 4.64286,-0.71428 1.78572,0.71428 2.5,-1.07143 4.64286,-1.78572 2.14286,-0.71428 6.07143,-3.21428 6.42857,0 0.35714,3.21429 -1.07143,2.14286 1.78571,1.07143 2.85715,-1.07143 2.14286,-3.21428 5.35715,-3.57143 3.21428,-0.35714 6.78571,-6.42857 6.78571,1.78572 0,8.21428 3.57143,-3.21429 1.78572,2.5 -1.78571,5.71428 2.5,7.14286 2.5,3.57143 0,-7.5085 1.42857,-3.92858 3.92857,-7.14286 2.5,-3.21429 4.28571,0 4.28571,2.5 0,2.5 0,1.07143 2.14286,0 2.14286,-1.07143 1.07143,-8.92857 3.92857,-3.21429 2.85714,5.71429 -1.07143,7.14286 3.92857,4.28572 5,-2.85714 1.42857,-3.92857 2.5,-5.35714 1.07143,-1.42857 4.64286,5.35714 5,0.35714 5.23026,-8.12217 4.21459,4.50687 6.42857,3.21428 1.78572,-1.07142 -0.71428,1.42858 2.5,-3.92857 3.21429,-5.35714 2.14286,-8.21428 4.64286,-5 2.5,3.21429 0,5 3.92857,3.57143 3.92857,-1.42857 2.14285,-7.14286 6.07143,-6.42857 3.92857,0.71428 3.21429,2.85714 5,3.92857 1.78571,1.07143 1.42857,-5.71428 4.64286,-4.64286 3.21429,1.07143 -1.07143,0.71429 3.21428,4.64286 4.28572,3.92857 0,-8.57143 7.14286,-2.5 7.14286,6.07143 6.78571,2.85715 6.78571,2.85715 0,0 1.42858,13.92857 3.21429,7.14285 1.78571,-6.78571 0.71429,-7.5 2.14286,-8.57143 1.42857,-1.07143 0,-10 4.28571,1.07143 4.28572,11.07143 6.42857,1.07143 8.21429,1.78572 1.78571,0.71428 4.28571,1.42857 5,4.28571 0.71428,2.85714 -2.14286,7.5 1.42857,3.92857 3.57143,-3.57143 5.35714,-5.35714 7.85714,-2.14286 2.5,3.21429 4.28572,11.78572 3.21429,4.28572 -1.07143,-7.5 5.35714,0 -1.07143,-8.21429 -6.42857,-8.21428 -6.07143,-9.28571 -3.57143,-8.92857 2.5,0.35714 12.14286,8.92857 3.92857,-0.35714 -8.21428,-9.28572 -9.28571,-11.78572 -9.28571,-11.78572 0,0 -1.78572,-2.5 -1.07143,-7.5 0.71428,-5 6.42857,-0.35714 1.78571,-8.21428 -4.64285,-7.85714 2.60068,-6.72411 -7.5,-10 -13.21429,-4.28571 -9.28571,-13.57143 -18.21428,-9.28571 -10.11014,4.85287 -9.28572,-9.28572 -14.64286,-6.78572 -5.35714,2.5 -4.64286,2.5 -6.42857,2.85715 -1.78572,0.35714 -5,3.92857 -10,-3.21429 -5,-7.14286 0.71428,-7.14286 -5,-7.14286 -5.71429,0 1.78571,-6.78571 -9.64286,2.5 -11.42857,9.28572 -9.64285,0.71429 -20.71428,0.71429 -11.07143,0 -13.57143,4.28571 -17.85715,2.85714 -4.28571,-1.42857 2.14286,-5.71428 -8.92857,0.35715 -11.07143,6.07142 -12.5,6.78571 -12.5,6.78571 0,0 -6.42857,2.14286 -7.85714,2.5 -1.42857,0.35714 6.78571,-3.92857 -9.28572,1.07143 -16.07142,5 -18.21428,5 -20.35714,7.5 -2.14286,2.49999 -1.07142,10.71428 -6.42857,15.35714 -5.35714,4.64285 0.9849,-7.19532 -8.21429,3.21428 -13.57143,15.35715 -2.28532,9.05433 -5,17.5 -3.21428,10 3.57143,5.35715 3.57143,5.35715 0,0 -10.16651,18.84568 0.71429,6.42857 5.77754,-6.59329 12.85714,-12.14286 8.92857,-5.00001 -8.94993,16.27258 -5.35714,8.21429 -2.14286,7.85715 3.21429,-0.35714 12.85715,-8.57143 12.85715,-8.57143 -1.07143,0 -2.14286,6.07143 -2.14286,6.07143 z"
         id="path2994"
         style="fill:#4d4d4d;stroke:none"
         inkscape:connector-curvature="0" />
    </g>
  </g>
</svg>
