<?xml version="1.0" encoding="UTF-8" standalone="no"?>
<!-- Created with Inkscape (http://www.inkscape.org/) -->

<svg
   xmlns:dc="http://purl.org/dc/elements/1.1/"
   xmlns:cc="http://creativecommons.org/ns#"
   xmlns:rdf="http://www.w3.org/1999/02/22-rdf-syntax-ns#"
   xmlns:svg="http://www.w3.org/2000/svg"
   xmlns="http://www.w3.org/2000/svg"
   xmlns:sodipodi="http://sodipodi.sourceforge.net/DTD/sodipodi-0.dtd"
   xmlns:inkscape="http://www.inkscape.org/namespaces/inkscape"
   width="20"
   height="20"
   id="svg2"
   version="1.1"
   inkscape:version="0.48.4 r9939"
   sodipodi:docname="Save-Icon.svg">
  <defs
     id="defs4" />
  <sodipodi:namedview
     id="base"
     pagecolor="#ffffff"
     bordercolor="#666666"
     borderopacity="1.0"
     inkscape:pageopacity="0.0"
     inkscape:pageshadow="2"
     inkscape:zoom="22.4"
     inkscape:cx="11.165233"
     inkscape:cy="1.9496628"
     inkscape:document-units="px"
     inkscape:current-layer="layer1"
     showgrid="false"
     inkscape:window-width="1326"
     inkscape:window-height="1028"
     inkscape:window-x="593"
     inkscape:window-y="24"
     inkscape:window-maximized="0"
     fit-margin-top="0"
     fit-margin-left="0"
     fit-margin-right="0"
     fit-margin-bottom="0" />
  <metadata
     id="metadata7">
    <rdf:RDF>
      <cc:Work
         rdf:about="">
        <dc:format>image/svg+xml</dc:format>
        <dc:type
           rdf:resource="http://purl.org/dc/dcmitype/StillImage" />
        <dc:title></dc:title>
      </cc:Work>
    </rdf:RDF>
  </metadata>
  <g
     inkscape:label="Ebene 1"
     inkscape:groupmode="layer"
     id="layer1"
     transform="translate(-191,-529.91965)">
    <path
       style="fill:#000000;fill-opacity:1;stroke:none"
       d="M 3.3125 4.90625 L 0.03125 16.625 L 7.90625 16.625 L 7.90625 13.125 L 4.6875 13.125 A 0.50005 0.50005 0 0 1 4.3125 12.25 L 10.03125 6.5625 A 0.50005 0.50005 0 0 1 10.28125 6.4375 A 0.50005 0.50005 0 0 1 10.75 6.5625 L 16.46875 12.25 A 0.50005 0.50005 0 0 1 16.125 13.125 L 12.90625 13.125 L 12.90625 16.625 L 16.6875 16.625 L 19.96875 4.90625 L 3.3125 4.90625 z M 10.40625 7.625 L 5.875 12.125 L 8.40625 12.125 A 0.50005 0.50005 0 0 1 8.90625 12.625 L 8.90625 16.625 L 11.90625 16.625 L 11.90625 12.625 A 0.50005 0.50005 0 0 1 12.40625 12.125 L 14.9375 12.125 L 10.40625 7.625 z "
       transform="translate(191,529.91965)"
       id="rect3795" />
    <path
       style="fill:#000000;fill-opacity:1;stroke:none"
       d="m 196.22438,532.06024 -3.3777,0 -0.85232,0.85231 -0.97858,0 0,11.90087 2.96732,-10.44877 13.66863,0 0,-1.4521 -10.65396,-0.0237 z"
       id="path3797"
       inkscape:connector-curvature="0"
       sodipodi:nodetypes="cccccccccc" />
    <path
       style="fill:#000000;stroke:none"
       d="m 199.40688,548.05715 0,-5.53224 -3.72788,0 5.71015,-5.6895 5.74032,5.6895 -3.72788,0 0,5.53224 -3.99471,0 z"
       id="path3755"
       inkscape:connector-curvature="0" />
  </g>
</svg>
