<?xml version="1.0" encoding="UTF-8" standalone="no"?>
<!-- Created with Inkscape (http://www.inkscape.org/) -->

<svg
   xmlns:dc="http://purl.org/dc/elements/1.1/"
   xmlns:cc="http://creativecommons.org/ns#"
   xmlns:rdf="http://www.w3.org/1999/02/22-rdf-syntax-ns#"
   xmlns:svg="http://www.w3.org/2000/svg"
   xmlns="http://www.w3.org/2000/svg"
   version="1.1"
   width="6000"
   height="600"
   id="svg3010">
  <defs
     id="defs3012" />
  <metadata
     id="metadata3015">
    <rdf:RDF>
      <cc:Work
         rdf:about="">
        <dc:format>image/svg+xml</dc:format>
        <dc:type
           rdf:resource="http://purl.org/dc/dcmitype/StillImage" />
        <dc:title></dc:title>
      </cc:Work>
    </rdf:RDF>
  </metadata>
  <g
     transform="matrix(20.472759,0,0,20.472759,-5.4738045,-20947.946)"
     id="layer1">
    <path
       d="m 37.467038,1053.0768 c -1.271787,-0.4685 -1.324774,-0.656 -1.430759,-2.1551 -0.105968,-1.4989 -0.370938,-5.5278 -0.05297,-6.4648 0.31795,-0.937 1.854693,-1.4055 2.596574,-2.9046 0.741878,-1.499 0.953837,-5.3406 0.953837,-5.3406 l -0.741877,0.093 c 0,0 -0.21196,3.2792 -0.794865,3.9352 -0.582911,0.6558 -2.013669,2.7168 -2.384609,2.5295 -0.370936,-0.1873 -0.582897,-3.1855 -0.90084,-3.4667 -0.317956,-0.2809 -1.165816,-0.6558 -1.483759,-1.8737 -0.317944,-1.2182 0.264961,-1.9676 0.264961,-1.9676 l -0.741883,-0.1874 c 0,0 -0.211966,1.0307 -0.158973,1.7802 0.05297,0.7496 -0.370937,0.4684 -0.68888,0.1874 -0.31795,-0.2811 -0.31795,-1.8739 -0.31795,-1.8739 l -0.635899,-0.2811 c 0,0 -0.105969,1.1242 0.211965,1.8739 0.317955,0.7497 0.797248,1.6126 1.324788,1.4054 0.238453,-0.093 0.549772,0.5388 0.927342,1.0013 0.377564,0.4627 0.82136,0.7554 0.900848,1.1068 0.185662,0.8208 0.29145,2.2018 0.29145,3.3263 0,0.8638 0.105984,1.7801 0.105984,3.7477 0,1.9675 0.05297,3.5602 0,4.2163 -0.05297,0.6558 -1.112821,1.3116 -1.112821,1.3116 z"
       id="path3071"
       style="fill:#b3b3b3;stroke:none" />
    <path
       d="m 28.056186,1035.8734 c 0,0.578 0.604544,-1.4835 0.411896,-0.1992 -0.192647,1.2844 -0.380531,2.1119 0.303611,0.7718 0.769926,-1.5081 0.531199,0.384 0.788063,0 0.256869,-0.3853 0.449516,-1.9265 0.385298,-0.6423 -0.06422,1.2843 0.147914,1.1508 0.27634,0.7014 0.128434,-0.4498 0.402955,-1.2976 0.422913,-0.4931 0.02205,0.8881 0.199774,0.4983 0.392422,0.434 0.192647,-0.064 0.832209,0.6196 0.771264,-0.2796 -0.04605,-0.6795 1.866161,-0.6031 1.794153,0.1557 -0.116661,1.5787 0.568215,-0.098 0.74789,-0.024 0.899028,0.3853 0.218582,0.6615 0.603878,0.7259 0.385295,0.064 0.128434,-1.4129 0.449512,-0.129 0.321081,1.2843 0.01879,0.1834 0.275672,0.6331 0.256865,0.4494 0.14268,0.6175 0.206893,-0.1532 0.06422,-0.7706 1.187054,1.7675 0.737542,0.6119 -0.449513,-1.1562 -0.577945,-1.0276 -0.449513,-1.2844 0.128433,-0.2569 0,-1.7339 0.385298,-0.2569 0.385294,1.4769 0.577943,1.6053 0.834811,1.2202 0.256864,-0.3853 0,-1.6056 0.256864,-0.5138 0.256862,1.0917 0.770594,-1.2202 1.027458,-0.3213 0.256863,0.8991 0.286645,0.62 0.411898,0.3958 0.393084,-0.7038 0.230262,0.3749 0.679775,0.8244 0,0 0.264668,-1.3589 0.457315,-1.102 0.19265,0.2571 0.596087,0.9465 0.596087,0.9465 0,0 -0.02593,-1.3214 0.230934,-1.2572 0.256865,0.065 0.513729,1.7884 0.516955,0.8388 0.634372,0.537 0.134657,-0.173 0.407334,-0.2971 0.16926,-0.076 1.348539,0.9457 0.834811,0.2393 -0.51373,-0.7063 0.678558,-0.1155 0.08827,-0.8491 -0.40278,-0.5002 0.07914,-1.7941 0.07914,-1.7941 0,0 0.312626,-0.1155 -0.522186,-0.6272 -0.83481,-0.5138 -0.05576,-0.3362 -0.697919,-0.7213 -0.642164,-0.3853 -0.449513,-0.4496 -0.963245,-0.7065 -0.513725,-0.2569 -0.494918,0.1786 -0.880215,0.1786 -0.385298,0 -1.752645,-1.6557 -2.715886,-0.1786 -0.963245,1.477 -0.634373,0.066 -0.955452,-0.1275 -0.321081,-0.1925 -0.842601,0.3185 -0.842601,0.3185 0,0 -0.128433,-0.7065 -0.899027,-0.6421 -0.770591,0.064 -1.091675,0.129 -1.34854,0.2567 -0.256864,0.129 0.449514,0.6423 -0.385297,0.1927 -0.834808,-0.4494 -0.588964,-0.173 -0.910045,-0.2374 -0.321081,-0.064 0.404106,-0.7102 -0.944434,-0.1964 -1.348537,0.5136 -0.971032,0.3055 -2.062707,0.2411 -1.09167,-0.064 -1.174028,0.3298 -1.559325,0.3938 -0.385297,0.064 -0.872428,-0.1379 -0.872428,0.8271 0,0.9634 0.67722,0.7011 0.249744,1.279 -0.345796,0.4676 -0.447625,0.7638 0.130323,0.3783 0.577948,-0.3854 0.444961,-1.0388 0.597426,-0.6111 0.22637,0.6351 0.0117,1.2875 0.169944,1.008 0.658411,-1.161 0.487118,0.07 0.487118,0.07 z"
       id="path3073"
       style="fill:#999999;stroke:none" />
    <path
       d="m 161.32452,1052.5213 c -1.71781,-0.6327 -1.78937,-0.8857 -1.93253,-2.9106 -0.14307,-2.0249 -0.50104,-7.4668 -0.0715,-8.7323 0.42945,-1.2656 2.50513,-1.8984 3.5072,-3.923 1.00206,-2.0249 1.28835,-7.2137 1.28835,-7.2137 l -1.00206,0.1275 c 0,0 -0.28629,4.4293 -1.07363,5.3155 -0.78734,0.8854 -2.71986,3.6697 -3.22089,3.4166 -0.50103,-0.253 -0.78734,-4.3028 -1.21678,-4.6823 -0.42946,-0.3796 -1.57466,-0.8861 -2.00412,-2.5312 -0.42944,-1.6452 0.35788,-2.6575 0.35788,-2.6575 l -1.00205,-0.2531 c 0,0 -0.28632,1.392 -0.21472,2.4044 0.0715,1.0125 -0.50103,0.6329 -0.93049,0.253 -0.42945,-0.3795 -0.42945,-2.5307 -0.42945,-2.5307 l -0.8589,-0.3797 c 0,0 -0.14307,1.5184 0.28629,2.5309 0.42947,1.0125 1.07685,2.1783 1.78939,1.8983 0.3221,-0.126 0.74259,0.7278 1.25256,1.3524 0.51,0.6249 1.10942,1.0205 1.2168,1.495 0.25078,1.1086 0.39365,2.9739 0.39365,4.4928 0,1.1666 0.14307,2.4043 0.14307,5.0618 0,2.6577 0.0715,4.8092 0,5.695 -0.0715,0.8861 -1.50308,1.7718 -1.50308,1.7718 z"
       id="path3067"
       style="fill:#b3b3b3;stroke:none" />
    <g
       transform="matrix(0.09201354,0,0,0.09201354,-53.443505,1005.1371)"
       id="g3031">
      <path
         d="m 695.02855,517.20117 c 11.07143,-12.85715 11.07143,-14.28572 16.07143,-12.14287 5,2.14286 8.79852,4.30338 8.57143,2.14286 -0.60986,-5.80215 -5.35715,-6.07142 -2.14286,-9.28571 6.16525,-6.16524 5.71429,-5 8.57143,-2.14286 2.85714,2.85714 10.36539,1.76097 13.57143,-7.85714 2.85714,-8.57143 21.96132,-12.51862 25,-26.42857 2.68513,-12.2915 0,-34.28572 -6.42857,-42.14286 -6.42858,-7.85714 -20,-20.71429 -22.14286,-21.42857 -2.14286,-0.71429 -0.71429,-4.28572 -5,-7.14286 -4.28572,-2.85714 -10.71429,-17.85714 -17.14286,-17.14286 -6.42857,0.71429 -21.42857,10.71429 -32.85714,13.57143 -11.42857,2.85714 -38.21429,8.21429 -42.5,3.21429 -4.28572,-5 -8.57143,-16.07143 -8.57143,-16.07143 l 6.07143,-1.42857 c 0,0 0.23512,8.09225 5,12.85714 2.49999,2.5 9.38288,2.58665 13.92857,1.07142 6.42857,-2.14285 17.5,-3.92856 17.5,-3.92856 0,0 -10.71429,2.14285 -14.28571,-2.14286 -3.57143,-4.28571 -7.14286,-11.42857 -7.14286,-11.42857 l 8.57143,0.71428 c 0,0 -1.42857,3.57143 3.57143,6.42858 5,2.85714 15.71428,4.28571 20.71428,2.14285 5,-2.14285 12.14286,-5.71428 18.57143,-7.85714 6.42857,-2.14286 11.07143,-4.64285 11.07143,-4.64285 0,0 -18.80853,-6.93553 -18.57143,-14.28572 0.35714,-11.07143 -8.125,-5.08928 -12.99107,-11.96429 -2.6938,-3.80591 1.74107,-7.32144 -2.72322,-9.10715 -9.23727,-3.69491 -24.64285,0.35714 -28.92857,-6.07143 -4.28571,-6.42857 4.64286,-18.57143 4.64286,-18.57143 l 4.64286,3.21429 c 0,0 -6.42857,10.71428 -3.57143,12.85714 2.85714,2.14286 18.57143,-2.14286 24.28571,2.14286 5.71429,4.28571 9.64286,-9.28572 11.07143,-13.57144 1.42857,-4.28571 3.57143,-8.21428 3.57143,-8.21428 l 6.78572,-1.07143 c 0,0 -5.01453,8.7892 -5.35715,13.92858 -0.17857,2.67857 -7.85714,12.94643 -6.42857,17.81251 1.42857,4.86607 2.32143,1.11607 7.14285,0.75892 4.15359,-0.30767 -1.44135,-10.78294 11.42858,-10.35715 13.90813,0.46015 12.36284,-13.32359 11.78571,-22.85714 l 8.57143,-2.14286 c 0,0 3.57143,11.42857 1.78572,16.07143 -2.77354,7.21121 -2.66144,7.06592 4.64286,5.71429 7.92299,-1.46612 8.57142,-3.57143 10.71428,-6.78572 4.62062,-6.93091 2.85714,-19.28571 2.85714,-19.28571 l 5.71429,-2.14286 c 0,0 1.07142,3.57143 0.35714,10.71429 -0.89055,8.90555 -2.14285,21.07143 -16.42857,23.21428 -14.28571,2.14286 -31.42858,5.71429 -30.71429,9.28573 0.71428,3.57143 -1.07143,11.07143 5.35715,13.92857 6.42857,2.85714 20.71428,7.14286 25,15.71428 4.28571,8.57143 5,16.42858 15.71428,16.42858 10.71429,0 22.5,-0.71429 22.5,-0.71429 2.55086,-7.49422 -1.00427,-13.89398 -4.64286,-21.42857 l 6.42858,-0.71429 c 3.71922,12.73715 5.48784,10.76277 4.28571,22.14286 0,0 11.42857,-1.42857 20.71429,-1.42857 9.28571,0 16.07143,-8.92858 11.78571,-13.21429 -4.28571,-4.28571 -15.35714,-8.92857 -15.35714,-8.92857 l 7.14286,-2.14286 c 0,0 10.35714,4.28572 14.28571,9.28572 3.63906,4.63153 1.07142,11.07143 -3.57143,14.64285 -8.35925,6.4302 -8.57143,5.00001 -21.42857,6.78572 -16.33378,2.26858 -6.07143,1.42857 -28.57143,5 -6.02741,0.95673 -8.57143,0.35714 -8.57143,0.35714 0,0 10.69837,15.97755 14.64286,15.35715 4.07517,-0.64096 19.21601,41.22017 18.92857,52.14285 -0.71429,27.14286 -22.2342,29.56822 -21.42857,38.92857 0.86128,10.00686 7.83969,10.93305 12.14286,20 z"
         id="path2985"
         style="fill:#aaaaaa;fill-opacity:1;stroke:none" />
      <path
         d="m 622.17141,389.70116 c 0,0 -7.5,15 -1.42857,8.57143 6.07142,-6.42857 4.28571,-14.28571 6.07142,-6.42857 1.78572,7.85714 2.85715,2.5 3.21429,-5.71429 0.35714,-8.21428 0,11.78572 2.14286,2.85715 2.14285,-8.92858 -1.42857,-18.57143 4.28571,-10.35715 5.71429,8.21429 5.67434,0.33647 6.42857,-1.07142 5.35715,-10 3.21429,10.35713 6.42857,1.78571 3.21429,-8.57143 4.64286,5.35714 4.64286,-5.35714 0,-4.07205 2.85714,1.07142 5,1.07142 2.14286,0 0.71429,-2.14285 4.28572,-0.35714 3.57142,1.78572 0.35714,-0.71428 4.28571,-1.07143 3.92857,-0.35714 0.71429,-7.14285 5.35714,-0.35714 4.64286,6.78571 3.57143,2.5 4.28571,0.71429 0.71429,-1.78571 -2.85714,-2.5 1.78572,-2.5 4.64286,0 2.85714,-2.85715 5,-0.35715 2.14286,2.5 1.07143,3.21429 2.85714,2.5 1.78572,-0.71428 -1.07142,2.85715 2.14286,-0.71428 3.21429,-3.57143 -2.06885,-6.97029 3.92857,-5 4.08573,1.34226 3.235,1.5114 2.5,-1.42858 -1.07142,-4.28571 -6.01595,-4.00682 2.50001,-0.35713 2.49999,1.07142 12.14285,0.35714 0,-2.14286 -12.14286,-2.5 -4.64286,-2.85715 -5.35715,-5.35715 -0.71429,-2.5 0,-3.92857 0,-3.92857 0,0 5.71429,-3.92857 -1.07143,-4.64286 -6.78571,-0.71428 -5.35714,2.85715 -7.14286,-0.71428 -1.78571,-3.57143 -1.78571,-4.64286 -1.78571,-4.64286 0,0 -2.5,3.92857 -2.85714,0 -0.35714,-3.92857 -2.85714,-4.28571 -6.78571,-2.14285 -3.92858,2.14285 1.42856,-2.85715 -6.07144,1.42857 -7.5,4.28571 -5.35714,3.21428 -1.42857,0 3.92857,-3.21429 4.28572,-6.78572 -5,-3.92858 -9.28571,2.85715 -13.57143,5.35715 -13.57143,5.35715 -7.85714,1.07143 -2.85714,-5.35714 -10.71428,1.07143 -5.25186,4.29698 -10.35714,-5.35715 -12.5,1.42857 -2.14286,6.78571 -2.54067,-5.00766 -2.85715,-3.21428 -1.07142,6.07142 -4.74114,2.7574 -4.28571,-10e-6 0.75739,-4.5856 0.71429,-4.64286 -5,0 -5.71428,4.64286 -3.92857,5.71429 -6.78571,8.57143 -2.85715,2.85714 -10.01154,-0.18273 -7.85715,5.35714 2.5,6.42858 -15.76119,7.49809 -10.35714,8.92857 12.14286,3.21429 -5.84889,5.05987 1.78572,5 12.52026,-0.0982 3.57142,5.35715 3.92857,11.07143 0.35714,5.71429 -2.85715,8.92857 3.21428,6.42857 6.07143,-2.5 0.16193,7.85341 9.28572,-2.85714 8.21428,-9.64286 8.92857,-3.92857 1.07143,4.28571 -7.85714,8.21429 6.42857,-2.85714 6.42857,-2.85714 0,0 -2.14286,4.64286 -0.35715,3.57143 5,-1.78572 12.5,-10 6.42858,-3.21428 -6.07143,6.78571 2.85714,0.35714 3.92857,0.71428 z"
         id="path2989"
         style="fill:#999999;stroke:none" />
      <path
         d="m 751.81426,365.41545 c 4.64286,5.35714 1.65676,11.90667 5,3.21428 1.78572,-4.64285 0,-6.42857 3.21429,1.78572 3.21429,8.21428 3.10572,5.86486 5.35714,1.42857 2.3864,-4.70226 0.35714,-9.64286 2.85714,-0.71429 2.5,8.92858 -2.85714,4.64286 4.64286,0.71429 7.5,-3.92857 2.50001,-3.57143 7.50001,-2.14285 5,1.42857 4.28571,1.42857 6.78571,0.35714 2.5,-1.07143 0.71428,-6.07143 4.28571,-1.42858 3.57143,4.64286 2.5,3.21429 0.71429,4.64286 -1.78571,1.42858 2.85714,0 5,0.71429 2.14286,0.71428 -6.07142,-7.50001 1.07143,-1.42858 6.35273,5.39983 5.71428,0.71429 1.07142,-2.85714 -4.64285,-3.57142 -1.78571,-8.21429 3.92858,-0.71429 5.71429,7.5 -2.5,2.50001 2.85714,3.21429 5.35714,0.71429 0.35714,2.85714 7.14286,-5.35714 6.78571,-8.21429 5.71429,-2.5 9.64286,-0.35715 3.92857,2.14286 3.92856,-6.78571 4.99999,-2.85714 1.07143,3.92857 1e-5,1.07143 5.71429,1.07143 5.71429,0 6.42857,13.57143 4.64286,3.92857 -1.78572,-9.64285 -13.57143,-16.42857 -6.78572,-11.07142 6.78571,5.35714 10.70994,0.67984 13.92858,2.14286 3.92857,1.78571 5.35634,0.89218 -0.35715,-3.92858 -8.52758,-7.19515 4.28571,0.71429 0.35714,-6.42857 -3.92857,-7.14286 4.2776,-3.22242 0.35715,-7.14286 -4.28572,-4.28571 -3.92858,-2.14285 -8.57143,-3.92857 -8.66679,-3.33338 -2.14286,-4.28571 -5.71429,-4.28571 -3.57143,0 -3.57143,1.07142 -4.64286,3.92857 -1.07142,2.85714 -1.07142,1.07143 -5,-3.57143 -3.92857,-4.64287 -1.42857,-7.50001 -7.14285,-5.35715 -5.71429,2.14285 0.35714,-1.42858 -9.64286,3.21428 -10,4.64287 -8.92857,-5.35714 -14.64285,1.07144 -3.50329,3.94119 -1e-5,-2.50001 -4.64286,-2.50001 -4.64286,0 2.5,-3.21429 -5,0 -7.5,3.2143 -13.21429,2.14286 -17.85715,2.85715 -4.64286,0.71428 1.07143,2.50001 -4.64286,2.50001 -5.71428,0 -3.21428,-3.92859 -9.28571,0.71428 -6.07143,4.64286 -8.21428,4.28571 -10,7.14286 -1.78571,2.85714 -2.85714,3.57142 -0.35714,7.5 2.5,3.92857 2.14286,4.28571 2.85714,6.42857 0.71429,2.14285 6.99416,0.93058 3.21429,6.42857 -3.92857,5.71428 7.14285,1.07143 7.14285,1.07143 z"
         id="path2992"
         style="fill:#999999;stroke:none" />
      <path
         d="m 638.59998,308.27258 c 0,2.85714 4.28571,1.78571 3.21428,-1.07143 -1.07142,-2.85714 5.35715,-1.78571 5.35715,0 0,1.78572 -5.61407,8.77662 2.14285,3.92857 2.85715,-1.78571 0.35714,-3.92857 6.07143,-0.71428 4.99014,2.80696 1.42857,7.14285 4.28572,2.85714 2.85714,-4.28571 7.85714,-11.78571 7.85714,-8.92857 0,2.85714 1.42857,3.92857 1.42857,5.35714 0,1.42857 -0.81068,7.45614 0.35714,2.85714 2.67335,-10.52796 2.85715,-1.42857 4.64286,-0.71428 1.78572,0.71428 2.5,-1.07143 4.64286,-1.78572 2.14286,-0.71428 6.07143,-3.21428 6.42857,0 0.35714,3.21429 -1.07143,2.14286 1.78571,1.07143 2.85715,-1.07143 2.14286,-3.21428 5.35715,-3.57143 3.21428,-0.35714 6.78571,-6.42857 6.78571,1.78572 0,8.21428 3.57143,-3.21429 1.78572,2.5 -1.78571,5.71428 2.5,7.14286 2.5,3.57143 0,-7.5085 1.42857,-3.92858 3.92857,-7.14286 2.5,-3.21429 4.28571,0 4.28571,2.5 0,2.5 0,1.07143 2.14286,0 2.14286,-1.07143 1.07143,-8.92857 3.92857,-3.21429 2.85714,5.71429 -1.07143,7.14286 3.92857,4.28572 5,-2.85714 1.42857,-3.92857 2.5,-5.35714 1.07143,-1.42857 4.64286,5.35714 5,0.35714 5.23026,-8.12217 4.21459,4.50687 6.42857,3.21428 1.78572,-1.07142 -0.71428,1.42858 2.5,-3.92857 3.21429,-5.35714 2.14286,-8.21428 4.64286,-5 2.5,3.21429 0,5 3.92857,3.57143 3.92857,-1.42857 2.14285,-7.14286 6.07143,-6.42857 3.92857,0.71428 3.21429,2.85714 5,3.92857 1.78571,1.07143 1.42857,-5.71428 4.64286,-4.64286 3.21429,1.07143 -1.07143,0.71429 3.21428,4.64286 4.28572,3.92857 0,-8.57143 7.14286,-2.5 7.14286,6.07143 6.78571,2.85715 6.78571,2.85715 0,0 1.42858,13.92857 3.21429,7.14285 1.78571,-6.78571 0.71429,-7.5 2.14286,-8.57143 1.42857,-1.07143 0,-10 4.28571,1.07143 4.28572,11.07143 6.42857,1.07143 8.21429,1.78572 1.78571,0.71428 4.28571,1.42857 5,4.28571 0.71428,2.85714 -2.14286,7.5 1.42857,3.92857 3.57143,-3.57143 5.35714,-5.35714 7.85714,-2.14286 2.5,3.21429 4.28572,11.78572 3.21429,4.28572 -1.07143,-7.5 5.35714,0 -1.07143,-8.21429 -6.42857,-8.21428 -6.07143,-9.28571 -3.57143,-8.92857 2.5,0.35714 12.14286,8.92857 3.92857,-0.35714 -8.21428,-9.28572 -9.28571,-11.78572 -9.28571,-11.78572 0,0 -1.78572,-2.5 -1.07143,-7.5 0.71428,-5 6.42857,-0.35714 1.78571,-8.21428 -4.64285,-7.85714 2.60068,-6.72411 -7.5,-10 -13.21429,-4.28571 -9.28571,-13.57143 -18.21428,-9.28571 -10.11014,4.85287 -9.28572,-9.28572 -14.64286,-6.78572 -5.35714,2.5 -4.64286,2.5 -6.42857,2.85715 -1.78572,0.35714 -5,3.92857 -10,-3.21429 -5,-7.14286 0.71428,-7.14286 -5,-7.14286 -5.71429,0 1.78571,-6.78571 -9.64286,2.5 -11.42857,9.28572 -9.64285,0.71429 -20.71428,0.71429 -11.07143,0 -13.57143,4.28571 -17.85715,2.85714 -4.28571,-1.42857 2.14286,-5.71428 -8.92857,0.35715 -11.07143,6.07142 -12.5,6.78571 -12.5,6.78571 0,0 -6.42857,2.14286 -7.85714,2.5 -1.42857,0.35714 6.78571,-3.92857 -9.28572,1.07143 -16.07142,5 -18.21428,5 -20.35714,7.5 -2.14286,2.49999 -1.07142,10.71428 -6.42857,15.35714 -5.35714,4.64285 0.9849,-7.19532 -8.21429,3.21428 -13.57143,15.35715 -2.28532,9.05433 -5,17.5 -3.21428,10 3.57143,5.35715 3.57143,5.35715 0,0 -10.16651,18.84568 0.71429,6.42857 5.77754,-6.59329 12.85714,-12.14286 8.92857,-5.00001 -8.94993,16.27258 -5.35714,8.21429 -2.14286,7.85715 3.21429,-0.35714 12.85715,-8.57143 12.85715,-8.57143 -1.07143,0 -2.14286,6.07143 -2.14286,6.07143 z"
         id="path2994"
         style="fill:#999999;stroke:none" />
    </g>
    <path
       d="m 103.97674,1052.5835 c -1.24839,-2.7635 -2.05845,-1.7782 -2.66644,-3.4613 -0.26289,-0.7889 -0.3341,-0.4468 -0.6137,-1.7266 -0.35374,-0.9616 -0.29746,-2.5498 -0.16166,-2.8748 0.34535,-0.8263 0.15747,-1.5586 0.59613,-1.5294 0.59152,0.066 1.97172,0.9861 3.02331,1.249 1.05158,0.2629 3.51623,0.7558 3.91057,0.2957 0.39434,-0.4601 0.78869,-1.4788 0.78869,-1.4788 l -0.55865,-0.132 c 0,0 -0.0216,0.7447 -0.46007,1.1831 -0.23004,0.2301 -0.86335,0.238 -1.28162,0.099 -0.59152,-0.1971 -1.61024,-0.3614 -1.61024,-0.3614 0,0 0.98586,0.1972 1.31448,-0.1973 0.32862,-0.3942 0.65724,-1.0514 0.65724,-1.0514 l -0.78869,0.066 c 0,0 0.13145,0.3286 -0.32862,0.5916 -0.46007,0.2629 -1.44592,0.3943 -1.90599,0.1971 -0.46007,-0.1971 -1.11731,-0.5257 -1.70883,-0.7229 -0.59151,-0.1972 -1.01872,-0.4274 -1.01872,-0.4274 0,0 4.95059,-4.2871 4.92878,-4.9635 -0.0329,-1.0187 -0.11104,-0.867 0.33669,-1.4997 0.24787,-0.35 0.69845,-0.2749 1.10923,-0.4391 0.84995,-0.3401 2.04424,-0.2067 2.66182,-0.5586 1.46765,-0.837 0.46211,-2.3223 0.46211,-2.3223 l -0.4272,0.2957 c 0,0 0.74484,0.6488 -0.40737,1.4897 -0.26542,0.1937 -1.86216,0.1094 -2.38795,0.5037 -0.52579,0.3946 -0.88727,-0.8542 -1.01872,-1.2485 -0.13143,-0.3944 -0.32861,-0.7558 -0.32861,-0.7558 l -0.62438,-0.1005 c 0,0 0.4614,0.8089 0.49293,1.2816 0.2937,1.3213 -0.9702,0.7469 -1.11731,0.756 -1.27974,0.042 -1.19889,-1.0724 0.1422,-1.7659 l -0.78868,-0.197 c 0,0 -1.55528,0.7141 -1.39096,1.1415 0.2552,0.6634 0.24488,0.65 -0.42721,0.5255 -0.72902,-0.1364 -2.81265,-0.4205 -3.009827,-0.7164 -0.425159,-0.6376 -0.262894,-1.7742 -0.262894,-1.7742 l -0.52579,-0.1973 c 0,0 -0.09859,0.3286 -0.03286,0.9859 0.08194,0.8195 -0.0482,1.9079 3.535611,2.2278 1.32392,0.12 2.89186,0.5258 2.82613,0.8547 -0.0657,0.3284 0.0986,1.0186 -0.49293,1.2816 -0.59151,0.2626 -1.90599,0.6571 -2.30034,1.4457 -0.39434,0.7887 -0.46006,1.5119 -1.44592,1.5119 -0.985861,0 -2.070301,-0.066 -2.070301,-0.066 -0.234722,-0.6894 0.0924,-1.2783 0.427202,-1.9715 l -0.591518,-0.066 c -0.342222,1.172 -0.504958,0.9903 -0.394344,2.0373 0,0 -1.05158,-0.1319 -1.905992,-0.1319 -0.854413,0 -1.478794,-0.8216 -1.08445,-1.2158 0.394352,-0.3944 1.41307,-0.8216 1.41307,-0.8216 l -0.657243,-0.1973 c 0,0 -0.952994,0.3946 -1.314478,0.8545 -0.334841,0.4259 -0.09859,1.0186 0.328623,1.3473 0.769161,0.5917 0.788686,0.4603 1.971713,0.6244 1.502934,0.2087 0.558661,0.1319 2.628961,0.4601 0.554607,0.087 0.788687,0.033 0.788687,0.033 -1.546487,1.6457 -1.807984,3.4028 -1.862382,5.8429 0.0657,2.4974 0.819205,3.0888 0.745072,3.95 -0.07924,0.9208 -0.721356,1.006 -1.1173,1.8403 l 2.35889,-6e-4 c 0,0 -0.0661,-1.178 0.54958,-1.1964 0.66338,-0.019 0.85624,1.1954 0.85624,1.1954 z"
       id="path2990"
       style="fill:#aaaaaa;fill-opacity:1;stroke:none" />
    <path
       d="m 100.82502,1034.2148 c 0,0 -1.960772,1.6892 -0.62535,1.0591 1.33541,-0.6302 1.3723,-1.7026 1.33541,-0.6302 -0.0369,1.0724 0.3849,0.4162 0.80885,-0.6317 0.42395,-1.0483 -0.51948,1.5206 0.24538,0.4388 0.76486,-1.0817 0.57103,-2.443 1.19914,-1.1955 0.62812,1.2473 0.96844,0.2296 1.16119,0.072 1.36906,-1.1145 0.10045,1.4418 1.03524,0.4413 0.93477,-1.0004 0.56839,0.8436 1.04064,-0.539 0.17949,-0.5253 0.44787,0.2323 0.81919,0.3025 0.37131,0.071 0.21822,-0.253 0.75837,0.095 0.54015,0.3476 0.0934,-0.08 0.78986,0 0.69649,0.082 0.43861,-0.8982 0.94404,0.1305 0.50543,1.0279 0.50867,0.4397 0.71115,0.2329 0.20248,-0.2073 -0.3849,-0.4166 0.41962,-0.2641 0.80452,0.1524 0.62102,-0.2748 0.88215,0.117 0.26113,0.3929 0.044,0.4499 0.3849,0.4163 0.34091,-0.033 -0.3116,0.3335 0.40279,-0.021 0.7144,-0.3553 -0.0513,-0.9673 0.90114,-0.5159 0.64881,0.3071 0.49395,0.301 0.49617,-0.1035 0.003,-0.5882 -0.86584,-0.7146 0.44894,0.036 0.38598,0.2203 2.08839,0.4444 0.0945,-0.2767 -1.99393,-0.7212 -0.67858,-0.521 -0.69216,-0.867 -0.0136,-0.3459 0.17316,-0.5069 0.17316,-0.5069 0,0 1.16334,-0.3192 0.019,-0.6342 -1.14436,-0.3148 -1.05422,0.193 -1.20624,-0.3265 -0.15201,-0.5195 -0.1048,-0.6577 -0.1048,-0.6577 0,0 -0.60637,0.4248 -0.49509,-0.093 0.11128,-0.5186 -0.30619,-0.6467 -1.08138,-0.4993 -0.77522,0.1485 0.37347,-0.3218 -1.11504,-0.015 -1.48851,0.3066 -1.06996,0.2389 -0.24755,-0.047 0.82243,-0.2859 1.04174,-0.735 -0.69324,-0.671 -1.73498,0.063 -2.5878,0.2456 -2.5878,0.2456 -1.40872,-0.1199 -0.25897,-0.7847 -1.90381,-0.2132 -1.09945,0.382 -1.55857,-1.0312 -2.22898,-0.226 -0.67042,0.805 -0.21953,-0.7296 -0.35342,-0.5084 -0.45327,0.7482 -0.94308,0.2002 -0.74263,-0.141 0.33336,-0.5669 0.32841,-0.5756 -0.86641,-0.164 -1.194815,0.4115 -0.93262,0.6081 -1.553636,0.883 -0.621025,0.2749 -1.726762,-0.352 -1.597629,0.4334 0.14985,0.9115 -3.06161,0.45 -2.18824,0.8119 1.962457,0.8134 -1.236529,0.461 0.08905,0.7038 2.173852,0.3983 0.382728,0.8085 0.192752,1.5575 -0.189982,0.749 -0.888636,1.0581 0.273619,0.9349 1.162255,-0.123 -0.318094,1.0186 1.734973,-0.063 1.848409,-0.9745 1.720315,-0.2137 -0.003,0.5882 -1.723563,0.802 1.239881,-0.1577 1.239881,-0.1577 0,0 -0.575963,0.5287 -0.219305,0.449 0.945113,-0.066 2.606785,-0.88 1.255625,-0.2036 -1.351152,0.6762 0.47935,0.141 0.64927,0.221 z"
       id="path2993"
       style="fill:#999999;stroke:none" />
    <path
       d="m 93.537165,1038.5558 c 0.427202,0.4929 0.152438,1.0957 0.460063,0.2959 0.164316,-0.4273 0,-0.5916 0.295762,0.1642 0.295757,0.7558 0.285766,0.5396 0.492932,0.132 0.219579,-0.4328 0.03286,-0.8874 0.262895,-0.066 0.230028,0.8215 -0.262895,0.4272 0.427202,0.066 0.690098,-0.3616 0.230036,-0.3289 0.690106,-0.1972 0.460063,0.1319 0.394343,0.1319 0.624371,0.033 0.230034,-0.099 0.0657,-0.5587 0.39435,-0.132 0.328615,0.4271 0.230028,0.2957 0.0657,0.4271 -0.164308,0.132 0.262895,0 0.460069,0.066 0.197168,0.066 -0.558656,-0.69 0.09859,-0.132 0.584538,0.4967 0.525792,0.066 0.09859,-0.2629 -0.427204,-0.3287 -0.164306,-0.756 0.361483,-0.066 0.525791,0.6902 -0.230035,0.2299 0.262897,0.2958 0.492931,0.066 0.03286,0.263 0.657238,-0.4928 0.624377,-0.7557 0.525797,-0.2301 0.887277,-0.033 0.36148,0.1972 0.36148,-0.6243 0.46007,-0.2628 0.0986,0.3613 0,0.097 0.52579,0.097 0.52579,0 0.59151,1.2485 0.42721,0.3614 -0.16432,-0.8873 -1.24876,-1.5117 -0.62438,-1.0189 0.62438,0.4931 0.98546,0.063 1.28161,0.1974 0.36149,0.1642 0.49286,0.081 -0.0329,-0.3614 -0.78466,-0.6621 0.39435,0.066 0.0329,-0.5918 -0.36148,-0.657 0.3936,-0.2965 0.0329,-0.657 -0.39434,-0.3944 -0.36148,-0.1972 -0.78869,-0.3616 -0.79746,-0.3068 -0.19717,-0.3943 -0.52578,-0.3943 -0.32863,0 -0.32863,0.098 -0.42722,0.3615 -0.0986,0.2629 -0.0986,0.099 -0.46006,-0.3286 -0.36148,-0.4273 -0.13143,-0.69 -0.657243,-0.493 -0.525791,0.1972 0.03286,-0.1319 -0.887273,0.2956 -0.920134,0.4274 -0.821546,-0.4926 -1.347337,0.1005 -0.322351,0.3626 0,-0.2302 -0.427209,-0.2302 -0.427204,0 0.230033,-0.2957 -0.460065,0 -0.690106,0.2959 -1.215895,0.1972 -1.643098,0.2629 -0.427212,0.066 0.09859,0.23 -0.427212,0.23 -0.52579,0 -0.295754,-0.3615 -0.854404,0.066 -0.558659,0.4271 -0.755826,0.3943 -0.92014,0.6574 -0.164309,0.2627 -0.262898,0.3284 -0.03286,0.6898 0.230034,0.3616 0.197173,0.3946 0.262894,0.5918 0.0657,0.1969 0.643558,0.086 0.295762,0.5913 -0.361483,0.5258 0.657238,0.098 0.657238,0.098 z"
       id="path2995"
       style="fill:#999999;stroke:none" />
    <path
       d="m 111.44061,1044.5855 c -0.035,0.1684 -0.23426,0.061 -0.14616,-0.096 0.0881,-0.1576 -0.24361,-0.1605 -0.26549,-0.055 -0.0219,0.1065 0.1707,0.5754 -0.15433,0.2096 -0.11972,-0.1364 0.0305,-0.2354 -0.29215,-0.1034 -0.28169,0.1154 -0.15831,0.4067 -0.2474,0.1259 -0.0891,-0.2822 -0.245,-0.7761 -0.28001,-0.6075 -0.035,0.1686 -0.11892,0.217 -0.13641,0.3013 -0.0175,0.084 -0.0512,0.4483 -0.0527,0.1648 -0.004,-0.6484 -0.1241,-0.1125 -0.22135,-0.09 -0.0973,0.024 -0.11077,-0.088 -0.20822,-0.1531 -0.0974,-0.064 -0.26152,-0.2518 -0.31859,-0.066 -0.0571,0.186 0.0269,0.138 -0.10162,0.045 -0.12847,-0.093 -0.0668,-0.2117 -0.22174,-0.2659 -0.15493,-0.054 -0.25754,-0.449 -0.35817,0.034 -0.10063,0.4846 -0.13761,-0.2263 -0.11914,0.1305 0.0185,0.3556 -0.21141,0.3956 -0.16765,0.1851 0.092,-0.4429 -0.0227,-0.2466 -0.10718,-0.4618 -0.0845,-0.2154 -0.2124,-0.043 -0.24303,0.105 -0.0306,0.1484 -0.0132,0.063 -0.10619,-0.021 -0.0931,-0.086 0.0563,-0.538 -0.15532,-0.2302 -0.21161,0.3077 -0.0344,0.4323 -0.2472,0.2123 -0.2128,-0.2198 -0.0227,-0.2464 -0.0583,-0.3416 -0.0356,-0.095 -0.29572,0.2683 -0.25217,-0.03 -0.1597,-0.5331 -0.26408,0.2223 -0.35797,0.123 -0.0754,-0.081 0.0179,0.091 -0.0758,-0.2575 -0.0937,-0.349 -0.005,-0.5065 -0.16883,-0.3427 -0.16328,0.1639 -0.0613,0.295 -0.23846,0.1702 -0.17719,-0.1259 -0.0187,-0.4434 -0.22214,-0.4416 -0.20344,0 -0.1943,0.1364 -0.29592,0.1804 -0.10162,0.045 -7.4e-4,-0.3518 -0.17321,-0.3219 -0.17243,0.03 0.0444,0.053 -0.21618,0.2407 -0.26053,0.188 0.10502,-0.5055 -0.32337,-0.2207 -0.42838,0.2845 -0.3713,0.099 -0.3713,0.099 0,0 -0.24144,0.8067 -0.24681,0.3881 -0.005,-0.4187 0.0565,-0.4498 -10e-4,-0.5277 -0.0577,-0.078 0.12251,-0.5899 -0.22553,0.019 -0.34803,0.6088 -0.33172,0 -0.42897,0.021 -0.0972,0.024 -0.2299,0.041 -0.3003,0.2015 -0.0704,0.161 0.0144,0.4643 -0.11893,0.2168 -0.13324,-0.2476 -0.19986,-0.371 -0.36314,-0.2074 -0.16328,0.1639 -0.35679,0.6512 -0.21181,0.2199 0.14499,-0.4314 -0.26549,-0.055 0.15374,-0.4736 0.41924,-0.4182 0.41466,-0.485 0.28639,-0.49 -0.12827,0 -0.71118,0.4018 -0.19032,-0.062 0.52086,-0.4631 0.60458,-0.5996 0.60458,-0.5996 0,0 0.11914,-0.1304 0.14499,-0.4314 0.0258,-0.3022 -0.31421,-0.087 0.0123,-0.5029 0.32636,-0.4157 -0.0465,-0.4235 0.49421,-0.5126 0.7074,-0.1184 0.62647,-0.705 1.01646,-0.3603 0.44159,0.3903 0.57395,-0.4522 0.80882,-0.2496 0.23486,0.2028 0.19946,0.1951 0.28359,0.2347 0.0841,0.039 0.19966,0.2832 0.53497,-0.087 0.3353,-0.3698 0.0521,-0.4286 0.3353,-0.3698 0.2832,0.058 -0.005,-0.4187 0.44727,0.2467 0.45263,0.6653 0.46914,0.1425 1.01784,0.2553 0.54869,0.1154 0.62008,0.3926 0.84998,0.3524 0.22989,-0.041 -0.0362,-0.3589 0.43812,0.1125 0.47431,0.4722 0.53635,0.5289 0.53635,0.5289 0,0 0.29234,0.1926 0.35877,0.2284 0.0665,0.036 -0.28817,-0.3017 0.44706,0.1588 0.73523,0.4604 0.84143,0.4823 0.917,0.6521 0.0756,0.1694 -0.0782,0.6429 0.13046,0.9719 0.20861,0.3289 0.0393,-0.4347 0.36771,0.2742 0.48444,1.0456 0.002,0.5577 0.0334,1.0835 0.0367,0.6231 -0.24263,0.2794 -0.24263,0.2794 0,0 0.27295,1.2162 -0.11418,0.3719 -0.20555,-0.4484 -0.48841,-0.8487 -0.38123,-0.3869 0.24419,1.052 0.16486,0.5399 0.01,0.4856 -0.15492,-0.054 -0.53217,-0.6381 -0.53217,-0.6381 0.0531,0.015 0.0318,0.3803 0.0318,0.3803 z"
       id="path2997"
       style="fill:#999999;stroke:none" />
    <path
       d="m 123.53881,1052.5217 c 1.90822,-0.3037 1.64801,-1.0843 2.77559,-1.518 1.12758,-0.4335 2.12505,0.3039 2.81895,-0.4769 0.69389,-0.7806 1.04084,-4.5103 -0.17347,-5.1609 -1.21432,-0.6505 -6.46191,-3.5562 -6.46191,-4.7271 0,-1.1712 -0.39031,-1.8649 -0.99747,-2.1684 -0.60716,-0.3037 -1.43116,-1.518 -1.43116,-1.518 l 0.824,-0.2601 c 0,0 1.34442,1.8214 1.90821,1.8214 0.56379,0 1.95158,0.1305 1.90821,-0.5204 -0.0434,-0.6506 -0.34695,-1.5612 -0.34695,-1.5612 l 0.6939,-0.043 c 0,0 0.6939,0.8676 0.52042,1.6047 -0.17347,0.7372 -0.99747,1.3443 -1.60463,1.3011 -0.60716,-0.043 -0.69389,0.6504 -0.47705,0.9973 0.21684,0.3471 2.51537,1.9951 3.03579,2.3854 0.52043,0.3901 2.51537,1.4744 2.81895,1.3879 0.30358,-0.087 1.56127,-1.9084 1.90821,-2.5588 0.34695,-0.6506 0.43369,-2.3421 -0.21684,-2.9058 -0.65053,-0.5638 -1.25769,-1.9516 -1.04084,-2.3853 0.21684,-0.4337 -0.86737,-2.8188 -0.86737,-2.8188 l 0.824,-0.129 c 0,0 0.26021,1.518 0.824,1.6047 0.56379,0.087 1.47453,-0.217 1.86484,-0.1735 0.39032,0.043 0,-1.3443 0,-1.3443 l 0.6939,0 c 0,0 -0.0433,1.1274 0.26021,1.2576 0.30358,0.1305 0.56379,-0.087 1.04084,-0.2169 0.47706,-0.1304 0.60716,-1.3011 0.60716,-1.3011 l 0.78064,-0.26 c 0,0 -0.0433,1.0406 -0.26021,1.3008 -0.21684,0.2603 -0.73727,0.8241 -1.25769,0.9542 -0.52042,0.1305 -1.86485,0.2169 -2.21179,0.3036 -0.34695,0.087 -1.17095,0.2603 -1.17095,0.6506 0,0.3903 0.73726,1.4744 1.12758,2.1684 0.39031,0.6939 0.0433,1.9948 0.39031,2.0815 0.34695,0.087 4.77054,-0.9973 5.11749,-1.7347 0.34695,-0.7372 0.86736,-2.2984 0.56379,-2.5586 -0.30358,-0.2603 -1.12758,-0.9977 -1.12758,-1.3446 0,-0.3469 0.21684,-1.2575 0.21684,-1.2575 l 0.91074,-0.043 c 0,0 -0.47706,1.4745 -0.13012,1.6479 0.34695,0.1735 0.99748,1.1276 1.43116,0.8675 0.43369,-0.2602 1.60464,-0.5205 1.69138,-0.8675 0.0867,-0.3469 -0.43369,-1.5612 -0.43369,-1.5612 l 0.6939,-0.1305 c 0,0 0.824,1.3445 0.60715,1.7782 -0.21684,0.4337 -1.04084,1.0408 -1.47453,1.2143 -0.43368,0.1737 -1.17094,0.2602 -1.30105,0.4772 -0.13011,0.2167 -0.17348,1.7345 -0.65052,2.3851 -0.47706,0.6506 -2.60211,1.5613 -3.46949,1.7782 -0.86736,0.2168 -1.99494,0.087 -2.25516,0.6506 -0.26021,0.5635 -1.30105,2.5152 -1.43116,2.9058 -0.13011,0.3902 0.6939,1.7345 0.6939,2.4284 0,0.6939 -0.26021,2.7323 -0.26021,3.1225 0,0.3904 1.82147,2.6021 1.82147,2.6021 l -1.47452,0 -0.86737,-1.1276 0.39032,1.041 -2.12506,0 c 0,0 -0.26021,-0.8675 -0.78064,-1.0842 -0.30487,-0.1259 -1.09275,-0.1244 -1.69136,-0.043 -1.22496,0.1658 -1.60217,0.514 -1.95159,0.8241 -0.39593,0.3517 -0.99747,0.3037 -0.99747,0.3037 z"
       id="path2999"
       style="fill:#b3b3b3;stroke:none" />
    <path
       d="m 118.63818,1037.5596 c 0.47705,0.5637 0.91073,0.5205 0.86737,-0.087 0.52042,-0.7371 0.13011,-0.4769 0.34695,0 0.21685,0.4772 0.30358,0.9976 0.56379,1.1276 0.26021,0.1305 0.69389,0.6939 0.65052,0 -0.0434,-0.6939 -0.43368,-0.8674 -0.13011,-1.1709 0.30358,-0.3036 0.21684,-0.4336 0.52042,-0.3903 0.30358,0.043 0.39032,0.1734 0.56379,0.3036 0.17348,0.1305 0.47705,0.5637 0.56379,0.2168 0.0867,-0.347 0,-0.7806 0.17348,-0.7372 0.17347,0.043 0.65052,0.9106 0.65052,0.9106 l 0.73727,-0.4336 c 0,0 -0.34695,-0.5204 -0.13011,-0.5637 0.21684,-0.043 0.60715,-0.3035 0.91073,0.3035 0.30358,0.6073 0.21684,0.9108 0.52042,0.8673 0.30358,-0.043 0.56379,0.1737 0.56379,-0.1305 0,-0.3035 0,-0.3468 0.0434,-0.607 0.0433,-0.2604 0.30358,-0.824 0.60716,-0.5638 0.30358,0.2604 0.17347,0.087 0.43369,0.3904 0.26021,0.3035 0.0867,0.5204 0.56378,0.3035 0.47705,-0.2168 0.0434,0.043 0.47705,-0.2168 0.43369,-0.2602 0.78064,-0.4771 0.5638,-0.7806 -0.21685,-0.3035 -0.0434,-0.2602 -0.43369,-0.4772 -0.39032,-0.2166 -0.65052,-0.1732 -0.65052,-0.5636 0,-0.3904 0.34694,-0.2605 0,-1.0409 -0.34696,-0.7806 0.43368,-0.6939 -0.43369,-0.9975 -0.86737,-0.3037 -0.47706,-0.3902 -1.12758,-0.3902 -0.65053,0 -0.56379,-0.9542 -1.21432,-0.1305 -0.65052,0.824 -0.60716,1.5179 -0.65052,0.824 -0.0434,-0.6938 0.34695,-0.9975 -0.13012,-1.1277 -0.47705,-0.1304 0.26022,-0.2601 -0.69389,-0.1733 -0.95411,0.087 -0.56379,-0.087 -1.30106,0.132 -0.73726,0.2167 -1.47452,0.3033 -1.47452,0.3033 0,0 -0.43369,0.043 -0.73727,-0.087 -0.30357,-0.129 0.34695,-0.129 -0.34695,-0.129 -0.69389,0 -0.17347,-0.7373 -0.86737,0.129 -0.69389,0.8674 -0.43368,0.9107 -0.824,1.0842 -0.39031,0.1734 -0.26021,0 -0.86736,0.3036 -0.60716,0.3037 -1.21432,0.1733 -0.91075,0.6937 0.30359,0.5206 0.21685,1.2145 0.52043,1.3447 0.30358,0.1304 0.91073,0 0.69389,0.477 -0.21684,0.4769 -0.824,0.2169 -0.56378,0.7371 0.26021,0.5204 0,0.7374 0.43368,0.5637 0.43368,-0.1732 0.56379,-0.3035 0.73726,-0.607 0.17347,-0.3034 0.65053,-1.2577 0.43369,-0.6504 -0.21685,0.607 -0.21685,0.8672 -0.34695,1.1276 -0.13011,0.26 -0.0867,1.1708 0.13011,0.8672 0.21685,-0.3035 0.56379,-0.9541 0.56379,-0.9541 z"
       id="path3001"
       style="fill:#999999;stroke:none" />
    <path
       d="m 131.1283,1033.6565 c 0.39032,0.4769 0.34694,1.301 0.39032,0.3035 0.0434,-0.9976 0.30357,-1.865 0.43368,-1.0409 0.13011,0.8241 0,0.7807 0.17348,0.8674 0.17347,0.087 0.0434,0.9976 0.34695,0.1305 0.30357,-0.8674 0.21684,-0.3904 0.34694,-0.2169 0.13011,0.1734 0.0867,0.2602 0.30358,0.2169 0.21684,-0.043 0.21684,0.2602 0.52042,-0.087 0.30358,-0.3469 0.21684,-0.3902 0.56379,-0.5639 0.34695,-0.1733 0.47706,-0.7371 0.56379,-0.1733 0.0867,0.5637 0.13011,0.6505 0.13011,0.6505 0,0 -0.17347,-1.1709 0.13012,-0.5637 0.30358,0.6071 -0.13012,1.2576 0.47705,0.6937 0.60716,-0.5638 0.39032,-1.1276 0.65053,-0.6072 0.26021,0.5206 0.30357,0.6072 0.30357,0.6072 0,0 0.13012,-0.4769 0.30359,-0.3035 0.17347,0.1735 0.0434,0.132 0.21684,0.3904 0.17347,0.2602 0.0867,-0.1305 0.34694,0.2602 0.26022,0.3903 -0.13011,0.8674 0.43369,0.3035 0.56379,-0.5637 0.0867,-0.4769 0.56379,-0.5637 0.47706,-0.087 0.47706,-0.6071 0.65053,-0.087 0.17348,0.5205 0.17348,0.2169 0.26021,0.6506 0.0867,0.4337 0,1.7781 0.34695,0.4769 0.34695,-1.3009 -0.0434,-2.5153 0.34695,-1.3444 0.39031,1.1711 0.39031,0.087 0.65052,0.4771 0.26021,0.3904 0.30358,0.9109 0.52043,0.5204 0.21684,-0.3901 0,-0.7371 0.39031,-0.6504 0.39032,0.087 0.60716,-0.2602 0.73727,0 0.13011,0.2603 0.17347,-0.3471 0.52042,0.087 0.34694,0.4337 0.13011,-0.3469 0.43368,0.4337 0.30358,0.7807 0.30358,0.6939 0.34695,0.9974 0.0434,0.3035 -0.26021,0.7807 0.30358,0.8674 0.56379,0.087 0.30357,0 0.56379,0.087 0.26021,0.087 0.43369,-0.5202 0.47705,0.087 0.0434,0.6072 1.25768,1.171 0.26022,-0.4771 -0.99749,-1.6478 -1.64801,-2.3851 -1.17095,-1.778 0.47705,0.6071 0.60716,0.5637 0.91073,0.9543 0.30358,0.3903 0.43368,0.7806 0.47706,0.5635 0.0434,-0.2165 -0.0434,-0.4769 -0.21684,-1.3876 0.38697,0.2513 0.001,0.3704 0.47705,0.129 0.21684,-0.129 -0.0434,-0.5638 -0.39032,-1.3444 -0.34695,-0.7806 0.78063,0 -0.30358,-0.9107 -1.08421,-0.9108 -0.6939,-0.3904 -1.08421,-0.9108 -0.39032,-0.5204 0.30357,-0.087 -0.73727,-0.8239 -1.04084,-0.7374 -0.43368,-1.0843 -1.25768,-0.9109 -0.824,0.1735 -1.43116,0.9109 -1.56127,0 -0.13011,-0.9107 -0.13011,-1.1275 -0.13011,-1.1275 -1.12759,0.8673 -0.21684,0.6071 -1.95158,0.5637 -1.73474,-0.043 -0.43368,-0.6505 -1.77811,-0.043 -1.34442,0.607 0,0.3904 -1.99495,0.607 -1.99495,0.217 -1.648,0.1319 -2.47201,-0.1733 -0.824,-0.3035 -0.9541,-0.347 -0.9541,-0.347 0,0 -0.99747,-0.6939 -1.56127,-0.3037 -0.56379,0.3904 -0.13011,-0.1733 -0.99747,0.3904 -0.86737,0.5639 -0.95411,0.5639 -1.25769,0.5639 -0.30358,0 -0.60715,-0.5639 -0.60715,0.1735 0,0.7372 0.13011,0.4337 0,0.9974 -0.13011,0.5639 -0.91074,0.087 -0.13011,0.694 0.78063,0.6072 1.7781,0 1.51789,0.4769 -0.26021,0.4772 -0.43368,0.9975 -0.43368,0.9975 0,0 -0.34695,0.954 0.26021,0.3036 0.60716,-0.6504 0.824,-1.431 0.69389,-0.7806 -0.13011,0.6504 -0.0867,0.8674 -0.0867,0.8674 l 0.56379,-0.8241 c 0,0 -0.56379,0.7373 0,0.9975 0.56379,0.2603 0.47705,0.347 0.69389,0.217 0.21685,-0.132 0,-0.3904 0.26021,-0.1737 0.26021,0.217 -0.17347,0.9541 0.30359,0.2604 0.47705,-0.6941 0.43368,-1.4745 0.69389,-0.8241 0.26022,0.6504 -0.21684,1.4745 -0.0434,1.2578 0.17347,-0.2169 0.2602,-0.7808 0.2602,-0.7808 z"
       id="path3003"
       style="fill:#999999;stroke:none" />
    <path
       d="m 278.92389,1052.5625 c 1.45679,-3.2248 2.40207,-2.0753 3.11156,-4.0393 0.30678,-0.9202 0.38988,-0.5211 0.71613,-2.0145 0.41279,-1.1224 0.34714,-2.9757 0.18867,-3.3549 -0.403,-0.9643 -0.18379,-1.8189 -0.69567,-1.7844 -0.69026,0.076 -2.30085,1.1504 -3.52799,1.4571 -1.22712,0.3067 -4.1032,0.8821 -4.56337,0.3452 -0.46018,-0.5369 -0.92034,-1.7257 -0.92034,-1.7257 l 0.65193,-0.1534 c 0,0 0.0252,0.8689 0.53686,1.3803 0.26843,0.2686 1.00746,0.278 1.49555,0.1155 0.69026,-0.2302 1.87902,-0.4219 1.87902,-0.4219 0,0 -1.15041,0.2302 -1.53388,-0.2299 -0.38349,-0.4602 -0.76697,-1.2272 -0.76697,-1.2272 l 0.92034,0.076 c 0,0 -0.15337,0.3835 0.38347,0.6903 0.53689,0.3068 1.68731,0.4603 2.22418,0.2301 0.53686,-0.2301 1.30382,-0.6136 1.9941,-0.8436 0.69024,-0.2302 1.18877,-0.4987 1.18877,-0.4987 0,0 -5.77701,-5.0029 -5.75156,-5.7922 0.0384,-1.1888 0.12958,-1.0117 -0.3929,-1.75 -0.28925,-0.4087 -0.81504,-0.321 -1.29438,-0.5126 -0.99186,-0.3967 -2.3855,-0.241 -3.10618,-0.6519 -1.71266,-0.9765 -0.53924,-2.7097 -0.53924,-2.7097 l 0.49852,0.3451 c 0,0 -0.8692,0.7568 0.47536,1.7383 0.30973,0.2262 2.17302,0.129 2.78659,0.588 0.61354,0.4603 1.03539,-0.9971 1.18876,-1.4572 0.15339,-0.4603 0.38347,-0.882 0.38347,-0.882 l 0.72861,-0.1155 c 0,0 -0.53842,0.9439 -0.5752,1.4957 -0.34277,1.5415 1.13214,0.8711 1.30381,0.8819 1.49337,0.05 1.39901,-1.2516 -0.16594,-2.0607 l 0.92035,-0.2299 c 0,0 1.8149,0.8334 1.62316,1.332 -0.29781,0.7743 -0.28578,0.7587 0.49853,0.6136 0.85071,-0.1575 3.28218,-0.4909 3.51225,-0.836 0.49614,-0.7443 0.30679,-2.0707 0.30679,-2.0707 l 0.61357,-0.2302 c 0,0 0.11502,0.3834 0.0384,1.1504 -0.0955,0.9562 0.0562,2.2267 -4.12583,2.6 -1.54493,0.1395 -3.37458,0.6137 -3.29788,0.997 0.0766,0.3835 -0.11503,1.1886 0.5752,1.4956 0.69025,0.3067 2.22418,0.7668 2.68434,1.6872 0.46017,0.9205 0.53686,1.7641 1.68731,1.7641 1.15043,0 2.4159,-0.077 2.4159,-0.077 0.27388,-0.8047 -0.10783,-1.4918 -0.49853,-2.3008 l 0.69026,-0.076 c 0.39935,1.3675 0.58926,1.1556 0.46017,2.3776 0,0 1.22713,-0.1534 2.22417,-0.1534 0.99706,0 1.72566,-0.9588 1.26549,-1.4189 -0.46018,-0.4602 -1.64896,-0.9586 -1.64896,-0.9586 l 0.76695,-0.2302 c 0,0 1.11209,0.4603 1.53391,0.997 0.39075,0.4973 0.11503,1.1888 -0.38349,1.5723 -0.89756,0.6906 -0.92033,0.5369 -2.30085,0.7287 -1.7538,0.2434 -0.65192,0.1532 -3.0678,0.5369 -0.64719,0.1019 -0.92035,0.037 -0.92035,0.037 1.80463,1.9203 2.1098,3.9707 2.17327,6.818 -0.0768,2.9145 -0.95597,3.6044 -0.86947,4.6093 0.0925,1.0747 0.84178,1.1741 1.30384,2.1477 l -2.75266,-6e-4 c 0,0 0.0771,-1.3748 -0.64134,-1.3963 -0.77413,-0.023 -0.99919,1.395 -0.99919,1.395 z"
       id="path3005"
       style="fill:#aaaaaa;fill-opacity:1;stroke:none" />
    <path
       d="m 282.60175,1031.1275 c 0,0 2.28806,1.9712 0.72972,1.2358 -1.55834,-0.7355 -1.60137,-1.9868 -1.55834,-0.7355 0.043,1.2515 -0.44916,0.4859 -0.94385,-0.7371 -0.49472,-1.2231 0.6062,1.7745 -0.28635,0.5123 -0.89256,-1.2623 -0.66636,-2.851 -1.39933,-1.3953 -0.73298,1.4555 -1.1301,0.2678 -1.35501,0.084 -1.5976,-1.3004 -0.11727,1.6825 -1.20804,0.5151 -1.09085,-1.1673 -0.6633,0.9844 -1.21439,-0.6289 -0.20943,-0.613 -0.52261,0.2708 -0.95592,0.353 -0.43331,0.082 -0.25465,-0.2953 -0.88498,0.111 -0.63032,0.4055 -0.10903,-0.093 -0.92173,0 -0.81274,0.096 -0.51181,-1.0482 -1.1016,0.1511 -0.58981,1.1996 -0.59359,0.5134 -0.82987,0.2718 -0.23629,-0.2413 0.44916,-0.4858 -0.48968,-0.3079 -0.93883,0.1777 -0.72469,-0.3208 -1.0294,0.138 -0.30472,0.4586 -0.0513,0.525 -0.44914,0.4857 -0.39784,-0.039 0.36361,0.3892 -0.47005,-0.025 -0.83366,-0.4143 0.0598,-1.1285 -1.05157,-0.6024 -0.75712,0.3586 -0.57639,0.3515 -0.57899,-0.1185 -0.003,-0.6862 1.01038,-0.8335 -0.52388,0.042 -0.45044,0.2571 -2.43703,0.5189 -0.11023,-0.3227 2.3268,-0.8415 0.79187,-0.6079 0.80772,-1.0117 0.0159,-0.4037 -0.20207,-0.5916 -0.20207,-0.5916 0,0 -1.35755,-0.3727 -0.0222,-0.7398 1.3354,-0.3675 1.23022,0.2248 1.40761,-0.3813 0.17739,-0.606 0.12237,-0.7674 0.12237,-0.7674 0,0 0.70758,0.4957 0.57773,-0.1109 -0.13003,-0.6053 0.3573,-0.7547 1.26191,-0.5827 0.90462,0.1722 -0.43582,-0.3753 1.30116,-0.018 1.73701,0.358 1.24859,0.2787 0.28889,-0.054 -0.95971,-0.3335 -1.21565,-0.8573 0.80895,-0.7829 2.02461,0.075 3.01981,0.287 3.01981,0.287 1.64386,-0.141 0.3022,-0.9162 2.2216,-0.2492 1.283,0.446 1.81876,-1.2033 2.60106,-0.2635 0.78236,0.9395 0.25618,-0.8514 0.41243,-0.5935 0.52893,0.8731 1.10051,0.2338 0.8666,-0.1642 -0.38899,-0.6614 -0.38323,-0.6717 1.01103,-0.1913 1.39429,0.4802 1.08831,0.7098 1.81301,1.0305 0.72469,0.3208 2.01501,-0.4109 1.86431,0.5057 -0.17485,1.0636 3.57271,0.5254 2.55354,0.9477 -2.29004,0.949 1.44296,0.5378 -0.10378,0.8212 -2.53676,0.4646 -0.44664,0.9433 -0.22495,1.8172 0.2217,0.8743 1.03699,1.235 -0.3193,1.0912 -1.35625,-0.1455 0.3712,1.1886 -2.02457,-0.075 -2.15698,-1.1372 -2.0075,-0.2496 0.003,0.6862 2.01126,0.936 -1.44686,-0.1838 -1.44686,-0.1838 0,0 0.67212,0.617 0.25592,0.524 -1.10289,-0.076 -3.04196,-1.027 -1.46526,-0.2379 1.57672,0.7893 -0.55935,0.1632 -0.75762,0.258 z"
       id="path3007"
       style="fill:#999999;stroke:none" />
    <path
       d="m 291.10619,1036.193 c -0.49853,0.5752 -0.17791,1.2784 -0.53689,0.3453 -0.19172,-0.4987 0,-0.6903 -0.34513,0.1916 -0.34512,0.8821 -0.33348,0.6299 -0.57522,0.1534 -0.25624,-0.5049 -0.0384,-1.0353 -0.30678,-0.076 -0.26844,0.9589 0.30678,0.4986 -0.49851,0.076 -0.8053,-0.422 -0.26844,-0.3836 -0.8053,-0.2302 -0.53686,0.1533 -0.46017,0.1533 -0.7286,0.037 -0.26844,-0.1169 -0.0768,-0.652 -0.46019,-0.1534 -0.38347,0.4984 -0.26842,0.3452 -0.0768,0.4984 0.19175,0.1535 -0.30677,0 -0.53684,0.076 -0.2301,0.076 0.65188,-0.8051 -0.11503,-0.1534 -0.68212,0.5798 -0.61355,0.077 -0.11502,-0.3067 0.49852,-0.3834 0.19172,-0.8819 -0.42184,-0.076 -0.61355,0.8051 0.26843,0.2684 -0.30677,0.345 -0.57521,0.077 -0.0384,0.307 -0.76695,-0.5751 -0.72861,-0.8818 -0.61358,-0.2683 -1.0354,-0.037 -0.42183,0.2302 -0.42183,-0.7287 -0.53686,-0.3068 -0.11503,0.422 0,0.1139 -0.61357,0.1139 -0.61357,0 -0.69026,1.4574 -0.49851,0.4221 0.19172,-1.0354 1.45721,-1.7641 0.72859,-1.1888 -0.72859,0.5751 -1.14994,0.072 -1.49555,0.2299 -0.42183,0.1918 -0.57513,0.096 0.0384,-0.4218 0.91563,-0.7724 -0.46016,0.076 -0.0384,-0.6903 0.42184,-0.7669 -0.45932,-0.3459 -0.0384,-0.7669 0.4602,-0.4601 0.42183,-0.2302 0.92036,-0.4219 0.93059,-0.3578 0.23007,-0.4602 0.61355,-0.4602 0.38349,0 0.38349,0.1155 0.49853,0.422 0.11503,0.3067 0.11503,0.114 0.53686,-0.3836 0.42184,-0.4985 0.15339,-0.8052 0.76697,-0.575 0.61356,0.2299 -0.0384,-0.1536 1.03538,0.3451 1.07373,0.4985 0.9587,-0.5753 1.57226,0.1139 0.37617,0.423 0,-0.2686 0.49851,-0.2686 0.49854,0 -0.26843,-0.345 0.53686,0 0.80532,0.3451 1.41889,0.2301 1.9174,0.307 0.49853,0.076 -0.11503,0.2683 0.49853,0.2683 0.61355,0 0.34512,-0.4217 0.99705,0.077 0.65189,0.4985 0.88196,0.4601 1.07372,0.7668 0.19175,0.307 0.30678,0.3836 0.0384,0.8053 -0.26841,0.4219 -0.23009,0.4603 -0.30677,0.6903 -0.0768,0.2302 -0.751,0.099 -0.34514,0.6905 0.42182,0.6134 -0.76694,0.114 -0.76694,0.114 z"
       id="path3009"
       style="fill:#999999;stroke:none" />
    <path
       d="m 270.21404,1043.2291 c 0.0409,0.1968 0.27338,0.071 0.17058,-0.1124 -0.10273,-0.1839 0.28428,-0.1874 0.3098,-0.064 0.0257,0.1229 -0.19917,0.6715 0.18012,0.2447 0.13962,-0.1573 -0.0356,-0.2749 0.34089,-0.123 0.32872,0.135 0.18475,0.4747 0.28871,0.147 0.10393,-0.3295 0.28591,-0.9058 0.32675,-0.709 0.0409,0.1966 0.13872,0.2531 0.15921,0.3516 0.0205,0.097 0.0598,0.5228 0.0616,0.1923 0.003,-0.7567 0.14472,-0.1335 0.2583,-0.105 0.11352,0.027 0.12942,-0.105 0.24296,-0.1787 0.11383,-0.075 0.3052,-0.2941 0.3718,-0.077 0.0667,0.217 -0.0312,0.1604 0.11863,0.053 0.14997,-0.108 0.0778,-0.247 0.25876,-0.3102 0.18079,-0.063 0.30052,-0.524 0.41796,0.041 0.11743,0.5656 0.1606,-0.2641 0.13902,0.1507 -0.0216,0.4149 0.24672,0.4616 0.19565,0.2158 -0.10738,-0.5168 0.0263,-0.2876 0.12493,-0.5389 0.0985,-0.2512 0.24787,-0.051 0.2836,0.1214 0.0358,0.172 0.0154,0.073 0.12388,-0.025 0.10858,-0.099 -0.0657,-0.6276 0.18124,-0.2686 0.24693,0.3592 0.0402,0.5047 0.28848,0.2479 0.2483,-0.2567 0.0262,-0.2876 0.0681,-0.3987 0.0415,-0.111 0.3451,0.313 0.29427,-0.034 0.18635,-0.6218 0.30817,0.2596 0.41774,0.1454 0.0879,-0.094 -0.021,0.108 0.0883,-0.3006 0.10933,-0.4074 0.006,-0.5911 0.19703,-0.3999 0.19055,0.1913 0.0715,0.3442 0.27826,0.1986 0.2068,-0.147 0.0219,-0.5174 0.25922,-0.5153 0.23741,0 0.22674,0.1581 0.34533,0.2103 0.11863,0.053 7.4e-4,-0.4105 0.20213,-0.3753 0.2012,0.035 -0.0517,0.062 0.25226,0.2809 0.30403,0.2191 -0.12252,-0.5899 0.37735,-0.2578 0.4999,0.3322 0.43328,0.114 0.43328,0.114 0,0 0.28176,0.9417 0.28802,0.4531 0.006,-0.4885 -0.066,-0.5249 10e-4,-0.6158 0.0673,-0.09 -0.14292,-0.6884 0.26316,0.023 0.40613,0.7107 0.3871,0 0.5006,0.024 0.11353,0.027 0.26828,0.047 0.35045,0.235 0.082,0.1879 -0.0168,0.5418 0.13872,0.2531 0.15549,-0.2888 0.23322,-0.4331 0.42375,-0.242 0.19054,0.1915 0.41636,0.76 0.24717,0.2566 -0.16918,-0.5035 0.30982,-0.064 -0.1794,-0.5527 -0.48921,-0.4881 -0.48389,-0.5661 -0.3342,-0.5716 0.14967,0 0.8299,0.4688 0.2221,-0.072 -0.60781,-0.5405 -0.70551,-0.6998 -0.70551,-0.6998 0,0 -0.13903,-0.1507 -0.1692,-0.5033 -0.03,-0.3527 0.36669,-0.1035 -0.0135,-0.5868 -0.38083,-0.4852 0.0543,-0.4942 -0.5767,-0.5984 -0.82549,-0.1365 -0.73106,-0.8227 -1.18614,-0.4203 -0.51531,0.4554 -0.66976,-0.5275 -0.94383,-0.2913 -0.27408,0.2364 -0.23278,0.228 -0.33094,0.274 -0.0981,0.045 -0.233,0.3305 -0.62427,-0.1005 -0.39127,-0.4317 -0.0609,-0.5003 -0.39127,-0.4317 -0.33049,0.069 0.006,-0.4883 -0.52196,0.2879 -0.52819,0.7764 -0.54744,0.165 -1.18772,0.2981 -0.64031,0.1335 -0.7236,0.4579 -0.99187,0.4111 -0.26828,-0.046 0.0421,-0.419 -0.51127,0.1335 -0.55349,0.5508 -0.62588,0.6173 -0.62588,0.6173 0,0 -0.34114,0.2248 -0.41866,0.2665 -0.0774,0.042 0.33626,-0.352 -0.52171,0.1852 -0.85796,0.5372 -0.98189,0.5628 -1.07006,0.7608 -0.0882,0.1979 0.0912,0.7504 -0.15223,1.1343 -0.24343,0.3839 -0.0459,-0.5072 -0.42908,0.3198 -0.56532,1.2201 -0.003,0.6507 -0.039,1.2647 -0.0429,0.7269 0.28314,0.3258 0.28314,0.3258 0,0 -0.31852,1.4193 0.13317,0.434 0.23988,-0.5232 0.56996,-0.9902 0.4449,-0.4515 -0.28497,1.2278 -0.19238,0.6299 -0.012,0.5666 0.18079,-0.063 0.62102,-0.7445 0.62102,-0.7445 -0.0621,0.015 -0.0372,0.4438 -0.0372,0.4438 z"
       id="path3011"
       style="fill:#999999;stroke:none" />
    <path
       d="m 256.2315,1052.5581 c -2.22677,-0.3544 -1.92311,-1.2653 -3.23891,-1.7714 -1.3158,-0.5062 -2.4798,0.3542 -3.28953,-0.5567 -0.80973,-0.9109 -1.21459,-5.2632 0.20244,-6.0225 1.41702,-0.759 7.5406,-4.1498 7.5406,-5.516 0,-1.3667 0.45547,-2.1762 1.16399,-2.5306 0.70851,-0.3542 1.67005,-1.7712 1.67005,-1.7712 l -0.96154,-0.3037 c 0,0 -1.56887,2.1255 -2.22677,2.1255 -0.65788,0 -2.27734,0.1519 -2.22674,-0.6072 0.0505,-0.759 0.40485,-1.822 0.40485,-1.822 l -0.80971,-0.051 c 0,0 -0.80974,1.0123 -0.60731,1.8727 0.20242,0.8602 1.16398,1.5686 1.8725,1.5181 0.70853,-0.051 0.80972,0.7593 0.55668,1.1641 -0.25303,0.4049 -2.93525,2.3279 -3.54255,2.7832 -0.6073,0.4556 -2.93528,1.7209 -3.28953,1.6197 -0.35428,-0.1005 -1.82189,-2.2269 -2.22676,-2.9859 -0.40486,-0.7591 -0.50609,-2.7329 0.25304,-3.3908 0.75912,-0.6579 1.46763,-2.2773 1.2146,-2.7836 -0.25306,-0.506 1.01216,-3.2894 1.01216,-3.2894 l -0.96156,-0.1519 c 0,0 -0.30366,1.7716 -0.96156,1.8727 -0.65789,0.1004 -1.72068,-0.253 -2.17614,-0.2025 -0.45547,0.051 0,-1.5688 0,-1.5688 l -0.80973,0 c 0,0 0.0505,1.3158 -0.30365,1.4677 -0.35426,0.1516 -0.6579,-0.102 -1.2146,-0.2531 -0.55667,-0.1518 -0.7085,-1.5185 -0.7085,-1.5185 l -0.91096,-0.3035 c 0,0 0.0505,1.2146 0.30367,1.5183 0.25301,0.3037 0.86031,0.9616 1.46761,1.1133 0.6073,0.152 2.17616,0.2532 2.581,0.3543 0.40491,0.102 1.36645,0.3037 1.36645,0.7591 0,0.4555 -0.86034,1.7208 -1.31583,2.5305 -0.45546,0.8096 -0.0505,2.3281 -0.45546,2.4292 -0.40487,0.1004 -5.5669,-1.1641 -5.97175,-2.0243 -0.40488,-0.8604 -1.01218,-2.6822 -0.65792,-2.9861 0.35427,-0.3035 1.31582,-1.1637 1.31582,-1.5686 0,-0.405 -0.25305,-1.4678 -0.25305,-1.4678 l -1.06277,-0.051 c 0,0 0.55672,1.7208 0.15181,1.9232 -0.40484,0.2023 -1.16398,1.3157 -1.67004,1.012 -0.50608,-0.3037 -1.8725,-0.6072 -1.97373,-1.012 -0.10123,-0.4049 0.50607,-1.8221 0.50607,-1.8221 l -0.80971,-0.1518 c 0,0 -0.96157,1.569 -0.70851,2.075 0.25304,0.5061 1.21458,1.2146 1.72068,1.4171 0.50606,0.2024 1.36642,0.3035 1.51823,0.5566 0.15181,0.2532 0.20243,2.0243 0.75913,2.7835 0.55669,0.7591 3.03647,1.8219 4.04866,2.0749 1.01214,0.253 2.32797,0.1005 2.63161,0.7592 0.30364,0.6578 1.51823,2.9352 1.67007,3.3906 0.15182,0.4555 -0.80976,2.0243 -0.80976,2.8342 0,0.8096 0.30366,3.1883 0.30366,3.6438 0,0.4554 -2.12553,3.0364 -2.12553,3.0364 l 1.72067,0 1.01216,-1.3158 -0.45545,1.2146 2.47978,0 c 0,0 0.30366,-1.0122 0.91096,-1.2652 0.35576,-0.1485 1.27517,-0.1455 1.97371,-0.051 1.42942,0.1933 1.86962,0.5999 2.27736,0.9616 0.46202,0.41 1.16398,0.3543 1.16398,0.3543 z"
       id="path3013"
       style="fill:#b3b3b3;stroke:none" />
    <path
       d="m 261.95022,1035.0983 c -0.55669,0.6579 -1.06279,0.6072 -1.01215,-0.1005 -0.60731,-0.8604 -0.15185,-0.5569 -0.40488,0 -0.25305,0.5567 -0.35427,1.1639 -0.65792,1.3158 -0.30362,0.1519 -0.80973,0.8097 -0.75911,0 0.0505,-0.8097 0.50609,-1.0121 0.15183,-1.3664 -0.35426,-0.3542 -0.25305,-0.5063 -0.6073,-0.4557 -0.35427,0.051 -0.45547,0.2026 -0.6579,0.3545 -0.20246,0.1518 -0.5567,0.6579 -0.65792,0.253 -0.10108,-0.4049 0,-0.9111 -0.20243,-0.8605 -0.20242,0.051 -0.75912,1.063 -0.75912,1.063 l -0.86033,-0.506 c 0,0 0.40485,-0.6076 0.15181,-0.6581 -0.25301,-0.051 -0.70851,-0.3544 -1.06277,0.3541 -0.35424,0.7087 -0.25303,1.063 -0.6073,1.0124 -0.35424,-0.051 -0.6579,0.2023 -0.6579,-0.1519 0,-0.3542 0,-0.4048 -0.0505,-0.7085 -0.0505,-0.3038 -0.35424,-0.9616 -0.7085,-0.658 -0.35426,0.3037 -0.20243,0.102 -0.50608,0.4554 -0.30363,0.3546 -0.10108,0.6076 -0.6579,0.3546 -0.5567,-0.253 -0.0505,0.051 -0.5567,-0.253 -0.50608,-0.304 -0.91093,-0.557 -0.6579,-0.9112 0.25305,-0.3543 0.0505,-0.3036 0.50608,-0.5566 0.45547,-0.253 0.75913,-0.2024 0.75913,-0.6579 0,-0.4554 -0.40486,-0.3037 0,-1.2146 0.40486,-0.9111 -0.50609,-0.8098 0.50609,-1.1641 1.01217,-0.3542 0.55668,-0.4554 1.31578,-0.4554 0.75914,0 0.65792,-1.1132 1.41704,-0.1518 0.75915,0.9615 0.70853,1.7713 0.75915,0.9615 0.0505,-0.8097 -0.40489,-1.1639 0.1518,-1.3159 0.5567,-0.1517 -0.30366,-0.3035 0.80973,-0.2024 1.11338,0.102 0.6579,-0.1005 1.51825,0.1519 0.86033,0.253 1.72067,0.3542 1.72067,0.3542 0,0 0.50608,0.051 0.86033,-0.1004 0.35426,-0.152 -0.40487,-0.152 0.40489,-0.152 0.80973,0 0.20241,-0.86 1.01214,0.152 0.80974,1.0121 0.50609,1.0626 0.96156,1.2651 0.45547,0.2025 0.30364,0 1.01216,0.3544 0.70851,0.3542 1.41702,0.2023 1.06277,0.8098 -0.35426,0.6071 -0.25303,1.4169 -0.6073,1.5687 -0.35426,0.1519 -1.06277,0 -0.80972,0.5567 0.25303,0.5567 0.96155,0.253 0.6579,0.8603 -0.30365,0.6074 0,0.8604 -0.50607,0.658 -0.5061,-0.2024 -0.65791,-0.3541 -0.86034,-0.7085 -0.20244,-0.3544 -0.75913,-1.4677 -0.50609,-0.7593 0.25303,0.7088 0.25303,1.0123 0.40487,1.316 0.15182,0.3037 0.10108,1.3664 -0.15184,1.0121 -0.25303,-0.3544 -0.6579,-1.1133 -0.6579,-1.1133 z"
       id="path3015"
       style="fill:#999999;stroke:none" />
    <path
       d="m 247.37509,1030.5434 c -0.45549,0.5568 -0.40487,1.5183 -0.45549,0.3544 -0.0505,-1.1639 -0.35426,-2.1761 -0.50605,-1.2146 -0.15185,0.9614 0,0.9107 -0.20246,1.0121 -0.20245,0.1005 -0.0505,1.1641 -0.40486,0.1516 -0.35426,-1.012 -0.25303,-0.4553 -0.40486,-0.253 -0.15184,0.2025 -0.10123,0.3039 -0.35425,0.253 -0.25305,-0.051 -0.25305,0.304 -0.6073,-0.1004 -0.35426,-0.405 -0.25305,-0.4555 -0.65792,-0.658 -0.40485,-0.2024 -0.5567,-0.8602 -0.6579,-0.2024 -0.10123,0.6579 -0.15183,0.7591 -0.15183,0.7591 0,0 0.20243,-1.3663 -0.15183,-0.6577 -0.35424,0.7084 0.15183,1.4676 -0.55668,0.8095 -0.70852,-0.6578 -0.45546,-1.3157 -0.75913,-0.7085 -0.30364,0.6074 -0.35424,0.7085 -0.35424,0.7085 0,0 -0.15183,-0.5565 -0.35427,-0.3541 -0.20242,0.2023 -0.0505,0.1516 -0.25302,0.4555 -0.20244,0.3037 -0.10138,-0.1519 -0.40488,0.3037 -0.30366,0.4554 0.15183,1.0121 -0.50607,0.3542 -0.65792,-0.6579 -0.10108,-0.5569 -0.65792,-0.6579 -0.55668,-0.1005 -0.55668,-0.7085 -0.75911,-0.1005 -0.20245,0.6075 -0.20245,0.253 -0.30366,0.7593 -0.10123,0.506 0,2.0748 -0.40486,0.5567 -0.40487,-1.5185 0.0505,-2.9352 -0.40487,-1.569 -0.45547,1.3665 -0.45547,0.1005 -0.75911,0.5567 -0.30365,0.4556 -0.35428,1.063 -0.60729,0.6075 -0.25306,-0.4556 0,-0.8607 -0.45548,-0.7593 -0.45549,0.1005 -0.70852,-0.3037 -0.86033,0 -0.15186,0.3037 -0.20246,-0.4049 -0.6073,0.1005 -0.40487,0.5061 -0.15183,-0.4049 -0.50607,0.5061 -0.35428,0.9109 -0.35428,0.8097 -0.40489,1.1639 -0.0505,0.3544 0.30366,0.911 -0.35426,1.0122 -0.6579,0.1005 -0.35426,0 -0.6579,0.1005 -0.30364,0.1004 -0.50607,-0.6073 -0.55667,0.1004 -0.0505,0.7087 -1.46766,1.3666 -0.30367,-0.5566 1.16398,-1.9231 1.92311,-2.7836 1.36641,-2.0749 -0.5567,0.7085 -0.7085,0.658 -1.06274,1.1134 -0.35427,0.4555 -0.5061,0.9109 -0.55671,0.6579 -0.0505,-0.253 0.0505,-0.5568 0.25304,-1.6195 -0.45157,0.2932 -0.002,0.4324 -0.5567,0.1519 -0.25303,-0.1519 0.0505,-0.6579 0.45549,-1.569 0.40488,-0.911 -0.91095,0 0.35427,-1.0626 1.26518,-1.0629 0.80971,-0.4555 1.26518,-1.0629 0.45547,-0.6073 -0.35426,-0.1004 0.86035,-0.9617 1.21458,-0.8601 0.50608,-1.2652 1.46761,-1.0625 0.96159,0.2024 1.6701,1.0625 1.8219,0 0.15184,-1.0627 0.15184,-1.3157 0.15184,-1.3157 1.31582,1.012 0.25303,0.7084 2.27734,0.6576 2.02435,-0.051 0.50609,-0.759 2.07495,-0.051 1.56886,0.7086 0,0.4555 2.32797,0.7086 2.32797,0.253 1.92311,0.1518 2.88467,-0.2026 0.96156,-0.3541 1.11339,-0.4048 1.11339,-0.4048 0,0 1.16397,-0.8097 1.82187,-0.3542 0.65791,0.4555 0.15183,-0.2025 1.164,0.4555 1.01215,0.6579 1.11337,0.6579 1.46763,0.6579 0.35425,0 0.70851,-0.6579 0.70851,0.2023 0,0.8604 -0.15183,0.5063 0,1.1639 0.15181,0.6582 1.06277,0.1005 0.15181,0.8101 -0.91094,0.7082 -2.07492,0 -1.77127,0.5566 0.30365,0.5565 0.50607,1.164 0.50607,1.164 0,0 0.40488,1.1132 -0.30364,0.3541 -0.7085,-0.7591 -0.96156,-1.6701 -0.80973,-0.9109 0.15183,0.759 0.10123,1.012 0.10123,1.012 l -0.65791,-0.9613 c 0,0 0.65791,0.8602 0,1.1637 -0.6579,0.3039 -0.5567,0.4051 -0.80975,0.253 -0.25302,-0.1516 0,-0.4554 -0.30364,-0.2023 -0.30364,0.2532 0.20243,1.1135 -0.35426,0.3039 -0.55668,-0.81 -0.50607,-1.7208 -0.80971,-0.9616 -0.30366,0.759 0.25303,1.7207 0.0505,1.4676 -0.20243,-0.253 -0.30364,-0.9111 -0.30364,-0.9111 z"
       id="path3017"
       style="fill:#999999;stroke:none" />
    <path
       d="m 193.12025,1052.6664 c 2.55585,-0.5324 2.66235,-0.7454 2.87535,-2.4493 0.21298,-1.704 0.74546,-6.2831 0.10662,-7.3482 -0.63898,-1.0649 -3.7273,-1.5975 -5.21823,-3.3013 -1.49092,-1.7038 -1.91689,-6.0701 -1.91689,-6.0701 l 1.49091,0.108 c 0,0 0.42598,3.7271 1.59742,4.4728 1.17145,0.7453 4.04679,3.0883 4.79225,2.8752 0.74546,-0.213 1.17144,-3.6209 1.81038,-3.9403 0.63899,-0.3194 2.34289,-0.7453 2.98185,-2.1298 0.63896,-1.3844 -0.53248,-2.2364 -0.53248,-2.2364 l 1.49093,-0.2128 c 0,0 0.42599,1.1713 0.3195,2.0232 -0.10663,0.852 0.74545,0.5326 1.38441,0.213 0.63897,-0.3194 0.63897,-2.13 0.63897,-2.13 l 1.27793,-0.3193 c 0,0 0.21299,1.2779 -0.42597,2.1299 -0.63897,0.8519 -1.60219,1.833 -2.66237,1.5974 -0.47921,-0.1079 -1.10485,0.6124 -1.86364,1.1381 -0.75877,0.526 -1.65066,0.8586 -1.81041,1.2578 -0.37312,0.9328 -0.58572,2.5029 -0.58572,3.7808 0,0.9818 -0.213,2.0233 -0.213,4.2597 0,2.2363 -0.10648,4.0468 0,4.7923 0.10663,0.7454 2.2364,1.4908 2.2364,1.4908 z"
       id="path3035"
       style="fill:#b3b3b3;stroke:none" />
    <path
       d="m 185.5059,1033.8169 c -0.42597,1.3313 0.74545,1.9169 1.22469,0.7457 0.47921,-1.1717 0.63896,-1.2248 0.37273,-0.373 -0.26624,0.8521 0.6922,-0.6389 1.06494,-0.2661 0.37273,0.3727 0.63895,0.6391 0.63895,0.6391 l 1.54419,0.5856 c 0,0 -0.15975,0.053 0.42597,-0.7455 0.58571,-0.7987 1.8104,-0.5858 1.8104,-0.5858 0,0 0.58571,0.9586 1.11819,0.5326 0.53246,-0.426 1.27793,-1.5975 1.43768,-1.2247 0.15973,0.3727 1.17142,1.1182 1.17142,1.1182 0,0 0.95845,0.5856 0.95845,0.1597 0,-0.4259 0.15975,-0.9052 0.15975,-0.9052 l 1.27793,0.426 c 0,0 1.06495,-1.3845 1.17144,-1.065 0.10663,0.3194 0.0532,1.491 0.53247,1.3845 0.47922,-0.108 0,0.053 0.95845,-0.3195 0.95844,-0.3728 0.47921,-0.9586 1.49092,-0.4793 1.01169,0.4793 0.69221,-0.4793 1.54417,0 0.85195,0.4793 0.53247,-1.2246 1.27793,-0.2663 0.74546,0.9586 0.85195,0 0.95844,1.3847 0.10663,1.3843 -0.37272,2.7685 0.10663,1.5973 0.47923,-1.1714 0.53248,-1.8637 0.53248,-1.8637 l 0,-0.9053 1.06493,1.1717 1.33119,0.9581 -1.2247,-2.1298 1.33118,0.9586 c 0,0 -0.31945,-1.1716 -0.37271,-1.2781 -0.0532,-0.1065 0.31948,0.108 0.63895,0.3195 0.31949,0.2131 0.74546,0.7456 1.01172,0.639 0.26622,-0.1065 1.11818,0.053 0.26622,-0.7988 -0.85196,-0.8518 -0.47924,0 -1.06494,-1.2246 -0.58572,-1.2245 -0.85195,-1.7572 -0.90522,-2.5024 -0.0531,-0.7456 0.85198,1.2779 1.06495,1.5973 0.213,0.3193 1.33119,0.7454 1.33119,0.7454 0,0 0.47922,-0.9585 0,-1.5975 -0.47923,-0.6389 -1.01171,-2.3427 -1.38443,-2.5025 -0.37273,-0.1597 -0.90518,0.3196 -2.23637,-0.4792 -1.3312,-0.7987 -0.63899,-1.1715 -1.91691,-1.0649 -1.27793,0.1065 -1.9169,0.3194 -3.24807,0 -1.33119,-0.3196 -0.63898,-0.9052 -2.98185,-0.5326 -2.34287,0.3727 -0.47923,0.3195 -2.50262,0.3727 -2.02339,0.053 -1.38441,-0.1065 -2.66234,0.053 -1.27793,0.1597 -1.06494,0.4262 -2.44937,0.4262 -1.38442,0 0.0532,-0.7989 -1.97016,0 -2.02338,0.7986 -0.74545,1.0116 -2.82209,1.0648 -2.07664,0.053 -1.70392,-1.1714 -2.66236,0.053 -0.95843,1.2248 -0.63897,0.639 -1.11818,1.7041 -0.47923,1.0648 -1.17144,1.4376 -1.49092,2.2896 -0.31949,0.8519 -1.06496,1.5441 -0.58573,1.8635 0.47924,0.3196 -0.9052,1.1715 1.33118,0.108 2.23637,-1.065 3.19482,-2.0236 2.66237,-1.3846 -0.53249,0.6389 -1.38442,1.3846 -1.65068,1.6508 -0.26622,0.2662 -0.47922,0.8518 0.10663,0.4791 0.58572,-0.3725 2.07662,-1.5442 2.07662,-1.5442 z"
       id="path3037"
       style="fill:#999999;stroke:none" />
    <path
       d="m 148.61324,1029.2846 c 0,0.7807 0.81657,-2.0037 0.55635,-0.2687 -0.26021,1.7345 -0.51399,2.8524 0.4101,1.0422 1.03994,-2.037 0.71748,0.5188 1.06443,0 0.34695,-0.5205 0.60717,-2.6019 0.52042,-0.8674 -0.0867,1.7347 0.19979,1.5543 0.37326,0.9472 0.17347,-0.6072 0.54428,-1.7524 0.57125,-0.6657 0.0297,1.1993 0.26981,0.6728 0.53004,0.5859 0.26019,-0.087 1.12406,0.8372 1.04173,-0.3774 -0.0622,-0.9178 2.52063,-0.8148 2.42338,0.2102 -0.15759,2.1326 0.76748,-0.1319 1.01018,-0.033 1.21431,0.5206 0.29522,0.8939 0.81563,0.9805 0.52044,0.087 0.1735,-1.9082 0.60717,-0.1733 0.43371,1.7347 0.0255,0.2479 0.37237,0.8549 0.34694,0.6071 0.19271,0.834 0.27944,-0.2068 0.0867,-1.0409 1.60335,2.3875 0.9962,0.8264 -0.60715,-1.5614 -0.78064,-1.3878 -0.60715,-1.7347 0.17347,-0.3471 0,-2.3419 0.52042,-0.3471 0.52042,1.9949 0.78062,2.1686 1.12759,1.6481 0.34694,-0.5206 0,-2.1686 0.34694,-0.6938 0.34692,1.4743 1.04083,-1.648 1.3878,-0.4339 0.34692,1.2145 0.38714,0.8373 0.55634,0.5345 0.53093,-0.9506 0.31102,0.5065 0.91818,1.1137 0,0 0.35747,-1.8355 0.61767,-1.4886 0.26024,0.3469 0.80517,1.2782 0.80517,1.2782 0,0 -0.0351,-1.7846 0.31192,-1.698 0.34692,0.087 0.69389,2.4156 0.69824,1.1329 0.85685,0.7256 0.1819,-0.2333 0.55019,-0.4013 0.22861,-0.1035 1.82147,1.2774 1.12757,0.3233 -0.69389,-0.9541 0.91654,-0.1567 0.11923,-1.1469 -0.54406,-0.6755 0.10693,-2.4232 0.10693,-2.4232 0,0 0.42227,-0.1535 -0.70531,-0.8472 -1.12759,-0.6941 -0.0753,-0.4538 -0.94269,-0.9744 -0.86736,-0.5204 -0.60716,-0.607 -1.30104,-0.9541 -0.69389,-0.347 -0.66849,0.241 -1.18891,0.241 -0.52042,0 -2.36731,-2.2359 -3.66837,-0.241 -1.30105,1.9949 -0.85685,0.09 -1.29053,-0.1699 -0.43368,-0.2602 -1.13811,0.4301 -1.13811,0.4301 0,0 -0.17346,-0.9541 -1.21429,-0.8674 -1.04087,0.087 -1.47454,0.1737 -1.82149,0.3469 -0.34696,0.1736 0.60716,0.8674 -0.52041,0.2603 -1.12759,-0.6072 -0.79553,-0.2339 -1.22922,-0.3205 -0.43368,-0.087 0.54584,-0.9595 -1.27564,-0.2656 -1.82148,0.6938 -1.31159,0.4128 -2.78611,0.3258 -1.47454,-0.087 -1.58578,0.4454 -2.1062,0.5319 -0.52042,0.087 -1.17839,-0.1838 -1.17839,1.1171 0,1.3012 0.91473,0.9471 0.33733,1.7278 -0.46707,0.6313 -0.60461,1.0312 0.17603,0.5108 0.78063,-0.5205 0.601,-1.4031 0.80694,-0.8252 0.30576,0.8575 0.0156,1.7387 0.22954,1.3612 0.88932,-1.5682 0.65795,0.094 0.65795,0.094 z"
       id="path3069"
       style="fill:#999999;stroke:none" />
    <path
       d="m 209.09371,1052.3207 c 2.16842,-0.6071 1.99496,-1.5614 1.64799,-2.1686 -0.34692,-0.6071 -5.37768,-1.9082 -5.37768,-1.9082 l 0.52042,-1.3011 c 0,0 3.64296,2.0817 5.29096,1.9083 1.64799,-0.1735 1.21431,-2.1685 1.21431,-2.1685 l -0.43368,-2.1683 0.86736,0.1734 c 0,0 0.60717,1.3011 0.60717,2.5154 0,1.2145 -1.30104,1.7347 -0.69389,2.1683 0.60716,0.4338 2.16842,-0.8673 2.86231,-0.9538 0.69389,-0.087 1.56128,-0.5206 1.38778,-1.3013 -0.17347,-0.7806 -0.43366,-1.9081 -0.43366,-1.9081 l 1.12757,0.3469 c 0,0 -0.26021,1.648 0.52042,2.0817 0.78062,0.4337 2.34191,0.6938 2.34191,0.6938 l 0.17347,0.8675 c 0,0 -2.51538,-1.1276 -3.38275,-0.8675 -0.86736,0.2602 -3.72969,1.2144 -4.07664,1.6481 -0.34696,0.4337 -0.26022,1.9949 1.30105,2.342"
       id="path3075"
       style="fill:#b3b3b3;stroke:none" />
    <path
       d="m 203.41883,1049.5606 c 0.24533,0.4601 0.61334,0.03 0.91998,0.3373 0.30666,0.3068 0.61333,-0.03 0.52133,0.3988 -0.0919,0.4292 0.49067,0.184 0.276,-0.4907 -0.21467,-0.6746 -0.76666,-1.196 -0.0615,-1.0426 0.70532,0.1531 0.85865,0.123 0.98134,0.1838 0.12268,0.062 0.4293,0.091 0.33731,-0.7358 -0.0919,-0.828 -0.39865,-0.3988 -0.15333,-0.92 0.24532,-0.5214 -0.0919,-0.8893 0.39865,-0.4908 0.49067,0.3988 0.184,-0.2758 0.61333,-0.5825 0.42933,-0.3067 0.82799,0.062 0.95065,-0.1534 0.12268,-0.2146 -0.61332,-1.2573 0.27601,-0.7359 0.88931,0.5213 0.33731,1.2264 1.04264,0.4292 0.70532,-0.7972 0.27599,-1.2267 0.76665,-0.7972 0.49065,0.4293 0.39866,0.1229 0.49065,0.5213 0.0919,0.3986 0.0306,-1.2881 0.33733,-0.46 0.30667,0.828 0,0.184 0.46,0.7052 0.45998,0.5214 0.24532,0.5214 0.61331,0.2453 0.36801,-0.2758 -0.2648,-1.7486 0.644,-0.7053 0.82799,0.9508 1.28798,-0.7665 1.25731,-0.03 -0.0306,0.7359 -0.0919,0.3679 -0.0306,0.7359 0.0615,0.368 0.44417,-1.5835 0.82799,0.062 0.21467,0.9199 0.22273,-0.7422 0.58265,-0.644 0.67466,0.184 0.98132,1.2266 1.07332,0.3986 0.0919,-0.8279 0.0306,-0.368 0.49066,0 0.45998,0.3681 -0.368,0.4294 0.73599,0.5213 1.10398,0.091 2.39196,-0.8587 1.59463,0 -0.79732,0.8586 -2.14664,0.9201 -0.85866,0.8894 1.288,-0.03 1.65599,-0.46 1.44132,-0.062 -0.21466,0.3986 -0.0919,0.184 -0.21466,0.4293 -0.12268,0.2452 -0.45999,-0.552 -0.21467,0.3681 0.24534,0.9199 0.21467,0.9199 0.24534,1.196 0.0306,0.2758 -0.42935,0.03 0.12267,0.6132 0.55199,0.5828 0.49066,0.3373 0.58265,0.7666 0.0919,0.4294 -0.30664,0.8895 0.36801,0.6747 0.67463,-0.2147 0.33732,-0.2761 0.85865,-0.1532 0.52132,0.1229 0.24533,0.3373 0.58266,0.1532 0.33731,-0.1841 -0.49066,-0.3681 0.42931,-0.2453 0.91999,0.123 0.98131,1.2266 1.22664,-0.2148 0.24535,-1.4412 0.67467,-1.2879 0.52134,-1.9932 -0.15334,-0.7053 0.24532,-0.368 -0.12267,-1.2879 -0.36798,-0.92 -0.0615,-0.5827 -0.79731,-1.196 -0.73599,-0.6134 0.30664,0.03 -0.98133,-1.2266 -1.28798,-1.2574 0.552,0.184 -1.44131,-1.4108 -1.9933,-1.5948 -1.31863,-1.6867 -2.02396,-1.5948 -0.70531,0.091 -0.61332,-0.4599 -1.28798,-0.5825 -0.67466,-0.1229 -0.12268,-0.6132 -0.95064,-0.4293 -0.828,0.1838 -0.15333,-1.472 -1.16532,-0.7052 -1.01197,0.7665 0.276,0.46 -1.31865,0.091 -1.59463,-0.3682 -0.39865,-0.2762 -1.7173,-0.3682 -1.31863,-0.091 0.21467,-0.6438 -1.37997,-0.091 -1.59464,0.552 -0.30666,0.6747 -1.59464,0.552 -1.28798,-0.1245 -1.25731,0.03 -1.77865,-0.2148 -0.52131,-0.2453 -0.35067,-1.6061 -2.82128,0.062 -1.22666,0.828 -0.12267,0.6746 -0.79731,1.2574 -1.23793,1.0689 -0.58267,0 -1.56398,0.6745 -0.98133,0.6747 -1.01198,0.4601 -1.25731,1.1347 -0.24532,0.6746 -0.33733,0.3373 -0.33733,1.012 0,0.6747 0,0.92 0,1.2573 0,0.3373 -0.55199,0.091 0.0306,1.656 0.58265,1.564 0.39867,0.2453 0.52131,0.7974 0.12268,0.552 0.12268,0.7359 0.24535,0.8278 0.12268,0.091 1.37997,-1.0118 1.3493,-0.5826 -0.0306,0.4292 0.15333,1.196 0.15333,1.196 z"
       id="path3077"
       style="fill:#999999;stroke:none" />
    <path
       d="m 70.742697,1052.5525 c -3.496129,-0.9789 -3.216433,-2.5173 -2.657062,-3.4963 0.559386,-0.9787 8.670418,-3.0764 8.670418,-3.0764 l -0.839064,-2.0978 c 0,0 -5.873519,3.3563 -8.530581,3.0766 -2.657057,-0.2797 -1.957832,-3.4962 -1.957832,-3.4962 l 0.699225,-3.4961 -1.39845,0.2797 c 0,0 -0.978917,2.0978 -0.978917,4.0555 0,1.9576 2.097673,2.7969 1.118755,3.4962 -0.978916,0.6993 -3.496123,-1.3983 -4.614893,-1.5386 -1.118758,-0.1409 -2.51722,-0.8387 -2.237529,-2.0976 0.279692,-1.2584 0.699227,-3.0764 0.699227,-3.0764 l -1.817982,0.5593 c 0,0 0.419531,2.6571 -0.839081,3.3565 -1.258607,0.699 -3.775827,1.1186 -3.775827,1.1186 l -0.279693,1.3983 c 0,0 4.05552,-1.8179 5.453971,-1.3983 1.398464,0.4196 6.013358,1.958 6.572743,2.6569 0.559385,0.6996 0.419533,3.2168 -2.097687,3.7761"
       id="path3079"
       style="fill:#b3b3b3;stroke:none" />
    <path
       d="m 79.950218,1047.8706 c -0.39554,0.7416 -0.988862,0.05 -1.483288,0.5441 -0.494419,0.4943 -0.988848,-0.05 -0.840524,0.6426 0.148334,0.6923 -0.791088,0.2968 -0.444983,-0.7909 0.346096,-1.0879 1.23607,-1.9285 0.09889,-1.6812 -1.137183,0.2473 -1.384401,0.1977 -1.582175,0.2968 -0.197766,0.099 -0.692193,0.15 -0.543861,-1.1867 0.148319,-1.3349 0.642746,-0.6428 0.247207,-1.4833 -0.395539,-0.8405 0.148335,-1.4337 -0.642748,-0.791 -0.791096,0.6427 -0.296662,-0.4451 -0.988864,-0.9395 -0.692199,-0.4945 -1.334949,0.099 -1.532724,-0.2473 -0.197772,-0.3458 0.988853,-2.027 -0.444991,-1.1866 -1.433837,0.8408 -0.543869,1.9777 -1.681048,0.6923 -1.137192,-1.2856 -0.44499,-1.9778 -1.23607,-1.2856 -0.79109,0.6922 -0.642763,0.1979 -0.79109,0.8405 -0.148335,0.6427 -0.04945,-2.0765 -0.543868,-0.7416 -0.49443,1.3352 0,0.2965 -0.741644,1.1373 -0.741641,0.8405 -0.395539,0.8405 -0.988856,0.3954 -0.593314,-0.4448 0.42695,-2.8195 -1.0383,-1.1371 -1.33495,1.5327 -2.0766,-1.2362 -2.027152,-0.049 0.04944,1.1864 0.148334,0.5933 0.04944,1.1864 -0.09889,0.5933 -0.716123,-2.5531 -1.334955,0.099 -0.346101,1.4833 -0.359109,-1.1965 -0.93941,-1.0382 -1.087743,0.2967 -1.582171,1.9777 -1.730499,0.6429 -0.148335,-1.3351 -0.04944,-0.5935 -0.791087,0 -0.741643,0.5931 0.593312,0.6921 -1.18663,0.8402 -1.779939,0.15 -3.856536,-1.3843 -2.57102,0 1.28551,1.3846 3.460994,1.4835 1.384395,1.4339 -2.076599,-0.05 -2.669911,-0.7416 -2.323811,-0.099 0.3461,0.6429 0.148334,0.2968 0.3461,0.6924 0.197769,0.3955 0.741641,-0.89 0.346101,0.593 -0.395549,1.4835 -0.346101,1.4835 -0.395549,1.9286 -0.04944,0.4448 0.692204,0.048 -0.197767,0.9889 -0.889974,0.9393 -0.791086,0.5438 -0.939414,1.2361 -0.148335,0.6921 0.494429,1.4335 -0.593316,1.0875 -1.087741,-0.3461 -0.543867,-0.4448 -1.384395,-0.2473 -0.840529,0.1978 -0.395544,0.5441 -0.939417,0.2473 -0.543868,-0.2966 0.791088,-0.5932 -0.692195,-0.3954 -1.483284,0.1978 -1.582172,1.9776 -1.977712,-0.3462 -0.395547,-2.3239 -1.087743,-2.0767 -0.84053,-3.2138 0.247217,-1.1372 -0.395546,-0.5933 0.197768,-2.0766 0.593317,-1.4832 0.09889,-0.9393 1.285516,-1.9282 1.186626,-0.9889 -0.494427,0.05 1.582172,-1.9776 2.076597,-2.0273 -0.889977,0.2963 2.323812,-2.2746 3.213782,-2.5709 2.126038,-2.7192 3.263223,-2.5709 1.137183,0.1499 0.988854,-0.7415 2.076597,-0.9394 1.087743,-0.1978 0.197775,-0.9888 1.532732,-0.6921 1.334952,0.2966 0.247213,-2.3735 1.878825,-1.1373 1.631611,1.2359 -0.44499,0.7418 2.126038,0.15 2.571028,-0.5933 0.642758,-0.4451 2.7688,-0.5933 2.126041,-0.1499 -0.346099,-1.0384 2.224926,-0.1499 2.571026,0.89 0.494429,1.0877 2.571026,0.89 2.076602,-0.1978 2.027151,0.048 2.867684,-0.3462 0.84053,-0.3954 0.565392,-2.5899 4.548734,0.099 1.977717,1.3352 0.197773,1.0879 1.285524,2.0273 1.995893,1.7236 0.939402,0 2.52158,1.0874 1.582165,1.0879 1.631603,0.7421 2.027151,1.8297 0.39554,1.0878 0.54387,0.5438 0.54387,1.6315 0,1.0879 0,1.4833 0,2.0274 0,0.5438 0.889974,0.15 -0.04947,2.6698 -0.939418,2.5214 -0.642764,0.3956 -0.84053,1.2855 -0.197774,0.8899 -0.197774,1.1866 -0.39554,1.335 -0.197775,0.15 -2.224941,-1.6318 -2.175489,-0.9395 0.04946,0.6922 -0.24722,1.9281 -0.24722,1.9281 z"
       id="path3081"
       style="fill:#999999;stroke:none" />
    <path
       d="m 110.70277,1052.6675 c 0.74007,-0.3145 0.68087,-0.8084 0.56245,-1.1229 -0.11841,-0.3144 -1.83535,-0.9882 -1.83535,-0.9882 l 0.17761,-0.6738 c 0,0 1.24331,1.0781 1.80576,0.9883 0.56245,-0.09 0.41443,-1.123 0.41443,-1.123 l -0.14801,-1.1229 0.29603,0.09 c 0,0 0.20721,0.6737 0.20721,1.3027 0,0.6286 -0.44403,0.8983 -0.23682,1.1228 0.20722,0.2245 0.74006,-0.4493 0.97689,-0.4942 0.23682,-0.045 0.53284,-0.2694 0.47364,-0.6738 -0.0592,-0.4041 -0.14802,-0.9881 -0.14802,-0.9881 l 0.38483,0.1797 c 0,0 -0.0888,0.8536 0.17762,1.0779 0.26642,0.2247 0.79927,0.3594 0.79927,0.3594 l 0.0592,0.4491 c 0,0 -0.85847,-0.5838 -1.1545,-0.4491 -0.29602,0.1364 -1.27291,0.6289 -1.39132,0.8534 -0.11841,0.2247 -0.0888,1.033 0.44404,1.2128"
       id="path3087"
       style="fill:#b3b3b3;stroke:none" />
    <path
       d="m 108.76599,1051.2383 c 0.0837,0.2382 0.20933,0.015 0.31399,0.1744 0.10466,0.159 0.20932,-0.017 0.17792,0.2065 -0.0314,0.2225 0.16745,0.094 0.0942,-0.254 -0.0733,-0.3493 -0.26166,-0.6194 -0.0209,-0.5397 0.24071,0.079 0.29305,0.063 0.33492,0.094 0.0418,0.031 0.14652,0.046 0.11513,-0.3812 -0.0314,-0.4286 -0.13607,-0.2065 -0.0523,-0.4764 0.0837,-0.2698 -0.0314,-0.4606 0.13607,-0.2539 0.16745,0.2063 0.0628,-0.144 0.20932,-0.3019 0.14652,-0.1587 0.28258,0.032 0.32445,-0.08 0.0418,-0.111 -0.20933,-0.6512 0.0942,-0.3812 0.30351,0.2699 0.11513,0.6352 0.35584,0.2224 0.24072,-0.4129 0.0942,-0.6351 0.26165,-0.4129 0.16746,0.2224 0.13607,0.063 0.16746,0.2701 0.0314,0.2064 0.0105,-0.6672 0.11513,-0.2383 0.10468,0.4286 0,0.095 0.15699,0.3652 0.15699,0.2699 0.0837,0.2699 0.20932,0.1275 0.1256,-0.144 -0.0904,-0.9057 0.21979,-0.3654 0.28259,0.4922 0.43957,-0.3971 0.42911,-0.015 -0.0105,0.3814 -0.0314,0.1906 -0.0105,0.3814 0.0209,0.1905 0.15159,-0.8202 0.28257,0.032 0.0733,0.4766 0.076,-0.3842 0.19886,-0.3332 0.23026,0.095 0.33492,0.6349 0.36631,0.2063 0.0314,-0.4289 0.0105,-0.1906 0.16746,0 0.15699,0.1906 -0.1256,0.2223 0.25119,0.27 0.37677,0.048 0.81636,-0.4447 0.54423,0 -0.27211,0.4446 -0.73262,0.4763 -0.29304,0.4605 0.43957,-0.017 0.56517,-0.2383 0.4919,-0.032 -0.0733,0.2065 -0.0314,0.094 -0.0733,0.2224 -0.0418,0.126 -0.15699,-0.286 -0.0733,0.1905 0.0837,0.4766 0.0733,0.4766 0.0837,0.6194 0.0105,0.1439 -0.14652,0.015 0.0418,0.3176 0.18839,0.3017 0.16745,0.1749 0.19886,0.397 0.0313,0.2224 -0.10467,0.4605 0.12559,0.3493 0.23025,-0.111 0.11514,-0.144 0.29305,-0.08 0.17793,0.063 0.0837,0.1747 0.19886,0.08 0.11513,-0.094 -0.16746,-0.1905 0.14652,-0.126 0.31398,0.063 0.33491,0.6351 0.41864,-0.111 0.0837,-0.7461 0.23025,-0.6669 0.17793,-1.0322 -0.0523,-0.3652 0.0837,-0.1905 -0.0418,-0.6669 -0.1256,-0.4765 -0.0209,-0.3016 -0.27212,-0.6194 -0.25119,-0.3177 0.10467,0.016 -0.33491,-0.6351 -0.43958,-0.6512 0.18839,0.094 -0.49191,-0.7307 -0.68029,-0.8257 -0.45004,-0.8734 -0.69076,-0.8257 -0.24072,0.047 -0.20932,-0.2383 -0.43957,-0.3016 -0.23026,-0.063 -0.0418,-0.3178 -0.32445,-0.2224 -0.28259,0.094 -0.0523,-0.7623 -0.39771,-0.3652 -0.34538,0.3968 0.0942,0.238 -0.45004,0.046 -0.54423,-0.1906 -0.13607,-0.144 -0.5861,-0.1906 -0.45005,-0.047 0.0733,-0.3335 -0.47098,-0.047 -0.54424,0.286 -0.10466,0.3494 -0.54424,0.286 -0.43957,-0.063 -0.4291,0.015 -0.60702,-0.111 -0.17793,-0.1275 -0.11969,-0.8317 -0.96288,0.032 -0.41864,0.4288 -0.0418,0.3494 -0.27212,0.6512 -0.42249,0.5535 -0.19885,0 -0.53377,0.3493 -0.33492,0.3494 -0.34538,0.2383 -0.4291,0.5875 -0.0837,0.3495 -0.11513,0.1747 -0.11513,0.524 0,0.3496 0,0.4765 0,0.6513 0,0.1746 -0.18839,0.046 0.0105,0.8573 0.19887,0.8102 0.13607,0.1274 0.17793,0.413 0.0418,0.286 0.0418,0.3812 0.0838,0.4289 0.0418,0.046 0.47097,-0.5241 0.46051,-0.3017 -0.0105,0.2221 0.0523,0.6193 0.0523,0.6193 z"
       id="path3089"
       style="fill:#999999;stroke:none" />
    <path
       d="m 81.270323,1052.5655 c -2.11123,-0.3361 -1.707434,-1.4894 -2.954971,-1.9693 -1.247551,-0.4798 -2.351143,0.3357 -3.118868,-0.5278 -0.767721,-0.8637 -1.15158,-4.9902 0.191923,-5.7099 1.343527,-0.7199 7.149403,-3.9347 7.149403,-5.2302 0,-1.2954 0.431835,-2.0633 1.103607,-2.399 0.671748,-0.336 1.583418,-1.6795 1.583418,-1.6795 l -0.91167,-0.2878 c 0,0 -1.487465,2.0153 -2.111229,2.0153 -0.623772,0 -2.15922,0.1454 -2.111237,-0.5758 0.04805,-0.7198 0.383858,-1.7275 0.383858,-1.7275 l -0.767709,-0.046 c 0,0 -0.767726,0.9597 -0.575794,1.7755 0.19192,0.8157 1.103605,1.4876 1.775353,1.4396 0.671757,-0.046 0.76771,0.7195 0.52781,1.1034 -0.239919,0.3838 -2.782999,2.2071 -3.358778,2.6391 -0.575804,0.4319 -2.783,1.6313 -3.118867,1.5355 -0.335869,-0.096 -1.727369,-2.1114 -2.11123,-2.8311 -0.383858,-0.7197 -0.479828,-2.5912 0.239916,-3.2149 0.719732,-0.6236 1.391485,-2.1591 1.151584,-2.6389 -0.239917,-0.4799 0.959642,-3.1189 0.959642,-3.1189 l -0.911664,-0.1455 c 0,0 -0.287895,1.6792 -0.911669,1.7752 -0.623777,0.096 -1.631414,-0.2399 -2.06325,-0.1918 -0.431838,0.047 0,-1.4874 0,-1.4874 l -0.767722,0 c 0,0 0.0479,1.2473 -0.287893,1.3913 -0.335884,0.1455 -0.623776,-0.096 -1.151583,-0.24 -0.527808,-0.1454 -0.671754,-1.4395 -0.671754,-1.4395 l -0.863689,-0.2877 c 0,0 0.04791,1.1515 0.287891,1.4394 0.239915,0.2878 0.815714,0.9117 1.391497,1.0555 0.5758,0.1455 2.063253,0.2401 2.447113,0.3361 0.383861,0.096 1.295529,0.2878 1.295529,0.7197 0,0.4318 -0.8157,1.6314 -1.247553,2.3992 -0.431836,0.7676 -0.0479,2.207 -0.431836,2.3031 -0.383863,0.096 -5.278072,-1.1035 -5.661946,-1.9195 -0.383861,-0.8156 -0.959647,-2.5428 -0.623761,-2.8309 0.335868,-0.2878 1.247536,-1.1035 1.247536,-1.4874 0,-0.3838 -0.239901,-1.3914 -0.239901,-1.3914 l -1.007635,-0.046 c 0,0 0.527807,1.6313 0.143955,1.8233 -0.383861,0.192 -1.103605,1.2476 -1.583419,0.9597 -0.479831,-0.2878 -1.775361,-0.5758 -1.871327,-0.9597 -0.09595,-0.3838 0.479827,-1.7272 0.479827,-1.7272 l -0.767714,-0.1455 c 0,0 -0.911669,1.4876 -0.671756,1.9672 0.239917,0.48 1.151579,1.1517 1.63141,1.3436 0.479813,0.1919 1.295512,0.288 1.439475,0.5278 0.14394,0.24 0.191923,1.9194 0.71973,2.6391 0.527806,0.7198 2.878949,1.7274 3.838609,1.9672 0.959644,0.2398 2.20718,0.096 2.49509,0.7199 0.287891,0.6237 1.439474,2.7828 1.583421,3.2147 0.143955,0.432 -0.767724,1.9193 -0.767724,2.687 0,0.7677 0.287893,3.023 0.287893,3.4549 0,0.4317 -2.420924,3.2846 -2.420924,3.2846 l 1.631398,0.1159 1.36531,-1.7692 -0.373886,1.4994 2.235239,0.1739 c 0,0 0.345844,-1.4814 0.921638,-1.7211 0.337311,-0.1425 1.209013,-0.1395 1.871317,-0.046 1.355277,0.1831 1.772623,0.5687 2.159222,0.9117 0.438053,0.389 1.10359,0.3359 1.10359,0.3359 z"
       id="path3095"
       style="fill:#b3b3b3;stroke:none" />
    <path
       d="m 86.808253,1035.7215 c -0.527803,0.624 -1.007639,0.576 -0.959656,-0.096 -0.575787,-0.8157 -0.143955,-0.5279 -0.383865,0 -0.239912,0.5279 -0.335865,1.1036 -0.623772,1.2476 -0.287895,0.1455 -0.767708,0.7677 -0.719732,0 0.04805,-0.768 0.479827,-0.9597 0.143956,-1.2956 -0.335867,-0.3359 -0.239912,-0.4799 -0.57578,-0.4319 -0.335889,0.046 -0.431857,0.1919 -0.623779,0.3359 -0.191936,0.1455 -0.527803,0.6236 -0.623772,0.24 -0.09597,-0.384 0,-0.8637 -0.191944,-0.8159 -0.19192,0.046 -0.719723,1.0078 -0.719723,1.0078 l -0.815702,-0.4799 c 0,0 0.383858,-0.5757 0.14394,-0.6237 -0.239912,-0.046 -0.671748,-0.3359 -1.007638,0.3358 -0.335865,0.6718 -0.239898,1.0078 -0.57578,0.9595 -0.335883,-0.046 -0.623779,0.1923 -0.623779,-0.1455 0,-0.3358 0,-0.3838 -0.04805,-0.6718 -0.0479,-0.2878 -0.33589,-0.9114 -0.671758,-0.6236 -0.335881,0.2879 -0.191937,0.096 -0.47984,0.4316 -0.287899,0.3361 -0.09595,0.576 -0.623767,0.3361 -0.527803,-0.24 -0.04805,0.046 -0.527803,-0.24 -0.479818,-0.2879 -0.86369,-0.5277 -0.62378,-0.8636 0.239915,-0.336 0.04805,-0.2878 0.479836,-0.5279 0.431834,-0.2398 0.719726,-0.1918 0.719726,-0.6238 0,-0.4317 -0.383859,-0.2879 0,-1.1516 0.383856,-0.8633 -0.479812,-0.7675 0.479833,-1.1036 0.959653,-0.3358 0.527805,-0.4318 1.247553,-0.4318 0.719723,0 0.623755,-1.0557 1.343505,-0.1454 0.719723,0.9116 0.671748,1.6792 0.719723,0.9116 0.04805,-0.7678 -0.383858,-1.1036 0.143971,-1.2476 0.527803,-0.1454 -0.287911,-0.2879 0.767702,-0.1918 1.05563,0.096 0.62378,-0.096 1.43949,0.144 0.815699,0.2401 1.6314,0.3361 1.6314,0.3361 0,0 0.479828,0.047 0.815717,-0.096 0.335867,-0.1455 -0.383882,-0.1455 0.383857,-0.1455 0.767711,0 0.191924,-0.8156 0.959646,0.1455 0.767703,0.9598 0.479813,1.0076 0.91167,1.1995 0.431835,0.1919 0.28789,0 0.95964,0.3359 0.671755,0.3359 1.343512,0.1919 1.007638,0.7677 -0.335883,0.5757 -0.239913,1.3436 -0.575795,1.4875 -0.335883,0.1455 -1.007623,0 -0.767711,0.5276 0.239899,0.5279 0.91167,0.2403 0.623766,0.8158 -0.287898,0.5759 0,0.8157 -0.479835,0.6238 -0.479813,-0.1918 -0.623758,-0.336 -0.815694,-0.6719 -0.191929,-0.3356 -0.719732,-1.3914 -0.479834,-0.7197 0.23993,0.6719 0.23993,0.9597 0.383858,1.2477 0.14397,0.2878 0.09597,1.2955 -0.14394,0.9597 -0.23993,-0.3359 -0.623775,-1.0556 -0.623775,-1.0556 z"
       id="path3097"
       style="fill:#999999;stroke:none" />
    <path
       d="m 72.98929,1031.4031 c -0.431853,0.5277 -0.383861,1.4394 -0.431853,0.3359 -0.04806,-1.1036 -0.335869,-2.0632 -0.479815,-1.1516 -0.143956,0.9117 0,0.8637 -0.191938,0.9597 -0.191923,0.096 -0.04807,1.1036 -0.383861,0.1454 -0.335868,-0.9595 -0.239915,-0.4316 -0.383847,-0.2398 -0.14397,0.192 -0.09595,0.288 -0.335884,0.2398 -0.239913,-0.046 -0.239913,0.288 -0.575783,-0.096 -0.335884,-0.3838 -0.730573,0.4268 -1.114435,0.235 -0.38386,-0.1921 -0.0985,-0.9999 -0.194449,-0.376 -0.09595,0.6237 -0.08262,0.045 -0.08262,0.045 0,0 0.191923,-1.2954 -0.143955,-0.6239 -0.335885,0.672 0.143955,1.3916 -0.527808,0.7679 -0.671767,-0.6238 -0.431851,-1.2476 -0.719744,-0.6719 -0.287893,0.576 -0.335869,0.6719 -0.335869,0.6719 0,0 -0.143971,-0.5278 -0.335885,-0.336 -0.191936,0.192 -0.04805,0.1455 -0.239914,0.4319 -0.191923,0.288 -0.09595,-0.1454 -0.383847,0.288 -0.287906,0.4316 0.143941,0.9595 -0.479844,0.3358 -0.623761,-0.6238 -0.09595,-0.5278 -0.623761,-0.6238 -0.527807,-0.096 -0.527807,-0.6715 -0.719745,-0.096 -0.191923,0.5757 -0.191923,0.2399 -0.287891,0.7197 -0.09595,0.4799 0,1.9673 -0.383861,0.5279 -0.383863,-1.4396 0.04807,-2.783 -0.383863,-1.4876 -0.431836,1.2957 -0.431836,0.096 -0.719744,0.5279 -0.287891,0.4318 -0.33587,1.0075 -0.575784,0.5756 -0.239913,-0.4316 0,-0.8157 -0.431833,-0.7197 -0.431838,0.096 -0.671753,-0.2877 -0.815698,0 -0.14397,0.2881 -0.191938,-0.3838 -0.575797,0.096 -0.383863,0.4799 -0.143956,-0.3838 -0.479831,0.4799 -0.33587,0.8636 -0.33587,0.7678 -0.383863,1.1037 0.06425,1.1202 -0.461906,0.8895 -0.959643,1.0558 -0.287893,0.096 -0.479816,-0.5757 -0.527808,0.096 -2.721846,2.2551 1.817301,-3.5306 1.007637,-2.4952 -1.968216,2.4312 -2.084924,0.3515 -1.391498,-1.1996 0.383861,-0.8637 -0.863675,0 0.335885,-1.0076 1.199559,-1.0077 0.76772,-0.4316 1.199559,-1.0077 0.431838,-0.5757 -0.335869,-0.096 0.815699,-0.9116 1.076744,-1.6284 0.960299,-0.06 1.462888,-1.1915 0.143955,-1.0078 1.799916,-1.0638 1.799916,-1.0638 1.247553,0.9598 0.239915,0.6719 2.159207,0.624 1.919304,-0.048 0.479829,-0.7198 1.96728,-0.048 1.487469,0.6718 0.367995,-0.9787 2.575191,-0.7389 2.207197,0.2401 1.332677,0.5119 2.244361,0.176 0.911667,-0.3358 1.178266,0.659 1.178266,0.659 0,0 1.103603,-0.768 1.727379,-0.3359 0.623779,0.4317 0.573274,-0.3147 1.53292,0.309 0.95966,0.6238 0.626301,0.7464 0.962166,0.7464 0.335883,0 0.671759,0.2964 0.671759,1.1121 -0.209458,1.4409 0.682583,0.5284 0.143955,0.9512 -0.863678,0.6719 -1.231298,0.062 -0.943408,0.5892 0.287914,0.5278 -0.256153,1.0422 -0.256153,1.0422 0,0 0.383858,1.0558 -0.28789,0.3361 -0.671755,-0.7199 -0.91167,-1.5837 -0.767724,-0.864 0.143956,0.7198 0.09595,0.9598 0.09595,0.9598 l -0.623772,-0.9117 c 0,0 0.623772,0.8159 0,1.1035 -0.62378,0.2881 -0.52781,0.3841 -0.767725,0.2399 -0.239914,-0.1454 0,-0.4317 -0.287893,-0.1916 -0.287892,0.2398 0.191937,1.0556 -0.335884,0.2876 -0.527806,-0.7677 -0.479816,-1.6313 -0.767707,-0.9116 -0.287908,0.7198 0.239901,1.6315 0.04806,1.3915 -0.191938,-0.2398 -0.287891,-0.8636 -0.287891,-0.8636 z"
       id="path3099"
       style="fill:#999999;stroke:none" />
    <path
       d="m 35.702479,1036.0314 c 0.338323,0.6814 0.120726,1.5147 0.364346,0.4089 0.130143,-0.5907 0,-0.8179 0.234226,0.2271 0.234227,1.045 0.226313,0.7461 0.390368,0.1818 0.173896,-0.5983 0.02606,-1.2268 0.208206,-0.091 0.182172,1.1357 -0.208206,0.5907 0.338323,0.091 0.546519,-0.4999 0.182173,-0.4543 0.546519,-0.2725 0.364347,0.1816 0.312293,0.1816 0.494465,0.045 0.182184,-0.138 0.05205,-0.7725 0.312301,-0.1818 0.260252,0.5907 0.182175,0.409 0.05205,0.5907 -0.130144,0.1818 0.208196,0 0.364347,0.091 0.156151,0.091 -0.442423,-0.9541 0.07812,-0.1816 0.462917,0.6868 0.416389,0.091 0.07812,-0.3635 -0.338326,-0.4544 -0.130129,-1.0452 0.28627,-0.09 0.4164,0.9541 -0.182172,0.3181 0.208205,0.4089 0.390367,0.091 0.02596,0.3636 0.520486,-0.6816 0.494477,-1.0451 0.416401,-0.318 0.70267,-0.045 0.286281,0.2727 0.286281,-0.8633 0.364358,-0.3635 0.07801,0.4997 0,0.138 0.416389,0.138 0.4164,0 0.468444,1.7267 0.338323,0.4998 -0.130128,-1.2266 -0.98894,-2.0899 -0.494475,-1.4085 0.494475,0.6815 0.780436,0.087 1.014973,0.2725 0.28627,0.2272 0.390305,0.1125 -0.02596,-0.4997 -0.621397,-0.9154 0.312302,0.091 0.02596,-0.8178 -0.286281,-0.9088 0.311702,-0.41 0.02596,-0.9088 -0.312302,-0.545 -0.286271,-0.2726 -0.624595,-0.4995 -0.631547,-0.4243 -0.156151,-0.5453 -0.4164,-0.5453 -0.260247,0 -0.260247,0.1365 -0.338323,0.4998 -0.07812,0.3634 -0.07812,0.138 -0.364347,-0.4544 -0.286269,-0.5907 -0.104094,-0.9541 -0.520496,-0.6816 -0.416391,0.2728 0.02606,-0.1817 -0.70267,0.409 -0.728692,0.5906 -0.650616,-0.6815 -1.067016,0.138 -0.255282,0.5013 0,-0.3181 -0.338325,-0.3181 -0.338313,0 0.182183,-0.409 -0.364345,0 -0.546519,0.4089 -0.96291,0.2726 -1.301244,0.3635 -0.338313,0.09 0.07812,0.3181 -0.338313,0.3181 -0.416399,0 -0.234227,-0.4999 -0.676649,0.09 -0.44242,0.5907 -0.598571,0.5453 -0.728692,0.9088 -0.130128,0.3635 -0.208196,0.4544 -0.02596,0.9541 0.182172,0.4998 0.156151,0.5453 0.208203,0.8179 0.05205,0.2725 0.509656,0.12 0.234218,0.8177 -0.28627,0.727 0.520498,0.1379 0.520498,0.1379 z"
       id="path3121"
       style="fill:#999999;stroke:none" />
    <path
       d="m 178.74141,1052.6322 c -0.64557,-0.4792 -0.51536,-0.4253 -0.32642,-0.7032 0.1889,-0.2777 2.01606,-0.5295 2.01606,-0.5295 l -0.0152,-0.6967 c 0,0 -1.46167,0.756 -1.98733,0.5365 -0.52559,-0.2193 -0.13902,-1.1887 -0.13902,-1.1887 l 0.40751,-1.057 -0.30883,0.018 c 0,0 -0.35964,0.6062 -0.50728,1.2175 -0.14757,0.6113 0.22069,0.9775 -0.0333,1.1471 -0.25418,0.1698 -0.61391,-0.6102 -0.83357,-0.7096 -0.21966,-0.099 -0.45468,-0.3871 -0.3022,-0.7662 0.15245,-0.379 0.37591,-0.9256 0.37591,-0.9256 l -0.41627,0.084 c 0,0 -0.11413,0.8504 -0.42579,1.0062 -0.31168,0.1556 -0.86129,0.1615 -0.86129,0.1615 l -0.163,0.4226 c 0,0 0.97159,-0.3659 1.2277,-0.1654 0.25609,0.2005 1.08965,0.9102 1.15204,1.1564 0.0624,0.246 -0.15627,1.0249 -0.7164,1.0745"
       id="path3133"
       style="fill:#b3b3b3;stroke:none" />
    <path
       d="m 180.91628,1052.2181 c -0.13723,0.2119 -0.20719,-0.033 -0.34622,0.096 -0.13902,0.1305 -0.19961,-0.064 -0.22143,0.159 -0.0217,0.2236 -0.18514,0.053 -0.0318,-0.2691 0.15326,-0.3224 0.39978,-0.5406 0.14712,-0.5198 -0.25262,0.021 -0.29977,-0.015 -0.34789,0.015 -0.0481,0.021 -0.1535,0.015 -0.0225,-0.3974 0.13137,-0.4094 0.18073,-0.1687 0.16272,-0.4508 -0.018,-0.2822 0.13857,-0.4403 -0.0726,-0.2789 -0.21123,0.1613 -0.0274,-0.1537 -0.13257,-0.3426 -0.10528,-0.1885 -0.28226,-0.034 -0.29674,-0.1534 -0.0151,-0.1169 0.35634,-0.5837 -0.001,-0.3923 -0.35841,0.1911 -0.26107,0.5903 -0.39811,0.1335 -0.13692,-0.4579 0.0577,-0.6395 -0.15738,-0.4627 -0.21496,0.1768 -0.14711,0.03 -0.22616,0.2232 -0.0789,0.193 0.14637,-0.651 -0.0559,-0.2589 -0.20245,0.3922 -0.0225,0.093 -0.23839,0.3184 -0.21599,0.2254 -0.14472,0.2427 -0.23328,0.073 -0.0885,-0.1684 0.30048,-0.859 -0.12807,-0.4066 -0.39027,0.4122 -0.33408,-0.489 -0.41341,-0.1169 -0.0792,0.3729 -0.0135,0.1927 -0.0792,0.3729 -0.0652,0.1804 0.0451,-0.8327 -0.28224,-0.035 -0.18307,0.4459 0.0165,-0.3915 -0.11503,-0.3708 -0.24619,0.039 -0.47471,0.539 -0.40454,0.1154 0.0702,-0.4241 0.0346,-0.1877 -0.16278,-0.039 -0.19734,0.1499 0.0699,0.2454 -0.30754,0.2033 -0.37749,-0.042 -0.68915,-0.624 -0.52903,-0.1275 0.1601,0.4961 0.60028,0.6355 0.17672,0.5165 -0.42362,-0.1199 -0.49343,-0.3642 -0.4706,-0.1484 0.0228,0.2179 0.007,0.099 0.019,0.2332 0.0105,0.1349 0.21974,-0.2409 0.0264,0.2024 -0.19327,0.4435 -0.18308,0.446 -0.22678,0.5823 -0.0438,0.138 0.13872,0.05 -0.11533,0.2989 -0.25397,0.2491 -0.20378,0.132 -0.28653,0.3394 -0.0826,0.2088 -0.006,0.4723 -0.20411,0.3103 -0.19772,-0.1623 -0.0784,-0.1662 -0.26623,-0.147 -0.18788,0.02 -0.12237,0.1508 -0.21193,0.03 -0.0895,-0.1214 0.20753,-0.1469 -0.11263,-0.158 -0.32015,-0.015 -0.47473,0.5387 -0.38085,-0.2064 0.0937,-0.7452 -0.0673,-0.7023 0.0694,-1.0453 0.13647,-0.3427 -0.0367,-0.2048 0.19727,-0.6384 0.23394,-0.4336 0.0912,-0.2882 0.40993,-0.5381 0.31876,-0.2498 -0.10543,-0.015 0.47472,-0.5388 0.58016,-0.5297 -0.20551,0.048 0.64965,-0.5947 0.85517,-0.6429 0.64256,-0.7432 0.86534,-0.6403 0.22292,0.1035 0.25942,-0.1827 0.49814,-0.1902 0.23874,0 0.11533,-0.299 0.36757,-0.141 0.25233,0.159 0.22985,-0.7288 0.47236,-0.2615 0.2425,0.4669 -0.14742,0.2094 0.42639,0.1513 0.57377,-0.057 0.16584,-0.1065 0.61447,-0.048 0.44855,0.06 0.006,-0.3413 0.46887,0.064 0.4619,0.4058 0.0198,0.3643 0.4619,0.4058 0.44223,0.041 0.41342,0.117 0.61615,0.034 0.20279,-0.081 0.3117,-0.7803 0.9284,0.2575 0.30627,0.5152 -0.0414,0.3496 0.11173,0.6969 0.28066,0.6372 0.19328,0.046 0.43681,0.4648 0.24349,0.4182 0.27977,0.3128 0.27912,0.6718 -6.4e-4,0.3595 0.0709,0.1971 -0.0105,0.5366 -0.082,0.3397 -0.11188,0.4631 -0.15288,0.6329 -0.0409,0.1699 0.17206,0.09 -0.21153,0.8311 -0.38346,0.7406 -0.16209,0.091 -0.26989,0.3595 -0.10783,0.2682 -0.13017,0.3607 -0.18209,0.3973 -0.0517,0.036 -0.33475,-0.62 -0.37677,-0.4015 -0.042,0.2187 -0.19628,0.5897 -0.19628,0.5897 z"
       id="path3135"
       style="fill:#999999;stroke:none" />
  </g>
</svg>
