<?xml version="1.0" encoding="UTF-8" standalone="no"?>
<!-- Created with Inkscape (http://www.inkscape.org/) -->

<svg
   xmlns:dc="http://purl.org/dc/elements/1.1/"
   xmlns:cc="http://creativecommons.org/ns#"
   xmlns:rdf="http://www.w3.org/1999/02/22-rdf-syntax-ns#"
   xmlns:svg="http://www.w3.org/2000/svg"
   xmlns="http://www.w3.org/2000/svg"
   version="1.1"
   width="6000"
   height="600"
   id="svg3010">
  <defs
     id="defs3012" />
  <metadata
     id="metadata3015">
    <rdf:RDF>
      <cc:Work
         rdf:about="">
        <dc:format>image/svg+xml</dc:format>
        <dc:type
           rdf:resource="http://purl.org/dc/dcmitype/StillImage" />
        <dc:title></dc:title>
      </cc:Work>
    </rdf:RDF>
  </metadata>
  <g
     transform="matrix(20.472759,0,0,20.472759,-5.4738045,-20947.946)"
     id="layer1">
    <path
       d="m 168.40962,1052.7513 c 1.07092,-1.268 1.38177,-0.9655 2.08991,-1.6946 0.52545,-0.5911 0.78818,-3.4154 -0.13137,-3.9081 -0.91957,-0.4926 -5.04514,-3.0183 -5.04514,-3.905 0,-0.8865 -0.14367,-1.0869 -0.60355,-1.3168 -0.45979,-0.2299 -1.08377,-1.1495 -1.08377,-1.1495 l 0.62398,-0.197 c 0,0 1.01808,1.3794 1.44501,1.3794 0.42695,0 1.62965,-0.075 2.05219,-0.5676 0.32143,-0.3747 0.0627,-1.2691 0.0627,-1.2691 l 0.764,-0.1844 c 0,0 -0.0384,0.8951 -0.1697,1.4535 -0.13138,0.5583 -1.36252,1.1915 -1.82231,1.1588 -0.45976,-0.033 -0.52543,0.4925 -0.36123,0.7554 0.1642,0.2626 1.90479,1.5106 2.29889,1.8062 0.39409,0.2956 2.90227,1.5285 3.13214,1.4628 0.22992,-0.066 1.1823,-1.4448 1.44503,-1.9376 0.26274,-0.4925 -0.66907,-2.1852 -1.16168,-2.6123 -0.49262,-0.427 -0.95238,-1.4778 -0.78819,-1.8064 0.16421,-0.3283 -0.65682,-2.1345 -0.65682,-2.1345 l 0.62398,-0.099 c 0,0 0.19705,1.1494 0.62399,1.2151 0.42691,0.066 1.11659,-0.1643 1.41217,-0.132 0.29557,0.033 0,-1.018 0,-1.018 l 0.52546,0 c 0,0 -0.0328,0.8539 0.19706,0.9523 0.22987,0.097 0.42693,-0.066 0.78816,-0.1642 0.36128,-0.097 0.45979,-0.9853 0.45979,-0.9853 l 0.59115,-0.1971 c 0,0 -0.0327,0.7884 -0.19706,0.9853 -0.1642,0.1971 -0.55829,0.6242 -0.95238,0.7226 -0.39412,0.097 -1.41218,0.1642 -1.6749,0.2299 -0.26273,0.066 -0.88674,0.197 -0.88674,0.4928 0,0.2953 0.55832,1.1163 0.85388,1.6418 0.29558,0.5254 0.98695,1.6191 1.2497,1.6849 0.26271,0.066 2.65842,-0.8638 2.92115,-1.422 0.26274,-0.5586 0.60302,-0.9416 0.34021,-1.092 -0.98885,-0.5659 -0.76714,-1.6011 -0.76714,-1.8639 0,-0.2627 0.1642,-0.9523 0.1642,-0.9523 l 0.68967,-0.033 c 0,0 -0.44801,1.9622 -0.18526,2.0938 0.26273,0.1319 0.75535,0.8537 1.08375,0.6568 0.32842,-0.197 1.30187,-1.2398 1.36756,-1.5027 0.0658,-0.2626 -0.32841,-1.182 -0.32841,-1.182 l 0.52545,-0.099 c 0,0 0.62399,1.0181 0.45979,1.3466 -0.16422,0.3283 -0.87493,1.6337 -1.20335,1.7651 -0.32842,0.132 -0.88671,0.1972 -0.98524,0.3613 -0.0984,0.1642 -0.0445,0.4679 -0.40588,0.9607 -0.36126,0.4925 -1.34165,0.922 -1.99845,1.0862 -0.65684,0.1641 -1.14209,0.7379 -1.33912,1.1648 -0.19706,0.427 -0.98523,1.9048 -1.08376,2.2004 -0.0985,0.2956 -0.47201,0.9014 -0.47201,1.4271 0,0.5253 -0.19706,2.069 -0.19706,2.3645 0,0.2955 1.37934,1.9705 1.37934,1.9705 l -1.11661,0 c -0.12537,-0.123 -1.11461,-0.5333 -1.07684,-0.098 l -1.60921,0 c 0,0 0.51853,-0.6243 0.12462,-0.7885 -0.60688,0.2576 -1.06571,0.4353 -1.3674,1.0048 z"
       id="path3019"
       style="fill:#b3b3b3;stroke:none" />
    <path
       d="m 161.50578,1040.5936 c 0.4272,0.4928 0.15244,1.0955 0.46006,0.2956 0.1643,-0.4271 0,-0.5913 0.29575,0.1645 0.29577,0.7559 0.28578,0.5395 0.49294,0.132 0.21958,-0.4324 0.0328,-0.8871 0.26289,-0.066 0.23004,0.8215 -0.26289,0.4271 0.4272,0.066 0.6901,-0.3613 0.23004,-0.3284 0.6901,-0.1971 0.46008,0.1305 0.39435,0.1305 0.62438,0.033 0.23003,-0.097 0.0658,-0.5586 0.39435,-0.1319 0.32861,0.4271 0.23004,0.2955 0.0657,0.4271 -0.16432,0.1319 0.26289,0 0.46005,0.066 0.19718,0.066 -0.55864,-0.6901 0.0985,-0.132 0.58453,0.4967 0.52581,0.066 0.0985,-0.2629 -0.4272,-0.3286 -0.16429,-0.7559 0.36148,-0.066 0.5258,0.6903 -0.23002,0.2302 0.2629,0.296 0.49293,0.066 0.0327,0.2628 0.65724,-0.4931 0.62438,-0.7558 0.52579,-0.23 0.88728,-0.033 0.36147,0.1973 0.36147,-0.6244 0.46006,-0.263 0.0985,0.3616 0,0.098 0.52579,0.098 0.52579,0 0.59151,1.2488 0.4272,0.3614 -0.1643,-0.8872 -1.24876,-1.5114 -0.62436,-1.0187 0.62436,0.4929 0.98546,0.063 1.2816,0.1972 0.36149,0.1643 0.49286,0.082 -0.0327,-0.3614 -0.78467,-0.6622 0.39434,0.066 0.0327,-0.5915 -0.36148,-0.6575 0.39361,-0.2967 0.0327,-0.6575 -0.39436,-0.3941 -0.36149,-0.1971 -0.78871,-0.3613 -0.79744,-0.3068 -0.19716,-0.3944 -0.52577,-0.3944 -0.32863,0 -0.32863,0.099 -0.42722,0.3616 -0.0985,0.2629 -0.0985,0.097 -0.46005,-0.3286 -0.3615,-0.4273 -0.13137,-0.6902 -0.65725,-0.4931 -0.52579,0.1972 0.0327,-0.132 -0.88728,0.2957 -0.92013,0.4273 -0.82154,-0.4928 -1.34734,0.1005 -0.32236,0.3627 0,-0.2299 -0.4272,-0.2299 -0.4272,0 0.23004,-0.2957 -0.46007,0 -0.69009,0.2956 -1.21589,0.1971 -1.6431,0.2628 -0.4272,0.066 0.0985,0.23 -0.4272,0.23 -0.52579,0 -0.29577,-0.3616 -0.8544,0.066 -0.55865,0.4274 -0.75585,0.3944 -0.92015,0.6573 -0.16431,0.2629 -0.2629,0.3286 -0.0327,0.6902 0.23006,0.3614 0.19718,0.3942 0.2629,0.5915 0.0657,0.197 0.64356,0.085 0.29577,0.5914 -0.36149,0.5258 0.65724,0.097 0.65724,0.097 z"
       id="path3021"
       style="fill:#999999;stroke:none" />
    <path
       d="m 168.96778,1038.5801 c -0.0175,0.2565 0.3124,0.1824 0.2491,-0.08 -0.0634,-0.2621 0.41514,-0.1334 0.40418,0.027 -0.0105,0.1604 -0.47744,0.7593 0.13752,0.3639 0.22654,-0.147 0.051,-0.351 0.46248,-0.033 0.35928,0.2777 0.064,0.6487 0.30583,0.2786 0.24187,-0.3701 0.66516,-1.0177 0.64761,-0.7612 -0.0175,0.2566 0.0837,0.3602 0.075,0.4884 -0.009,0.129 -0.10692,0.6654 0.009,0.2583 0.26627,-0.9315 0.22434,-0.1125 0.35469,-0.041 0.13033,0.073 0.1952,-0.082 0.36125,-0.138 0.16608,-0.053 0.47783,-0.2573 0.48505,0.033 0.007,0.2906 -0.0939,0.187 0.12822,0.1065 0.22215,-0.081 0.1814,-0.2775 0.42611,-0.2931 0.2447,-0.015 0.55143,-0.5424 0.501,0.1953 -0.0504,0.7378 0.2892,-0.2701 0.11937,0.2339 -0.16979,0.5039 0.14472,0.6542 0.16671,0.3334 0.046,-0.6741 0.13182,-0.3453 0.34026,-0.6211 0.20836,-0.2757 0.32338,0.023 0.30801,0.2467 -0.0154,0.2245 -0.006,0.096 0.16168,0.015 0.16825,-0.084 0.13558,-0.7962 0.31612,-0.2685 0.18051,0.5281 -0.12462,0.6362 0.27013,0.4051 0.39479,-0.2307 0.13182,-0.3454 0.2215,-0.4681 0.0895,-0.123 0.31741,0.5051 0.37508,0.057 0.44447,-0.7024 0.29029,0.4265 0.46529,0.322 0.14127,-0.087 -0.0627,0.1245 0.21273,-0.34 0.2754,-0.4646 0.21204,-0.7266 0.381,-0.4251 0.16889,0.3014 -0.0306,0.449 0.27447,0.3408 0.3052,-0.1079 0.20553,-0.6301 0.49757,-0.5459 0.292,0.084 0.22497,0.2733 0.35312,0.3787 0.12822,0.105 0.14307,-0.5057 0.3788,-0.3931 0.23595,0.114 -0.0852,0.058 0.21401,0.4338 0.29925,0.3747 0.0525,-0.7698 0.55429,-0.1878 0.50166,0.582 0.49443,0.2915 0.49443,0.2915 0,0 0.0223,1.2581 0.19868,0.6581 0.17638,-0.6002 0.0999,-0.6699 0.21427,-0.7587 0.11443,-0.089 0.0615,-0.898 0.3168,0.12 0.25541,1.0163 0.47846,0.1305 0.60881,0.2027 0.13048,0.074 0.31458,0.1505 0.35095,0.4107 0.0364,0.26 -0.20774,0.6625 0.0837,0.36 0.29139,-0.3023 0.43705,-0.4533 0.60595,-0.1517 0.16891,0.3016 0.25102,1.0802 0.21622,0.4013 -0.0348,-0.6789 0.4042,0.027 -0.0303,-0.7431 -0.43461,-0.771 -0.40108,-0.8653 -0.21466,-0.8203 0.18644,0.045 0.86139,0.8644 0.2986,-0.015 -0.56275,-0.8762 -0.62827,-1.1062 -0.62827,-1.1062 0,0 -0.11937,-0.2335 -0.0348,-0.6791 0.0846,-0.4452 0.48725,0 0.18517,-0.7282 -0.30207,-0.7296 0.2375,-0.5905 -0.50448,-0.9367 -0.97072,-0.4532 -0.61728,-1.2667 -1.31727,-0.9279 -0.79261,0.3836 -0.64361,-0.8817 -1.06313,-0.6849 -0.41954,0.1968 -0.36566,0.2005 -0.50257,0.2235 -0.13692,0.022 -0.40137,0.3269 -0.73479,-0.3403 -0.33338,-0.6672 0.0976,-0.6377 -0.33338,-0.6672 -0.43116,-0.028 0.17637,-0.6002 -0.74291,0.1748 -0.91929,0.7749 -0.73194,0.015 -1.56729,-0.042 -0.83533,-0.057 -1.05025,0.315 -1.36485,0.1644 -0.31459,-0.1504 0.19677,-0.5021 -0.67584,-0.015 -0.87261,0.4882 -0.98477,0.5448 -0.98477,0.5448 0,0 -0.49818,0.1593 -0.60815,0.1841 -0.11008,0.024 0.53608,-0.3178 -0.7072,0.048 -1.24327,0.3663 -1.40497,0.3553 -1.58196,0.5687 -0.17706,0.2134 -0.14652,0.9565 -0.57933,1.3458 -0.4327,0.3894 0.11847,-0.6409 -0.63949,0.2464 -1.11823,1.3091 -0.22807,0.8013 -0.48467,1.5456 -0.30388,0.8815 0.23658,0.4997 0.23658,0.4997 0,0 -0.88274,1.6399 0.0151,0.5807 0.4764,-0.5622 1.04461,-1.024 0.70436,-0.4028 -0.77517,1.4151 -0.45461,0.7099 -0.20991,0.6945 0.24471,-0.015 1.02269,-0.7035 1.02269,-0.7035 -0.0808,0 -0.19895,0.5343 -0.19895,0.5343 z"
       id="path3023"
       style="fill:#999999;stroke:none" />
    <g
       transform="matrix(0.09480791,0,0,0.07474765,161.90742,1013.8551)"
       id="g3025">
      <path
         d="m 695.02855,517.20117 c 25.0785,-32.80351 58.2656,-13.02463 69.64286,-55.71429 2.68513,-12.2915 0,-34.28572 -6.42857,-42.14286 -30.43607,-34.63196 -30.81339,-27.93354 -44.28572,-45.71429 -1.32372,-8.011 -21.42857,10.71429 -32.85714,13.57143 -11.42857,2.85714 -38.21429,8.21429 -42.5,3.21429 -4.28572,-5 -8.57143,-16.07143 -8.57143,-16.07143 l 6.07143,-1.42857 c 0,0 0.23512,8.09225 5,12.85714 2.49999,2.5 9.38288,2.58665 13.92857,1.07142 6.42857,-2.14285 17.5,-3.92856 17.5,-3.92856 0,0 -10.71429,2.14285 -14.28571,-2.14286 -3.57143,-4.28571 -7.14286,-11.42857 -7.14286,-11.42857 l 8.57143,0.71428 c 0,0 -1.42857,3.57143 3.57143,6.42858 5,2.85714 15.71428,4.28571 20.71428,2.14285 5,-2.14285 11.49595,-9.8169 17.92452,-11.95976 6.42857,-2.14286 9.1307,-5.46338 9.1307,-5.46338 0,0 -16.22089,-2.01238 -15.98379,-9.36257 0.35714,-11.07143 -8.125,-5.08928 -12.99107,-11.96429 -2.6938,-3.80591 1.74107,-7.32144 -2.72322,-9.10715 -9.23727,-3.69491 -24.64285,0.35714 -28.92857,-6.07143 -4.28571,-6.42857 4.64286,-18.57143 4.64286,-18.57143 l 4.64286,3.21429 c 0,0 -6.42857,10.71428 -3.57143,12.85714 2.85714,2.14286 18.57143,-2.14286 24.28571,2.14286 5.71429,4.28571 9.64286,-9.28572 11.07143,-13.57144 1.42857,-4.28571 3.57143,-8.21428 3.57143,-8.21428 l 6.78572,-1.07143 c 0,0 -5.01453,8.7892 -5.35715,13.92858 -0.17857,2.67857 -7.85714,12.94643 -6.42857,17.81251 1.42857,4.86607 2.32143,1.11607 7.14285,0.75892 4.15359,-0.30767 -1.44135,-10.78294 11.42858,-10.35715 13.90813,0.46015 12.36284,-13.32359 11.78571,-22.85714 l 8.57143,-2.14286 c 0,0 3.57143,11.42857 1.78572,16.07143 -2.77354,7.21121 -2.66144,7.06592 4.64286,5.71429 7.92299,-1.46612 8.57142,-3.57143 10.71428,-6.78572 4.62062,-6.93091 2.85714,-19.28571 2.85714,-19.28571 l 5.71429,-2.14286 c 0,0 1.07142,3.57143 0.35714,10.71429 -0.89055,8.90555 -2.14285,21.07143 -16.42857,23.21428 -14.28571,2.14286 -31.42858,5.71429 -30.71429,9.28573 0.71428,3.57143 -1.07143,11.07143 5.35715,13.92857 20.30644,-0.31843 29.00334,31.81381 40.71428,32.14286 10.71429,0 22.5,-0.71429 22.5,-0.71429 2.55086,-7.49422 -1.00427,-13.89398 -4.64286,-21.42857 l 6.42858,-0.71429 c 3.71922,12.73715 5.48784,10.76277 4.28571,22.14286 0,0 11.42857,-1.42857 20.71429,-1.42857 9.28571,0 16.07143,-8.92858 11.78571,-13.21429 -4.28571,-4.28571 -15.35714,-8.92857 -15.35714,-8.92857 l 7.14286,-2.14286 c 0,0 10.35714,4.28572 14.28571,9.28572 3.63906,4.63153 1.07142,11.07143 -3.57143,14.64285 -8.35925,6.4302 -8.57143,5.00001 -21.42857,6.78572 -16.33378,2.26858 -6.07143,1.42857 -28.57143,5 -6.02741,0.95673 -8.57143,0.35714 -8.57143,0.35714 0,0 10.69837,15.97755 14.64286,15.35715 4.07517,-0.64096 19.21601,41.22017 18.92857,52.14285 -0.71429,27.14286 -22.2342,29.56822 -21.42857,38.92857 0.86128,10.00686 7.83969,10.93305 12.14286,20 z"
         id="path3027"
         style="fill:#aaaaaa;fill-opacity:1;stroke:none" />
      <path
         d="m 622.17141,389.70116 c 0,0 -7.5,15 -1.42857,8.57143 6.07142,-6.42857 4.28571,-14.28571 6.07142,-6.42857 1.78572,7.85714 2.85715,2.5 3.21429,-5.71429 0.35714,-8.21428 0,11.78572 2.14286,2.85715 2.14285,-8.92858 -1.42857,-18.57143 4.28571,-10.35715 5.71429,8.21429 5.67434,0.33647 6.42857,-1.07142 5.35715,-10 3.21429,10.35713 6.42857,1.78571 3.21429,-8.57143 4.64286,5.35714 4.64286,-5.35714 0,-4.07205 2.85714,1.07142 5,1.07142 2.14286,0 0.71429,-2.14285 4.28572,-0.35714 3.57142,1.78572 0.35714,-0.71428 4.28571,-1.07143 3.92857,-0.35714 0.71429,-7.14285 5.35714,-0.35714 4.64286,6.78571 3.57143,2.5 4.28571,0.71429 0.71429,-1.78571 -2.85714,-2.5 1.78572,-2.5 4.64286,0 2.85714,-2.85715 5,-0.35715 2.14286,2.5 1.07143,3.21429 2.85714,2.5 1.78572,-0.71428 -1.07142,2.85715 2.14286,-0.71428 3.21429,-3.57143 -2.06885,-6.97029 3.92857,-5 4.08573,1.34226 3.235,1.5114 2.5,-1.42858 -1.07142,-4.28571 -6.01595,-4.00682 2.50001,-0.35713 2.49999,1.07142 12.14285,0.35714 0,-2.14286 -12.14286,-2.5 -4.64286,-2.85715 -5.35715,-5.35715 -0.71429,-2.5 0,-3.92857 0,-3.92857 0,0 5.71429,-3.92857 -1.07143,-4.64286 -6.78571,-0.71428 -5.35714,2.85715 -7.14286,-0.71428 -1.78571,-3.57143 -1.78571,-4.64286 -1.78571,-4.64286 0,0 -2.5,3.92857 -2.85714,0 -0.35714,-3.92857 -2.85714,-4.28571 -6.78571,-2.14285 -3.92858,2.14285 1.42856,-2.85715 -6.07144,1.42857 -7.5,4.28571 -5.35714,3.21428 -1.42857,0 3.92857,-3.21429 4.28572,-6.78572 -5,-3.92858 -9.28571,2.85715 -13.57143,5.35715 -13.57143,5.35715 -7.85714,1.07143 -2.85714,-5.35714 -10.71428,1.07143 -5.25186,4.29698 -10.35714,-5.35715 -12.5,1.42857 -2.14286,6.78571 -2.54067,-5.00766 -2.85715,-3.21428 -1.07142,6.07142 -4.74114,2.7574 -4.28571,-10e-6 0.75739,-4.5856 0.71429,-4.64286 -5,0 -5.71428,4.64286 -3.92857,5.71429 -6.78571,8.57143 -2.85715,2.85714 -10.01154,-0.18273 -7.85715,5.35714 2.5,6.42858 -15.76119,7.49809 -10.35714,8.92857 12.14286,3.21429 -5.84889,5.05987 1.78572,5 12.52026,-0.0982 3.57142,5.35715 3.92857,11.07143 0.35714,5.71429 -2.85715,8.92857 3.21428,6.42857 6.07143,-2.5 0.16193,7.85341 9.28572,-2.85714 8.21428,-9.64286 8.92857,-3.92857 1.07143,4.28571 -7.85714,8.21429 6.42857,-2.85714 6.42857,-2.85714 0,0 -2.14286,4.64286 -0.35715,3.57143 5,-1.78572 12.5,-10 6.42858,-3.21428 -6.07143,6.78571 2.85714,0.35714 3.92857,0.71428 z"
         id="path3029"
         style="fill:#999999;stroke:none" />
      <path
         d="m 751.81426,365.41545 c 4.64286,5.35714 1.65676,11.90667 5,3.21428 1.78572,-4.64285 0,-6.42857 3.21429,1.78572 3.21429,8.21428 3.10572,5.86486 5.35714,1.42857 2.3864,-4.70226 0.35714,-9.64286 2.85714,-0.71429 2.5,8.92858 -2.85714,4.64286 4.64286,0.71429 7.5,-3.92857 2.50001,-3.57143 7.50001,-2.14285 5,1.42857 4.28571,1.42857 6.78571,0.35714 2.5,-1.07143 0.71428,-6.07143 4.28571,-1.42858 3.57143,4.64286 2.5,3.21429 0.71429,4.64286 -1.78571,1.42858 2.85714,0 5,0.71429 2.14286,0.71428 -6.07142,-7.50001 1.07143,-1.42858 6.35273,5.39983 5.71428,0.71429 1.07142,-2.85714 -4.64285,-3.57142 -1.78571,-8.21429 3.92858,-0.71429 5.71429,7.5 -2.5,2.50001 2.85714,3.21429 5.35714,0.71429 0.35714,2.85714 7.14286,-5.35714 6.78571,-8.21429 5.71429,-2.5 9.64286,-0.35715 3.92857,2.14286 3.92856,-6.78571 4.99999,-2.85714 1.07143,3.92857 1e-5,1.07143 5.71429,1.07143 5.71429,0 6.42857,13.57143 4.64286,3.92857 -1.78572,-9.64285 -13.57143,-16.42857 -6.78572,-11.07142 6.78571,5.35714 10.70994,0.67984 13.92858,2.14286 3.92857,1.78571 5.35634,0.89218 -0.35715,-3.92858 -8.52758,-7.19515 4.28571,0.71429 0.35714,-6.42857 -3.92857,-7.14286 4.2776,-3.22242 0.35715,-7.14286 -4.28572,-4.28571 -3.92858,-2.14285 -8.57143,-3.92857 -8.66679,-3.33338 -2.14286,-4.28571 -5.71429,-4.28571 -3.57143,0 -3.57143,1.07142 -4.64286,3.92857 -1.07142,2.85714 -1.07142,1.07143 -5,-3.57143 -3.92857,-4.64287 -1.42857,-7.50001 -7.14285,-5.35715 -5.71429,2.14285 0.35714,-1.42858 -9.64286,3.21428 -10,4.64287 -8.92857,-5.35714 -14.64285,1.07144 -3.50329,3.94119 -1e-5,-2.50001 -4.64286,-2.50001 -4.64286,0 2.5,-3.21429 -5,0 -7.5,3.2143 -13.21429,2.14286 -17.85715,2.85715 -4.64286,0.71428 1.07143,2.50001 -4.64286,2.50001 -5.71428,0 -3.21428,-3.92859 -9.28571,0.71428 -6.07143,4.64286 -8.21428,4.28571 -10,7.14286 -1.78571,2.85714 -2.85714,3.57142 -0.35714,7.5 2.5,3.92857 2.14286,4.28571 2.85714,6.42857 0.71429,2.14285 6.99416,0.93058 3.21429,6.42857 -3.92857,5.71428 7.14285,1.07143 7.14285,1.07143 z"
         id="path3031"
         style="fill:#999999;stroke:none" />
      <path
         d="m 638.59998,308.27258 c 0,2.85714 4.28571,1.78571 3.21428,-1.07143 -1.07142,-2.85714 5.35715,-1.78571 5.35715,0 0,1.78572 -5.61407,8.77662 2.14285,3.92857 2.85715,-1.78571 0.35714,-3.92857 6.07143,-0.71428 4.99014,2.80696 1.42857,7.14285 4.28572,2.85714 2.85714,-4.28571 7.85714,-11.78571 7.85714,-8.92857 0,2.85714 1.42857,3.92857 1.42857,5.35714 0,1.42857 -0.81068,7.45614 0.35714,2.85714 2.67335,-10.52796 2.85715,-1.42857 4.64286,-0.71428 1.78572,0.71428 2.5,-1.07143 4.64286,-1.78572 2.14286,-0.71428 6.07143,-3.21428 6.42857,0 0.35714,3.21429 -1.07143,2.14286 1.78571,1.07143 2.85715,-1.07143 2.14286,-3.21428 5.35715,-3.57143 3.21428,-0.35714 6.78571,-6.42857 6.78571,1.78572 0,8.21428 3.57143,-3.21429 1.78572,2.5 -1.78571,5.71428 2.5,7.14286 2.5,3.57143 0,-7.5085 1.42857,-3.92858 3.92857,-7.14286 2.5,-3.21429 4.28571,0 4.28571,2.5 0,2.5 0,1.07143 2.14286,0 2.14286,-1.07143 1.07143,-8.92857 3.92857,-3.21429 2.85714,5.71429 -1.07143,7.14286 3.92857,4.28572 5,-2.85714 1.42857,-3.92857 2.5,-5.35714 1.07143,-1.42857 4.64286,5.35714 5,0.35714 5.23026,-8.12217 4.21459,4.50687 6.42857,3.21428 1.78572,-1.07142 -0.71428,1.42858 2.5,-3.92857 3.21429,-5.35714 2.14286,-8.21428 4.64286,-5 2.5,3.21429 0,5 3.92857,3.57143 3.92857,-1.42857 2.14285,-7.14286 6.07143,-6.42857 3.92857,0.71428 3.21429,2.85714 5,3.92857 1.78571,1.07143 1.42857,-5.71428 4.64286,-4.64286 3.21429,1.07143 -1.07143,0.71429 3.21428,4.64286 4.28572,3.92857 0,-8.57143 7.14286,-2.5 7.14286,6.07143 6.78571,2.85715 6.78571,2.85715 0,0 1.42858,13.92857 3.21429,7.14285 1.78571,-6.78571 0.71429,-7.5 2.14286,-8.57143 1.42857,-1.07143 0,-10 4.28571,1.07143 4.28572,11.07143 6.42857,1.07143 8.21429,1.78572 1.78571,0.71428 4.28571,1.42857 5,4.28571 0.71428,2.85714 -2.14286,7.5 1.42857,3.92857 3.57143,-3.57143 5.35714,-5.35714 7.85714,-2.14286 2.5,3.21429 4.28572,11.78572 3.21429,4.28572 -1.07143,-7.5 5.35714,0 -1.07143,-8.21429 -6.42857,-8.21428 -6.07143,-9.28571 -3.57143,-8.92857 2.5,0.35714 12.14286,8.92857 3.92857,-0.35714 -8.21428,-9.28572 -9.28571,-11.78572 -9.28571,-11.78572 0,0 -1.78572,-2.5 -1.07143,-7.5 0.71428,-5 6.42857,-0.35714 1.78571,-8.21428 -4.64285,-7.85714 2.60068,-6.72411 -7.5,-10 -13.21429,-4.28571 -9.28571,-13.57143 -18.21428,-9.28571 -10.11014,4.85287 -9.28572,-9.28572 -14.64286,-6.78572 -5.35714,2.5 -4.64286,2.5 -6.42857,2.85715 -1.78572,0.35714 -5,3.92857 -10,-3.21429 -5,-7.14286 0.71428,-7.14286 -5,-7.14286 -5.71429,0 1.78571,-6.78571 -9.64286,2.5 -11.42857,9.28572 -9.64285,0.71429 -20.71428,0.71429 -11.07143,0 -13.57143,4.28571 -17.85715,2.85714 -4.28571,-1.42857 2.14286,-5.71428 -8.92857,0.35715 -11.07143,6.07142 -12.5,6.78571 -12.5,6.78571 0,0 -6.42857,2.14286 -7.85714,2.5 -1.42857,0.35714 6.78571,-3.92857 -9.28572,1.07143 -16.07142,5 -18.21428,5 -20.35714,7.5 -2.14286,2.49999 -1.07142,10.71428 -6.42857,15.35714 -5.35714,4.64285 0.9849,-7.19532 -8.21429,3.21428 -13.57143,15.35715 -2.28532,9.05433 -5,17.5 -3.21428,10 3.57143,5.35715 3.57143,5.35715 0,0 -10.16651,18.84568 0.71429,6.42857 5.77754,-6.59329 12.85714,-12.14286 8.92857,-5.00001 -8.94993,16.27258 -5.35714,8.21429 -2.14286,7.85715 3.21429,-0.35714 12.85715,-8.57143 12.85715,-8.57143 -1.07143,0 -2.14286,6.07143 -2.14286,6.07143 z"
         id="path3033"
         style="fill:#999999;stroke:none" />
    </g>
    <path
       d="m 27.225147,1052.5405 c 1.345894,-0.2804 1.401976,-0.3926 1.514134,-1.2897 0.112161,-0.8973 0.392551,-3.3087 0.05607,-3.8695 -0.336477,-0.5608 -1.962768,-0.8412 -2.747875,-1.7385 -0.785108,-0.8973 -1.009421,-3.1964 -1.009421,-3.1964 l 0.785107,0.055 c 0,0 0.224314,1.9628 0.841187,2.3552 0.616868,0.3926 2.131002,1.6264 2.523552,1.5143 0.392552,-0.1125 0.616867,-1.9067 0.953341,-2.075 0.336477,-0.1683 1.233739,-0.3925 1.570214,-1.1215 0.336473,-0.7291 -0.280397,-1.1777 -0.280397,-1.1777 l 0.785107,-0.114 c 0,0 0.224314,0.617 0.16824,1.0656 -0.05607,0.4488 0.392548,0.2804 0.729025,0.1124 0.336472,-0.1682 0.336472,-1.1216 0.336472,-1.1216 l 0.67295,-0.1682 c 0,0 0.112162,0.6729 -0.224315,1.1216 -0.336477,0.4487 -0.843703,0.9653 -1.40198,0.841 -0.252353,-0.055 -0.581814,0.3226 -0.98138,0.5993 -0.399563,0.2771 -0.869227,0.4523 -0.953346,0.6627 -0.196481,0.4911 -0.308428,1.3178 -0.308428,1.9907 -3e-6,0.5172 -0.112162,1.0655 -0.112162,2.2431 0,1.1777 -0.05606,2.131 0,2.5237 0.05607,0.3924 1.17766,0.785 1.17766,0.785 z"
       id="path3039"
       style="fill:#b3b3b3;stroke:none" />
    <path
       d="m 23.215501,1042.6145 c -0.22432,0.7011 0.39255,1.0094 0.644906,0.3926 0.252355,-0.6168 0.336472,-0.6449 0.196278,-0.1962 -0.140206,0.4485 0.364509,-0.3365 0.560786,-0.1409 0.196278,0.1961 0.336478,0.3364 0.336478,0.3364 l 0.813147,0.3084 c 0,0 -0.08413,0.027 0.224313,-0.3926 0.308434,-0.4206 0.953342,-0.3085 0.953342,-0.3085 0,0 0.308434,0.5047 0.588828,0.2805 0.280393,-0.2242 0.672947,-0.8412 0.757067,-0.6449 0.08413,0.1963 0.616867,0.5889 0.616867,0.5889 0,0 0.504715,0.3085 0.504715,0.084 0,-0.2243 0.08413,-0.4766 0.08413,-0.4766 l 0.672949,0.2244 c 0,0 0.560787,-0.729 0.616868,-0.5609 0.05606,0.1683 0.02803,0.7851 0.280396,0.7291 0.252355,-0.055 0,0.027 0.504712,-0.1682 0.504706,-0.1963 0.252352,-0.5047 0.785101,-0.2524 0.532755,0.2524 0.364516,-0.2523 0.813146,0 0.448634,0.2524 0.280397,-0.6449 0.672951,-0.141 0.392553,0.5048 0.448629,0 0.50471,0.7292 0.05606,0.7288 -0.196278,1.458 0.05606,0.841 0.252356,-0.6168 0.280394,-0.9814 0.280394,-0.9814 l 0,-0.4766 0.560792,0.617 0.700983,0.5046 -0.644905,-1.1216 0.700986,0.5046 c 0,0 -0.168233,-0.6168 -0.196275,-0.6729 -0.02803,-0.055 0.168238,0.056 0.336472,0.1683 0.168237,0.111 0.392553,0.3926 0.532753,0.3365 0.140192,-0.055 0.58883,0.027 0.140192,-0.4207 -0.44863,-0.4487 -0.252358,0 -0.560788,-0.645 -0.30844,-0.6447 -0.448634,-0.9253 -0.476674,-1.3177 -0.02803,-0.3925 0.448635,0.673 0.560789,0.8413 0.112162,0.1679 0.700987,0.3924 0.700987,0.3924 0,0 0.252358,-0.5047 0,-0.8413 -0.252353,-0.3364 -0.53275,-1.2335 -0.729027,-1.3178 -0.196275,-0.084 -0.476666,0.1683 -1.177656,-0.2522 -0.700991,-0.4207 -0.336476,-0.617 -1.00942,-0.5609 -0.67295,0.055 -1.009423,0.1683 -1.710411,0 -0.700989,-0.1683 -0.336477,-0.4766 -1.570214,-0.2804 -1.233732,0.1964 -0.252352,0.1682 -1.317856,0.1964 -1.065498,0.027 -0.729021,-0.055 -1.401972,0.027 -0.672949,0.084 -0.56079,0.2244 -1.289817,0.2244 -0.729026,0 0.02806,-0.4207 -1.037461,0 -1.065498,0.4205 -0.392552,0.5325 -1.486094,0.5607 -1.093538,0.027 -0.89726,-0.6168 -1.401978,0.027 -0.504706,0.645 -0.336471,0.3365 -0.588825,0.8974 -0.252358,0.5608 -0.616867,0.7571 -0.785105,1.2056 -0.16824,0.4487 -0.560794,0.8133 -0.308434,0.9814 0.252356,0.1681 -0.476674,0.6168 0.700985,0.055 1.177657,-0.5607 1.68237,-1.0654 1.401972,-0.729 -0.280391,0.3365 -0.729021,0.729 -0.869221,0.8692 -0.140191,0.141 -0.252358,0.4487 0.05609,0.2526 0.308431,-0.1965 1.093537,-0.8135 1.093537,-0.8135 z"
       id="path3041"
       style="fill:#999999;stroke:none" />
    <path
       d="m 147.3415,1052.5501 c 1.34589,-0.2803 1.40198,-0.3925 1.51413,-1.2897 0.11216,-0.8973 0.39255,-3.3088 0.056,-3.8695 -0.33647,-0.5608 -1.96276,-0.8414 -2.74787,-1.7385 -0.78511,-0.8972 -1.00942,-3.1964 -1.00942,-3.1964 l 0.78511,0.056 c 0,0 0.22431,1.9628 0.84118,2.3554 0.61688,0.3925 2.131,1.6261 2.52356,1.5139 0.39256,-0.1125 0.61688,-1.9065 0.95333,-2.0748 0.3365,-0.1683 1.23377,-0.3926 1.57023,-1.1216 0.33647,-0.7289 -0.2804,-1.1776 -0.2804,-1.1776 l 0.78512,-0.1125 c 0,0 0.22431,0.6169 0.16823,1.0656 -0.0559,0.4484 0.39255,0.2804 0.72903,0.111 0.33647,-0.1683 0.33647,-1.1214 0.33647,-1.1214 l 0.67295,-0.1684 c 0,0 0.11217,0.6731 -0.22431,1.1215 -0.33649,0.4487 -0.84372,0.9652 -1.40198,0.8413 -0.25235,-0.055 -0.58182,0.3223 -0.98138,0.5993 -0.39958,0.277 -0.86923,0.4522 -0.95335,0.6624 -0.19648,0.4913 -0.30843,1.3178 -0.30843,1.9909 0,0.5169 -0.11218,1.0655 -0.11218,2.2432 0,1.1775 -0.0561,2.1309 0,2.5235 0.0561,0.3925 1.17768,0.785 1.17768,0.785 z"
       id="path3043"
       style="fill:#b3b3b3;stroke:none" />
    <path
       d="m 155.98381,1042.6647 c -0.40811,0.4822 -0.77912,0.4451 -0.74204,-0.073 -0.44521,-0.6308 -0.11127,-0.4081 -0.29682,0 -0.18551,0.408 -0.25968,0.8534 -0.4823,0.9647 -0.22261,0.111 -0.5936,0.5936 -0.55652,0 0.0372,-0.5936 0.37101,-0.742 0.11128,-1.0018 -0.25972,-0.2596 -0.1855,-0.371 -0.44523,-0.334 -0.2597,0.038 -0.33389,0.15 -0.4823,0.2598 -0.14832,0.111 -0.40809,0.4824 -0.4823,0.1856 -0.0742,-0.2969 0,-0.6678 -0.14832,-0.6307 -0.14832,0.036 -0.55653,0.7791 -0.55653,0.7791 l -0.63071,-0.3711 c 0,0 0.2968,-0.4451 0.11127,-0.4824 -0.18549,-0.037 -0.5194,-0.2596 -0.77912,0.2597 -0.2597,0.5195 -0.18551,0.7791 -0.44521,0.7422 -0.25972,-0.037 -0.48232,0.15 -0.48232,-0.1109 0,-0.2598 0,-0.2968 -0.037,-0.5195 -0.037,-0.2226 -0.25971,-0.7049 -0.51942,-0.4822 -0.25971,0.2226 -0.1484,0.073 -0.37101,0.3338 -0.22261,0.2598 -0.0742,0.4451 -0.48231,0.2598 -0.40812,-0.1855 -0.0371,0.037 -0.40812,-0.1855 -0.371,-0.2226 -0.66781,-0.4081 -0.48231,-0.6678 0.1855,-0.2598 0.0371,-0.2226 0.37101,-0.4081 0.33391,-0.1857 0.55652,-0.15 0.55652,-0.4823 0,-0.3341 -0.29681,-0.2229 0,-0.8907 0.2968,-0.6676 -0.37102,-0.5934 0.37101,-0.8531 0.74202,-0.2598 0.40811,-0.334 0.96463,-0.334 0.55652,0 0.48232,-0.8162 1.03884,-0.111 0.55652,0.705 0.51942,1.2984 0.55652,0.705 0.0372,-0.5937 -0.29682,-0.8535 0.11142,-0.9646 0.4081,-0.111 -0.22261,-0.2227 0.59361,-0.15 0.81623,0.073 0.48233,-0.073 1.11306,0.111 0.63071,0.1858 1.26142,0.2599 1.26142,0.2599 0,0 0.37102,0.038 0.63071,-0.073 0.25973,-0.1125 -0.2968,-0.1125 0.29682,-0.1125 0.59362,0 0.14832,-0.6309 0.74203,0.1125 0.59361,0.7419 0.37101,0.7791 0.70492,0.9274 0.33392,0.15 0.22258,0 0.74201,0.2598 0.51942,0.2597 1.03883,0.1499 0.77912,0.5936 -0.2597,0.4451 -0.18549,1.0389 -0.44521,1.1501 -0.25972,0.1124 -0.7791,0 -0.59361,0.4082 0.18551,0.408 0.70492,0.1853 0.48232,0.6306 -0.22262,0.4453 0,0.6306 -0.37103,0.4823 -0.37102,-0.15 -0.4823,-0.2597 -0.63071,-0.5195 -0.14847,-0.2596 -0.55653,-1.0759 -0.37102,-0.5564 0.18551,0.5195 0.18551,0.7421 0.29682,0.9646 0.11128,0.2227 0.0742,1.0018 -0.11128,0.7421 -0.18551,-0.2598 -0.4823,-0.8162 -0.4823,-0.8162 z"
       id="path3045"
       style="fill:#999999;stroke:none" />
    <path
       d="m 141.04062,1043.1233 c 0.4272,0.4928 0.15244,1.0956 0.46006,0.2958 0.16432,-0.4273 0,-0.5915 0.29577,0.1642 0.29575,0.7558 0.28576,0.5396 0.49293,0.1305 0.21958,-0.4325 0.0328,-0.8871 0.26289,-0.066 0.23003,0.8214 -0.26289,0.427 0.42721,0.066 0.69009,-0.3615 0.23003,-0.3286 0.6901,-0.1971 0.46006,0.132 0.39434,0.132 0.62437,0.033 0.23004,-0.099 0.0657,-0.5588 0.39435,-0.132 0.32862,0.4273 0.23003,0.2958 0.0657,0.4273 -0.1643,0.132 0.2629,0 0.46008,0.066 0.19716,0.066 -0.55866,-0.69 0.0986,-0.132 0.58453,0.4969 0.52579,0.066 0.0986,-0.2629 -0.4272,-0.3284 -0.16431,-0.7557 0.36148,-0.066 0.52579,0.6902 -0.23003,0.2301 0.2629,0.2959 0.49293,0.066 0.0329,0.2629 0.65724,-0.4931 0.62437,-0.7557 0.52579,-0.2299 0.88728,-0.033 0.36147,0.1972 0.36147,-0.6243 0.46006,-0.2627 0.0986,0.3613 0,0.099 0.52579,0.099 0.52579,0 0.59152,1.2486 0.42721,0.3614 -0.16432,-0.8874 -1.24876,-1.5116 -0.62438,-1.0188 0.62438,0.493 0.98547,0.063 1.28163,0.1973 0.36148,0.1643 0.49284,0.081 -0.0328,-0.3616 -0.78466,-0.662 0.39434,0.066 0.0328,-0.5915 -0.3615,-0.6572 0.39359,-0.2966 0.0328,-0.6572 -0.39435,-0.3944 -0.36149,-0.1972 -0.78869,-0.3615 -0.79747,-0.3069 -0.19718,-0.3943 -0.52579,-0.3943 -0.32863,0 -0.32863,0.098 -0.42721,0.3614 -0.0986,0.2629 -0.0986,0.098 -0.46007,-0.3287 -0.36148,-0.4271 -0.13143,-0.6899 -0.65724,-0.493 -0.5258,0.1972 0.0328,-0.1319 -0.88728,0.2958 -0.92013,0.4274 -0.82154,-0.4927 -1.34733,0.1005 -0.32235,0.3626 0,-0.2301 -0.42721,-0.2301 -0.42721,0 0.23003,-0.2957 -0.46007,0 -0.6901,0.2957 -1.21589,0.1971 -1.64309,0.2629 -0.42722,0.066 0.0986,0.2299 -0.42722,0.2299 -0.52579,0 -0.29575,-0.3616 -0.8544,0.066 -0.55866,0.4272 -0.75583,0.3943 -0.92014,0.6573 -0.16431,0.2627 -0.2629,0.3286 -0.0329,0.69 0.23004,0.3616 0.19718,0.3943 0.26289,0.5916 0.0657,0.1969 0.64356,0.085 0.29577,0.5914 -0.36148,0.5258 0.65724,0.097 0.65724,0.097 z"
       id="path3065"
       style="fill:#999999;stroke:none" />
    <path
       d="m 266.89816,1052.576 c -1.50475,-0.4212 -1.38437,-1.0835 -1.14361,-1.5046 0.24077,-0.4213 3.73179,-1.3244 3.73179,-1.3244 l -0.36112,-0.9028 c 0,0 -2.528,1.4448 -3.67161,1.3244 -1.14362,-0.1215 -0.84266,-1.5048 -0.84266,-1.5048 l 0.30094,-1.505 -0.6019,0.1215 c 0,0 -0.42134,0.9031 -0.42134,1.7456 0,0.8427 0.90286,1.2039 0.48152,1.5048 -0.42132,0.3009 -1.50474,-0.6018 -1.98626,-0.6621 -0.48152,-0.06 -1.08342,-0.3611 -0.96304,-0.9028 0.12042,-0.5417 0.30095,-1.3242 0.30095,-1.3242 l -0.78249,0.241 c 0,0 0.18058,1.1433 -0.36113,1.4445 -0.54171,0.3008 -1.62512,0.4814 -1.62512,0.4814 l -0.12043,0.602 c 0,0 1.74551,-0.7826 2.34741,-0.602 0.6019,0.1807 2.58818,0.8428 2.82894,1.1437 0.24076,0.3009 0.18057,1.3843 -0.90284,1.625"
       id="path3083"
       style="fill:#b3b3b3;stroke:none" />
    <path
       d="m 270.8362,1050.6609 c -0.17025,0.319 -0.42563,0.021 -0.63842,0.234 -0.21282,0.2129 -0.42561,-0.021 -0.36178,0.2767 0.0639,0.2978 -0.34046,0.1289 -0.1915,-0.3406 0.14892,-0.4682 0.532,-0.83 0.0426,-0.7235 -0.48942,0.108 -0.59586,0.084 -0.68098,0.1275 -0.0852,0.042 -0.29791,0.063 -0.23407,-0.5106 0.0639,-0.5747 0.27665,-0.2767 0.10648,-0.6386 -0.17025,-0.3616 0.0639,-0.6171 -0.27664,-0.3404 -0.3405,0.2768 -0.12777,-0.1914 -0.42562,-0.4042 -0.29793,-0.2128 -0.57458,0.042 -0.6597,-0.108 -0.0852,-0.15 0.42561,-0.8725 -0.19153,-0.5106 -0.61712,0.3617 -0.23407,0.851 -0.72351,0.2978 -0.48947,-0.5532 -0.19154,-0.8511 -0.53201,-0.5532 -0.34049,0.298 -0.27667,0.086 -0.34049,0.3618 -0.0639,0.2764 -0.0213,-0.8939 -0.23411,-0.3192 -0.21279,0.5745 0,0.1274 -0.31918,0.4893 -0.31922,0.3617 -0.17026,0.3617 -0.42561,0.1702 -0.25538,-0.1915 0.18376,-1.2134 -0.44689,-0.4893 -0.57459,0.6597 -0.89379,-0.5321 -0.87252,-0.021 0.0213,0.5106 0.0639,0.2552 0.0213,0.5106 -0.0426,0.2554 -0.30823,-1.0988 -0.57456,0.042 -0.14892,0.6386 -0.15457,-0.5148 -0.40433,-0.4466 -0.46817,0.129 -0.68098,0.8511 -0.74482,0.2766 -0.0639,-0.5746 -0.0213,-0.2553 -0.34049,0 -0.3192,0.2553 0.25537,0.2979 -0.51072,0.3618 -0.76609,0.063 -1.65988,-0.5959 -1.10659,0 0.55329,0.5957 1.48964,0.6381 0.59585,0.617 -0.89378,-0.021 -1.14914,-0.3191 -1.00017,-0.042 0.14892,0.2766 0.0639,0.129 0.14892,0.298 0.0852,0.1701 0.31921,-0.3832 0.14892,0.2552 -0.17025,0.6385 -0.14892,0.6385 -0.17025,0.8298 -0.0213,0.1917 0.29793,0.021 -0.0852,0.4258 -0.38305,0.4042 -0.34048,0.2342 -0.40433,0.5321 -0.0639,0.2978 0.2128,0.6171 -0.25535,0.468 -0.46819,-0.1499 -0.23411,-0.1915 -0.59586,-0.1064 -0.36177,0.085 -0.17026,0.2341 -0.40433,0.1064 -0.23409,-0.1274 0.34049,-0.2552 -0.29793,-0.1702 -0.63841,0.085 -0.68098,0.8511 -0.85121,-0.15 -0.17026,-1.0001 -0.46818,-0.8938 -0.36177,-1.3831 0.10647,-0.4894 -0.17025,-0.2553 0.085,-0.8938 0.25538,-0.6383 0.0426,-0.4044 0.5533,-0.83 0.51072,-0.4256 -0.2128,0.021 0.68099,-0.851 0.89376,-0.8726 -0.38307,0.1289 1.00016,-0.979 1.38323,-1.1065 0.91505,-1.1704 1.40452,-1.1065 0.48944,0.063 0.4256,-0.3193 0.89377,-0.4045 0.46818,-0.086 0.0852,-0.4256 0.65969,-0.2978 0.57457,0.129 0.10647,-1.0216 0.80866,-0.4894 0.70225,0.5318 -0.19153,0.3193 0.91507,0.063 1.10657,-0.2554 0.27663,-0.1916 1.1917,-0.2554 0.91506,-0.063 -0.14907,-0.4469 0.9576,-0.063 1.10659,0.3831 0.21282,0.4684 1.10659,0.3831 0.89378,-0.084 0.8725,0.021 1.23426,-0.15 0.36178,-0.1702 0.24335,-1.1147 1.9578,0.042 0.85124,0.5745 0.0852,0.468 0.55331,0.8724 0.85903,0.7418 0.40432,0 1.08528,0.4682 0.68098,0.468 0.70226,0.3192 0.87251,0.7873 0.17023,0.4682 0.23409,0.2341 0.23409,0.7023 0,0.4681 0,0.6384 0,0.8724 0,0.2342 0.38303,0.063 -0.0214,1.1492 -0.40433,1.0855 -0.27665,0.1705 -0.36178,0.5532 -0.085,0.3832 -0.085,0.5108 -0.17023,0.5747 -0.0852,0.063 -0.95763,-0.7022 -0.93635,-0.4043 0.0214,0.298 -0.10648,0.8299 -0.10648,0.8299 z"
       id="path3085"
       style="fill:#999999;stroke:none" />
    <path
       d="m 4.453615,1052.6675 c 0.9471713,-0.3638 0.8714007,-0.9355 0.7198526,-1.2993 -0.1515482,-0.3635 -2.3489723,-1.1429 -2.3489723,-1.1429 l 0.2273186,-0.7796 c 0,0 1.5912385,1.247 2.311091,1.1431 0.7198449,-0.1035 0.5304076,-1.299 0.5304076,-1.299 l -0.1894297,-1.2994 0.378867,0.105 c 0,0 0.2652076,0.7797 0.2652076,1.5069 0,0.7275 -0.5683043,1.0395 -0.3030964,1.2992 0.2652074,0.2597 0.9471635,-0.5198 1.2502602,-0.5717 0.3030965,-0.051 0.6819633,-0.3116 0.6061929,-0.7794 -0.075764,-0.4676 -0.1894371,-1.1432 -0.1894371,-1.1432 l 0.4925187,0.2079 c 0,0 -0.1136602,0.9872 0.2273336,1.2474 0.3409708,0.2596 1.0229342,0.4154 1.0229342,0.4154 l 0.075763,0.5197 c 0,0 -1.0987121,-0.6755 -1.4775865,-0.5197 -0.378867,0.156 -1.6291197,0.7277 -1.7806679,0.9874 -0.1515483,0.2599 -0.1136601,1.1953 0.5683041,1.4031"
       id="path3091"
       style="fill:#b3b3b3;stroke:none" />
    <path
       d="m 1.974834,1051.014 c 0.1071635,0.2756 0.2679091,0.018 0.4018489,0.202 0.1339464,0.1838 0.2679017,-0.019 0.2277227,0.2389 -0.040262,0.2572 0.2143124,0.1095 0.1205512,-0.2941 -0.093761,-0.4042 -0.334879,-0.7164 -0.02679,-0.6246 0.3080731,0.091 0.3750653,0.073 0.4286396,0.1094 0.053506,0.037 0.1875216,0.054 0.1473432,-0.4409 -0.040186,-0.4961 -0.1741336,-0.2389 -0.066978,-0.5511 0.107156,-0.3124 -0.040112,-0.5331 0.1741334,-0.2941 0.2143199,0.2388 0.080359,-0.1651 0.2679018,-0.3491 0.1875291,-0.1836 0.3616625,0.038 0.4152517,-0.091 0.053508,-0.129 -0.2679092,-0.7531 0.1205512,-0.4409 0.388446,0.3122 0.1473432,0.7347 0.4554233,0.2573 0.3080881,-0.4778 0.1205512,-0.735 0.3348713,-0.4778 0.2143276,0.2572 0.1741337,0.073 0.2143276,0.3123 0.040262,0.2389 0.013392,-0.7716 0.1473432,-0.2757 0.1339539,0.4961 0,0.1095 0.2009168,0.4228 0.2009245,0.3122 0.107171,0.3122 0.2679015,0.1485 0.1607456,-0.1655 -0.1156727,-1.0479 0.2812974,-0.4226 0.3616624,0.5695 0.5625867,-0.4593 0.549184,-0.018 -0.013392,0.4409 -0.040262,0.2204 -0.013392,0.4409 0.026792,0.2206 0.1940021,-0.9489 0.3616549,0.037 0.093761,0.5511 0.097287,-0.4449 0.2545063,-0.3859 0.2946851,0.1095 0.4286397,0.7348 0.4688186,0.2387 0.040262,-0.4959 0.013392,-0.2204 0.2143196,0 0.2009244,0.2206 -0.1607303,0.2574 0.3214834,0.3124 0.4822141,0.055 1.0448085,-0.5144 0.696534,0 -0.3482594,0.5146 -0.9376447,0.5512 -0.3750502,0.5329 0.5625867,-0.018 0.7233247,-0.2757 0.6295639,-0.038 -0.093767,0.2389 -0.040262,0.1094 -0.093767,0.2572 -0.053506,0.1484 -0.2009245,-0.3307 -0.093768,0.2204 0.107156,0.5513 0.093768,0.5513 0.107156,0.7166 0.013392,0.1654 -0.1875215,0.018 0.053582,0.3674 0.2411032,0.3491 0.2143049,0.2022 0.2544989,0.4594 0.040112,0.2572 -0.1339464,0.5328 0.1607379,0.4041 0.2946925,-0.1289 0.1473507,-0.1654 0.3750578,-0.091 0.2277231,0.073 0.1071631,0.2021 0.2545061,0.091 0.147343,-0.1095 -0.2143197,-0.2204 0.187522,-0.1484 0.401856,0.073 0.428647,0.735 0.535803,-0.129 0.107163,-0.8635 0.294685,-0.7716 0.227715,-1.1944 -0.06698,-0.4224 0.107164,-0.2204 -0.05351,-0.7716 -0.160746,-0.551 -0.02679,-0.3491 -0.348274,-0.7165 -0.321476,-0.3676 0.133954,0.018 -0.428633,-0.735 -0.5625941,-0.753 0.241111,0.111 -0.6295638,-0.8451 -0.8706748,-0.9553 -0.5759898,-1.0106 -0.8840704,-0.9553 -0.3080879,0.054 -0.2679014,-0.2755 -0.5625866,-0.349 -0.2946927,-0.074 -0.053583,-0.3675 -0.4152444,-0.2573 -0.3616622,0.111 -0.066978,-0.882 -0.5090047,-0.4226 -0.4420353,0.4593 0.1205513,0.2756 -0.5759898,0.054 -0.6965341,-0.2205 -0.1741334,-0.1655 -0.7501158,-0.2205 -0.5759899,-0.054 0.093761,-0.3859 -0.6027731,-0.054 -0.6965414,0.3308 -0.1339465,0.4043 -0.6965414,0.3308 -0.562587,-0.073 -0.5491913,0.018 -0.7768994,-0.1289 -0.2277228,-0.1485 -0.1531795,-0.9625 -1.2323373,0.038 -0.5357958,0.4959 -0.053507,0.404 -0.3482744,0.7531 -0.5407201,0.6405 -0.2544987,0 -0.6831458,0.404 -0.4286399,0.4043 -0.4420279,0.2757 -0.549184,0.68 -0.1071635,0.4043 -0.14734175,0.2021 -0.14734175,0.6062 0,0.4043 0,0.5512 0,0.7534 0,0.2022 -0.24111069,0.054 0.0133922,0.9921 0.25450625,0.9368 0.17413345,0.1484 0.22771535,0.4776 0.053508,0.3308 0.053508,0.4411 0.1071559,0.4961 0.053583,0.054 0.6027732,-0.6062 0.5893853,-0.349 -0.013392,0.2572 0.066978,0.7164 0.066978,0.7164 z"
       id="path3093"
       style="fill:#999999;stroke:none" />
    <path
       d="m 86.808253,1035.7215 c -0.527803,0.624 -1.007639,0.576 -0.959656,-0.096 -0.575787,-0.8157 -0.143955,-0.5279 -0.383865,0 -0.239912,0.5279 -0.335865,1.1036 -0.623772,1.2476 -0.287895,0.1455 -0.767708,0.7677 -0.719732,0 0.04805,-0.768 0.479827,-0.9597 0.143956,-1.2956 -0.335867,-0.3359 -0.239912,-0.4799 -0.57578,-0.4319 -0.335889,0.046 -0.431857,0.1919 -0.623779,0.3359 -0.191936,0.1455 -0.527803,0.6236 -0.623772,0.24 -0.09597,-0.384 0,-0.8637 -0.191944,-0.8159 -0.19192,0.046 -0.719723,1.0078 -0.719723,1.0078 l -0.815702,-0.4799 c 0,0 0.383858,-0.5757 0.14394,-0.6237 -0.239912,-0.046 -0.671748,-0.3359 -1.007638,0.3358 -0.335865,0.6718 -0.239898,1.0078 -0.57578,0.9595 -0.335883,-0.046 -0.623779,0.1923 -0.623779,-0.1455 0,-0.3358 0,-0.3838 -0.04805,-0.6718 -0.0479,-0.2878 -0.33589,-0.9114 -0.671758,-0.6236 -0.335881,0.2879 -0.191937,0.096 -0.47984,0.4316 -0.287899,0.3361 -0.09595,0.576 -0.623767,0.3361 -0.527803,-0.24 -0.04805,0.046 -0.527803,-0.24 -0.479818,-0.2879 -0.86369,-0.5277 -0.62378,-0.8636 0.239915,-0.336 0.04805,-0.2878 0.479836,-0.5279 0.431834,-0.2398 0.719726,-0.1918 0.719726,-0.6238 0,-0.4317 -0.383859,-0.2879 0,-1.1516 0.383856,-0.8633 -0.479812,-0.7675 0.479833,-1.1036 0.959653,-0.3358 0.527805,-0.4318 1.247553,-0.4318 0.719723,0 0.623755,-1.0557 1.343505,-0.1454 0.719723,0.9116 0.671748,1.6792 0.719723,0.9116 0.04805,-0.7678 -0.383858,-1.1036 0.143971,-1.2476 0.527803,-0.1454 -0.287911,-0.2879 0.767702,-0.1918 1.05563,0.096 0.62378,-0.096 1.43949,0.144 0.815699,0.2401 1.6314,0.3361 1.6314,0.3361 0,0 0.479828,0.047 0.815717,-0.096 0.335867,-0.1455 -0.383882,-0.1455 0.383857,-0.1455 0.767711,0 0.191924,-0.8156 0.959646,0.1455 0.767703,0.9598 0.479813,1.0076 0.91167,1.1995 0.431835,0.1919 0.28789,0 0.95964,0.3359 0.671755,0.3359 1.343512,0.1919 1.007638,0.7677 -0.335883,0.5757 -0.239913,1.3436 -0.575795,1.4875 -0.335883,0.1455 -1.007623,0 -0.767711,0.5276 0.239899,0.5279 0.91167,0.2403 0.623766,0.8158 -0.287898,0.5759 0,0.8157 -0.479835,0.6238 -0.479813,-0.1918 -0.623758,-0.336 -0.815694,-0.6719 -0.191929,-0.3356 -0.719732,-1.3914 -0.479834,-0.7197 0.23993,0.6719 0.23993,0.9597 0.383858,1.2477 0.14397,0.2878 0.09597,1.2955 -0.14394,0.9597 -0.23993,-0.3359 -0.623775,-1.0556 -0.623775,-1.0556 z"
       id="path3097"
       style="fill:#999999;stroke:none" />
    <path
       d="m 53.81637,1052.5216 c 2.11123,-0.3361 1.823338,-1.1996 3.070875,-1.6795 1.247551,-0.4798 2.351143,0.3357 3.118868,-0.5278 0.767719,-0.8637 1.15158,-4.9902 -0.191923,-5.7099 -1.343526,-0.7199 -7.149402,-3.9347 -7.149402,-5.2302 0,-1.2954 -0.431836,-2.0633 -1.103606,-2.399 -0.67175,-0.336 -1.583418,-1.6795 -1.583418,-1.6795 l 0.911668,-0.2878 c 0,0 1.487465,2.0153 2.111232,2.0153 0.623769,0 2.15922,0.1454 2.111234,-0.5758 -0.04805,-0.7198 -0.383858,-1.7275 -0.383858,-1.7275 l 0.76771,-0.046 c 0,0 0.767724,0.9597 0.575796,1.7755 -0.191924,0.8157 -1.103608,1.4876 -1.775357,1.4396 -0.671756,-0.046 -0.767707,0.7195 -0.527811,1.1034 0.239922,0.3838 2.783001,2.2071 3.358782,2.6391 0.575802,0.4319 2.783,1.6313 3.118866,1.5355 0.33587,-0.096 1.727366,-2.1114 2.111227,-2.8311 0.383863,-0.7197 0.479831,-2.5912 -0.239914,-3.2149 -0.719731,-0.6236 -1.391483,-2.1591 -1.151584,-2.6389 0.239915,-0.4799 -0.959642,-3.1189 -0.959642,-3.1189 l 0.911666,-0.1455 c 0,0 0.287891,1.6792 0.911668,1.7752 0.623776,0.096 1.631411,-0.2399 2.063252,-0.1918 0.431836,0.047 0,-1.4874 0,-1.4874 l 0.767718,0 c 0,0 -0.0479,1.2473 0.287897,1.3913 0.335881,0.1455 0.623773,-0.096 1.151583,-0.24 0.527803,-0.1454 0.671748,-1.4395 0.671748,-1.4395 l 0.863694,-0.2877 c 0,0 -0.0479,1.1515 -0.28789,1.4394 -0.239913,0.2878 -0.815717,0.9117 -1.391497,1.0555 -0.575803,0.1455 -2.063253,0.2401 -2.447114,0.3361 -0.383863,0.096 -1.29553,0.2878 -1.29553,0.7197 0,0.4318 0.815699,1.6314 1.24755,2.3992 0.431841,0.7676 0.0479,2.207 0.431841,2.3031 0.383858,0.096 5.278066,-1.1035 5.661946,-1.9195 0.383858,-0.8156 0.959647,-2.5428 0.623758,-2.8309 -0.335868,-0.2878 -1.247538,-1.1035 -1.247538,-1.4874 0,-0.3838 0.2399,-1.3914 0.2399,-1.3914 l 1.007638,-0.046 c 0,0 -0.527803,1.6313 -0.143955,1.8233 0.383858,0.192 1.103605,1.2476 1.583418,0.9597 0.479833,-0.2878 1.775362,-0.5758 1.871331,-0.9597 0.09595,-0.3838 -0.479827,-1.7272 -0.479827,-1.7272 l 0.767716,-0.1455 c 0,0 0.911662,1.4876 0.671749,1.9672 -0.239915,0.48 -1.151577,1.1517 -1.631402,1.3436 -0.47982,0.1919 -1.295521,0.288 -1.439482,0.5278 -0.14394,0.24 -0.191922,1.9194 -0.719725,2.6391 -0.527812,0.7198 -2.878953,1.7274 -3.838613,1.9672 -0.959648,0.2398 -2.207183,0.096 -2.495088,0.7199 -0.28789,0.6237 -1.439475,2.7828 -1.58342,3.2147 -0.143955,0.432 0.767722,1.9193 0.767722,2.687 0,0.7677 -0.287894,3.023 -0.287894,3.4549 0,0.4317 2.015262,2.8789 2.015262,2.8789 l -1.631401,0 -0.959645,-1.2476 0.431839,1.1517 -2.351143,0 c 0,0 -0.287891,-0.9598 -0.863689,-1.1995 -0.33731,-0.1425 -1.209011,-0.1395 -1.871313,-0.046 -1.355278,0.1831 -1.772624,0.5687 -2.159222,0.9117 -0.438054,0.389 -1.103592,0.3359 -1.103592,0.3359 z"
       id="path3101"
       style="fill:#b3b3b3;stroke:none" />
    <path
       d="m 72.507236,1032.2948 c -0.46254,0.501 -0.46898,1.414 -0.451107,0.3096 0.01781,-1.1045 -0.212286,-2.0796 -0.410316,-1.1782 -0.198046,0.9015 -0.05148,0.8622 -0.248804,0.9466 -0.197304,0.084 -0.113769,1.0987 -0.391845,0.1222 -0.278076,-0.9778 -0.213761,-0.4451 -0.368871,-0.2622 -0.155159,0.183 -0.112946,0.2817 -0.349581,0.2193 -0.236744,-0.06 -0.256653,0.2732 -0.569036,-0.1301 -0.312409,-0.4032 -0.754715,0.3825 -1.126462,0.1681 -0.371726,-0.2146 -0.03872,-1.004 -0.17169,-0.3869 -0.132958,0.6169 -0.08516,0.04 -0.08516,0.04 0,0 0.268799,-1.2817 -0.106509,-0.6314 -0.375345,0.6508 0.06075,1.3977 -0.572644,0.7351 -0.633388,-0.6627 -0.356714,-1.2711 -0.678412,-0.7136 -0.321716,0.5578 -0.375323,0.6507 -0.375323,0.6507 0,0 -0.112254,-0.5355 -0.315259,-0.3555 -0.20304,0.1803 -0.05664,0.1424 -0.265233,0.4169 -0.208749,0.276 -0.08711,-0.1509 -0.400332,0.2646 -0.313121,0.4137 0.08649,0.9664 -0.499007,0.3066 -0.585468,-0.6599 -0.06432,-0.5326 -0.585468,-0.6599 -0.521146,-0.1273 -0.486841,-0.7018 -0.712743,-0.1387 -0.225898,0.5632 -0.205882,0.228 -0.33028,0.7012 -0.124385,0.4734 -0.117269,1.9638 -0.414646,0.5041 -0.297367,-1.4599 0.213877,-2.7752 -0.294505,-1.5078 -0.508304,1.2676 -0.436791,0.07 -0.749932,0.484 -0.313119,0.4139 -0.395329,0.9857 -0.609071,0.5403 -0.213759,-0.4451 0.04862,-0.8143 -0.388165,-0.7442 -0.436792,0.07 -0.653409,-0.3272 -0.814247,-0.049 -0.160888,0.279 -0.168719,-0.3946 -0.580496,0.061 -0.411787,0.4562 -0.120822,-0.3917 -0.507584,0.4505 -0.386751,0.842 -0.381041,0.7464 -0.448971,1.0788 -0.0026,1.1221 -0.514107,0.8604 -1.020872,0.9967 -0.293104,0.079 -0.444646,-0.6032 -0.532592,0.064 -2.851431,2.0888 2.024526,-3.416 1.154582,-2.4307 -2.109638,2.3096 -2.102169,0.2266 -1.317516,-1.2804 0.434663,-0.8393 -0.86214,-0.052 0.39535,-0.9858 1.257494,-0.9344 0.792082,-0.3851 1.257494,-0.9344 0.465387,-0.5489 -0.329549,-0.1159 0.868588,-0.8614 1.171897,-1.5613 0.962168,0 1.531311,-1.1021 0.203774,-0.9975 1.860128,-0.9547 1.860128,-0.9547 1.188122,1.0325 0.199437,0.6851 2.118171,0.7516 1.918753,0.067 0.521883,-0.6899 1.966643,0.069 1.444779,0.7593 0.425681,-0.955 2.614657,-0.5841 2.18896,0.3713 1.299794,0.5904 2.229879,0.3095 0.930063,-0.2809 1.136889,0.7281 1.136889,0.7281 0,0 1.14742,-0.7009 1.74433,-0.2324 0.596936,0.4681 0.591013,-0.28 1.511774,0.3998 0.92077,0.6799 0.580695,0.7825 0.915963,0.8025 0.335286,0.02 0.652896,0.3359 0.604273,1.1501 -0.294976,1.4259 0.649872,0.5682 0.087,0.9581 -0.902194,0.6192 -1.232804,-0.012 -0.976852,0.5319 0.25594,0.5441 -0.317823,1.0251 -0.317823,1.0251 0,0 0.32024,1.0768 -0.307412,0.3184 -0.627648,-0.7587 -0.815646,-1.6353 -0.714857,-0.9083 0.100793,0.7271 0.03857,0.9638 0.03857,0.9638 l -0.568317,-0.9472 c 0,0 0.574027,0.8516 -0.06578,1.1015 -0.639844,0.2504 -0.549768,0.352 -0.78066,0.1937 -0.230821,-0.1594 0.02573,-0.4309 -0.27596,-0.2084 -0.301675,0.2222 0.128672,1.0652 -0.352431,0.2671 -0.481105,-0.7978 -0.381722,-1.657 -0.712002,-0.9558 -0.330302,0.7014 0.142222,1.6429 -0.03497,1.3919 -0.177303,-0.2508 -0.235901,-0.8792 -0.235901,-0.8792 z"
       id="path3099"
       style="fill:#999999;stroke:none" />
    <path
       d="m 48.394344,1035.9674 c 0.527805,0.624 1.007637,0.576 0.959654,-0.096 0.575788,-0.8157 0.143956,-0.5279 0.383866,0 0.239915,0.5279 0.335866,1.1036 0.623773,1.2476 0.287897,0.1455 0.767708,0.7677 0.719733,0 -0.04805,-0.768 -0.479828,-0.9597 -0.143955,-1.2956 0.335866,-0.3359 0.239914,-0.4799 0.575781,-0.4319 0.335889,0.046 0.431857,0.1919 0.623779,0.3359 0.191936,0.1455 0.527804,0.6236 0.623772,0.24 0.09597,-0.384 0,-0.8637 0.191943,-0.8159 0.191923,0.046 0.719727,1.0078 0.719727,1.0078 l 0.815702,-0.4799 c 0,0 -0.383859,-0.5757 -0.143955,-0.6237 0.239913,-0.046 0.671749,-0.3359 1.007637,0.3358 0.335868,0.6718 0.239899,1.0078 0.575781,0.9595 0.335881,-0.046 0.623779,0.1923 0.623779,-0.1455 0,-0.3358 0,-0.3838 0.04805,-0.6718 0.0479,-0.2878 0.335887,-0.9114 0.671755,-0.6236 0.335881,0.2879 0.191935,0.096 0.479843,0.4316 0.287896,0.3361 0.09595,0.576 0.623762,0.3361 0.527803,-0.24 0.04805,0.046 0.527803,-0.24 0.47982,-0.2879 0.863695,-0.5277 0.62378,-0.8636 -0.239913,-0.336 -0.04805,-0.2878 -0.479835,-0.5279 -0.431833,-0.2398 -0.719725,-0.1918 -0.719725,-0.6238 0,-0.4317 0.38386,-0.2879 0,-1.1516 -0.383858,-0.8633 0.479812,-0.7675 -0.479833,-1.1036 -0.959655,-0.3358 -0.527805,-0.4318 -1.24755,-0.4318 -0.719726,0 -0.62376,-1.0557 -1.343505,-0.1454 -0.719728,0.9116 -0.671749,1.6792 -0.719728,0.9116 -0.04805,-0.7678 0.38386,-1.1036 -0.14397,-1.2476 -0.527803,-0.1454 0.287914,-0.2879 -0.7677,-0.1918 -1.05563,0.096 -0.62378,-0.096 -1.439488,0.144 -0.815701,0.2401 -1.631405,0.3361 -1.631405,0.3361 0,0 -0.479825,0.047 -0.815715,-0.096 -0.335866,-0.1455 0.383882,-0.1455 -0.383858,-0.1455 -0.767707,0 -0.191922,-0.8156 -0.959647,0.1455 -0.767701,0.9598 -0.479811,1.0076 -0.91167,1.1995 -0.431835,0.1919 -0.287888,0 -0.959638,0.3359 -0.671755,0.3359 -1.34351,0.1919 -1.007638,0.7677 0.335883,0.5757 0.239915,1.3436 0.575798,1.4875 0.33588,0.1455 1.007622,0 0.767708,0.5276 -0.239898,0.5279 -0.91167,0.2403 -0.623765,0.8158 0.287897,0.5759 0,0.8157 0.479836,0.6238 0.479811,-0.1918 0.623756,-0.336 0.815692,-0.6719 0.191929,-0.3356 0.719734,-1.3914 0.479834,-0.7197 -0.239928,0.6719 -0.239928,0.9597 -0.383858,1.2477 -0.14397,0.2878 -0.09596,1.2955 0.14394,0.9597 0.239929,-0.3359 0.623772,-1.0556 0.623772,-1.0556 z"
       id="path3103"
       style="fill:#999999;stroke:none" />
    <path
       d="m 81.737732,1052.5501 c -1.684998,-0.3511 -1.755207,-0.4913 -1.89562,-1.6147 -0.140431,-1.1233 -0.491464,-4.1425 -0.0702,-4.8446 0.421247,-0.7019 2.457297,-1.0531 3.440216,-2.1764 0.982927,-1.1234 1.263753,-4.0017 1.263753,-4.0017 l -0.982928,0.07 c 0,0 -0.280825,2.4573 -1.053122,2.9487 -0.772297,0.4915 -2.667919,2.0362 -3.159381,1.8956 -0.491466,-0.1409 -0.772291,-2.387 -1.193536,-2.5976 -0.421262,-0.2105 -1.544603,-0.4916 -1.96585,-1.4041 -0.421251,-0.9127 0.351045,-1.4745 0.351045,-1.4745 l -0.98292,-0.141 c 0,0 -0.280834,0.7723 -0.210623,1.334 0.0702,0.5616 -0.491465,0.3511 -0.912712,0.1409 -0.421253,-0.2105 -0.421253,-1.404 -0.421253,-1.404 l -0.842508,-0.2105 c 0,0 -0.140416,0.8424 0.280834,1.404 0.421259,0.5616 1.05628,1.2084 1.755224,1.0531 0.315933,-0.071 0.728402,0.4037 1.228644,0.7503 0.50024,0.3467 1.088234,0.5661 1.193549,0.8293 0.245984,0.615 0.38614,1.65 0.38614,2.4926 0,0.6473 0.140432,1.3339 0.140432,2.8082 0,1.4744 0.0702,2.668 0,3.1594 -0.0702,0.4916 -1.474392,0.9829 -1.474392,0.9829 z"
       id="path3107"
       style="fill:#b3b3b3;stroke:none" />
    <path
       d="m 70.917951,1040.1739 c 0.510934,0.6038 0.975435,0.5573 0.928985,-0.093 0.557386,-0.7897 0.139351,-0.5108 0.371592,0 0.232245,0.5111 0.325144,1.0686 0.603828,1.2079 0.278693,0.1409 0.74318,0.7431 0.696736,0 -0.04648,-0.7433 -0.464483,-0.9291 -0.139351,-1.2542 0.325144,-0.3252 0.232245,-0.4645 0.557393,-0.418 0.325144,0.046 0.418036,0.1857 0.60383,0.3252 0.1858,0.1394 0.510935,0.6037 0.603836,0.2321 0.09295,-0.3716 0,-0.8361 0.185801,-0.7894 0.185794,0.045 0.696738,0.9752 0.696738,0.9752 l 0.789628,-0.4644 c 0,0 -0.371594,-0.5575 -0.139352,-0.6041 0.232234,-0.046 0.650277,-0.3248 0.975419,0.3254 0.325144,0.6501 0.232244,0.9754 0.557386,0.9289 0.325144,-0.046 0.603845,0.1857 0.603845,-0.1409 0,-0.3253 0,-0.3717 0.04648,-0.6505 0.04648,-0.2785 0.325144,-0.8824 0.650288,-0.6037 0.325142,0.2788 0.185791,0.093 0.464493,0.4181 0.278685,0.3251 0.09295,0.5573 0.603829,0.3251 0.510943,-0.2323 0.04648,0.046 0.510943,-0.2323 0.464484,-0.2785 0.836078,-0.5109 0.603842,-0.8362 -0.23225,-0.325 -0.04648,-0.2785 -0.4645,-0.5108 -0.418034,-0.2322 -0.696735,-0.1858 -0.696735,-0.6038 0,-0.4181 0.371592,-0.2788 0,-1.1149 -0.371586,-0.836 0.464499,-0.7432 -0.464486,-1.0682 -0.928981,-0.3251 -0.510945,-0.418 -1.207674,-0.418 -0.696734,0 -0.603834,-1.022 -1.300577,-0.1409 -0.696721,0.8824 -0.65028,1.6256 -0.696721,0.8824 -0.04648,-0.743 0.371592,-1.0682 -0.139351,-1.2074 -0.510936,-0.141 0.278693,-0.279 -0.743186,-0.186 -1.021882,0.093 -0.603836,-0.093 -1.393476,0.141 -0.789628,0.2322 -1.579264,0.325 -1.579264,0.325 0,0 -0.464486,0.046 -0.789628,-0.093 -0.325144,-0.141 0.371592,-0.141 -0.371595,-0.141 -0.743177,0 -0.185798,-0.7897 -0.928976,0.141 -0.743188,0.9289 -0.464488,0.9753 -0.882531,1.1614 -0.41805,0.1856 -0.278693,0 -0.928986,0.3249 -0.650277,0.3252 -1.300561,0.186 -0.975417,0.7433 0.32514,0.5573 0.232248,1.3007 0.557381,1.4398 0.325151,0.141 0.975431,0 0.743186,0.511 -0.232247,0.5111 -0.882531,0.2321 -0.603839,0.7897 0.278689,0.5575 0,0.7896 0.464496,0.604 0.464486,-0.186 0.60383,-0.3253 0.78963,-0.6505 0.185801,-0.3251 0.696736,-1.347 0.464484,-0.6967 -0.232233,0.6502 -0.232233,0.929 -0.371592,1.2075 -0.139351,0.2788 -0.09285,1.2542 0.139367,0.9291 0.232233,-0.3251 0.603821,-1.0219 0.603821,-1.0219 z"
       id="path3109"
       style="fill:#999999;stroke:none" />
    <path
       d="m 89.62617,1040.748 c -0.534838,0.6173 -0.190852,1.3716 -0.575982,0.3703 -0.205714,-0.5348 0,-0.7406 -0.370283,0.2057 -0.370267,0.9462 -0.357764,0.6758 -0.617129,0.1645 -0.274904,-0.5415 -0.04117,-1.1108 -0.329131,-0.082 -0.287986,1.0285 0.329131,0.5348 -0.534836,0.082 -0.863977,-0.4526 -0.287995,-0.4113 -0.863985,-0.2467 -0.575982,0.1645 -0.493701,0.1645 -0.781689,0.041 -0.287994,-0.1229 -0.08226,-0.6994 -0.493709,-0.1646 -0.411412,0.5349 -0.287987,0.3702 -0.08226,0.5349 0.205707,0.1645 -0.329131,0 -0.575989,0.083 -0.246844,0.082 0.699415,-0.864 -0.123425,-0.1645 -0.731818,0.6219 -0.65827,0.082 -0.123425,-0.3292 0.534837,-0.4115 0.205706,-0.9463 -0.452566,-0.083 -0.658261,0.864 0.287998,0.2881 -0.329131,0.3704 -0.617126,0.082 -0.04117,0.3292 -0.822832,-0.6171 -0.781697,-0.9463 -0.658277,-0.2881 -1.110842,-0.041 -0.452552,0.2469 -0.452552,-0.7818 -0.575975,-0.3292 -0.123424,0.4526 0,0.123 -0.658271,0.123 -0.658265,0 -0.740553,1.5634 -0.534844,0.4526 0.205711,-1.1108 1.563383,-1.8923 0.781696,-1.2753 -0.781696,0.6172 -1.233755,0.078 -1.604529,0.2467 -0.452567,0.2057 -0.617039,0.1034 0.04115,-0.4523 0.982358,-0.8291 -0.493701,0.082 -0.04115,-0.7409 0.452556,-0.8227 -0.492769,-0.3712 -0.04117,-0.8227 0.493694,-0.4936 0.452558,-0.2467 0.987394,-0.4525 0.998396,-0.384 0.246858,-0.4937 0.658272,-0.4937 0.411421,0 0.411421,0.1245 0.534844,0.4526 0.123424,0.3289 0.123424,0.123 0.575983,-0.4115 0.452565,-0.5348 0.164569,-0.864 0.822842,-0.6171 0.65827,0.2468 -0.04117,-0.1645 1.110826,0.3703 1.151973,0.5348 1.028546,-0.6172 1.68681,0.1244 0.40357,0.4539 0,-0.288 0.534853,-0.288 0.53484,0 -0.287993,-0.3703 0.575975,0 0.863985,0.3702 1.522256,0.2468 2.057095,0.329 0.534844,0.082 -0.123424,0.2881 0.534844,0.2881 0.658272,0 0.370276,-0.4526 1.069685,0.082 0.699414,0.5351 0.946258,0.4938 1.151972,0.8228 0.205705,0.3292 0.329139,0.4114 0.04115,0.864 -0.287994,0.4526 -0.246856,0.4939 -0.329138,0.7406 -0.08226,0.2468 -0.805704,0.1079 -0.370283,0.7405 0.452565,0.6584 -0.822833,0.123 -0.822833,0.123 z"
       id="path3111"
       style="fill:#999999;stroke:none" />
    <path
       d="m 93.144795,1052.7572 c -0.82136,-1.0416 -1.059793,-0.7932 -1.602907,-1.392 -0.403016,-0.4856 -0.604531,-2.8057 0.100749,-3.2103 0.705283,-0.4048 3.869523,-2.4794 3.869523,-3.2078 0,-0.7284 0.110272,-0.8929 0.462922,-1.0818 0.352637,-0.1888 0.83122,-0.9442 0.83122,-0.9442 l -0.478583,-0.1618 c 0,0 -0.780852,1.1332 -1.108299,1.1332 -0.327447,0 -1.249901,-0.062 -1.57398,-0.4664 -0.24653,-0.3078 -0.04797,-1.0425 -0.04797,-1.0425 l -0.585958,-0.1516 c 0,0 0.02941,0.7355 0.130158,1.1941 0.100749,0.4586 1.045018,0.9788 1.397654,0.9518 0.352646,-0.027 0.403018,0.4047 0.277077,0.6206 -0.125944,0.2158 -1.460943,1.241 -1.763209,1.4837 -0.302259,0.2426 -2.225974,1.2556 -2.4023,1.2017 -0.176317,-0.054 -0.90679,-1.187 -1.10829,-1.5915 -0.201515,-0.4048 0.513158,-1.7954 0.890985,-2.1459 0.377826,-0.3509 0.730463,-1.2142 0.604522,-1.4841 -0.125944,-0.2697 0.503777,-1.7533 0.503777,-1.7533 l -0.478594,-0.081 c 0,0 -0.151127,0.9444 -0.478577,0.9984 -0.327455,0.054 -0.856411,-0.1365 -1.083109,-0.108 -0.226698,0.027 0,-0.8366 0,-0.8366 l -0.403015,0 c 0,0 0.02522,0.7016 -0.151137,0.7826 -0.176319,0.081 -0.327448,-0.054 -0.604523,-0.1365 -0.277079,-0.081 -0.352638,-0.8095 -0.352638,-0.8095 l -0.453395,-0.1618 c 0,0 0.02523,0.6475 0.151128,0.8095 0.125929,0.1618 0.428206,0.5124 0.730464,0.5933 0.302266,0.081 1.083116,0.1364 1.284625,0.1889 0.201508,0.054 0.680092,0.1619 0.680092,0.4047 0,0.2428 -0.428213,0.9172 -0.654903,1.3488 -0.226698,0.4317 -0.756969,1.3301 -0.958478,1.384 -0.201508,0.054 -2.038968,-0.7095 -2.240478,-1.1681 -0.201508,-0.4586 -0.462501,-0.7735 -0.260925,-0.8969 0.758421,-0.4648 0.588375,-1.3153 0.588375,-1.5311 0,-0.2158 -0.125929,-0.7822 -0.125929,-0.7822 l -0.528964,-0.027 c 0,0 0.343605,1.612 0.142096,1.7198 -0.201517,0.108 -0.579341,0.7015 -0.831222,0.5396 -0.251887,-0.1619 -0.998507,-1.0184 -1.048886,-1.2342 -0.05036,-0.2158 0.251885,-0.9712 0.251885,-0.9712 l -0.403015,-0.081 c 0,0 -0.478583,0.8364 -0.352646,1.106 0.125959,0.2698 0.671061,1.3423 0.922947,1.4502 0.251889,0.108 0.680087,0.162 0.755654,0.2968 0.07557,0.1365 0.03419,0.3844 0.311308,0.789 0.27707,0.4048 1.029003,0.7575 1.532778,0.8923 0.503773,0.1365 0.875941,0.6062 1.027071,0.957 0.151129,0.3506 0.75566,1.5646 0.831222,1.8076 0.07557,0.2426 0.36203,0.7405 0.36203,1.1723 0,0.4314 0.151127,1.6996 0.151127,1.9424 0,0.2426 -1.057918,1.6184 -1.057918,1.6184 l 0.856412,0 c 0.09618,-0.099 0.854883,-0.4379 0.825907,-0.081 l 1.234239,0 c 0,0 -0.397703,-0.5128 -0.09546,-0.6477 0.465451,0.2116 0.817372,0.3576 1.04876,0.8255 z"
       id="path3113"
       style="fill:#b3b3b3;stroke:none" />
    <path
       d="m 98.439913,1042.7701 c -0.327664,0.4049 -0.116916,0.9 -0.352862,0.243 -0.126034,-0.3508 0,-0.4859 -0.22684,0.1364 -0.226848,0.6209 -0.219183,0.4432 -0.378065,0.108 -0.168417,-0.3554 -0.02523,-0.7288 -0.201637,-0.054 -0.176437,0.675 0.201637,0.351 -0.327664,0.054 -0.529293,-0.2968 -0.176432,-0.2699 -0.529293,-0.1618 -0.352862,0.108 -0.302453,0.108 -0.478884,0.027 -0.176431,-0.081 -0.05036,-0.4588 -0.302453,-0.108 -0.252043,0.3511 -0.176432,0.243 -0.05036,0.3511 0.126034,0.108 -0.201635,0 -0.352862,0.054 -0.151226,0.054 0.428475,-0.5669 -0.07561,-0.108 -0.448328,0.4082 -0.40327,0.054 -0.07561,-0.2159 0.327664,-0.2701 0.126019,-0.6209 -0.277251,-0.054 -0.403269,0.567 0.176432,0.1889 -0.201634,0.2431 -0.378066,0.054 -0.02522,0.2158 -0.50409,-0.405 -0.478881,-0.621 -0.403268,-0.1889 -0.680518,-0.027 -0.277249,0.1619 -0.277249,-0.5129 -0.35287,-0.216 -0.0756,0.2969 0,0.081 -0.403268,0.081 -0.403272,0 -0.453674,1.0259 -0.327651,0.2971 0.126004,-0.729 0.957767,-1.2418 0.478884,-0.837 -0.478884,0.4049 -0.755833,0.051 -0.982973,0.1621 -0.277255,0.1365 -0.378014,0.068 0.02523,-0.2969 0.601805,-0.544 -0.302453,0.054 -0.02523,-0.4859 0.277248,-0.5399 -0.301885,-0.2437 -0.02522,-0.5399 0.302454,-0.324 0.277248,-0.162 0.604907,-0.2971 0.611636,-0.252 0.151227,-0.3238 0.40327,-0.3238 0.252044,0 0.252044,0.081 0.327657,0.2969 0.07561,0.2159 0.07561,0.081 0.352863,-0.27 0.277255,-0.3508 0.100809,-0.5669 0.504088,-0.405 0.403272,0.1622 -0.02523,-0.1079 0.680529,0.243 0.705723,0.3509 0.630101,-0.4049 1.033379,0.081 0.247231,0.2978 0,-0.1893 0.327658,-0.1893 0.327657,0 -0.176433,-0.2428 0.352863,0 0.52929,0.2433 0.932562,0.1621 1.260228,0.2161 0.327648,0.054 -0.07561,0.1891 0.327648,0.1891 0.403272,0 0.226841,-0.2971 0.655323,0.054 0.428476,0.3511 0.579702,0.3241 0.705724,0.5401 0.126034,0.2159 0.201635,0.2699 0.02523,0.5668 -0.176433,0.297 -0.151228,0.324 -0.201635,0.4858 -0.05036,0.162 -0.493598,0.071 -0.226842,0.486 0.277249,0.4319 -0.504087,0.081 -0.504087,0.081 z"
       id="path3115"
       style="fill:#999999;stroke:none" />
    <path
       d="m 92.716708,1041.1161 c 0.0135,0.2109 -0.2396,0.1506 -0.191055,-0.066 0.04856,-0.2155 -0.318415,-0.108 -0.310004,0.023 0.0084,0.1335 0.36619,0.6236 -0.105504,0.2991 -0.173745,-0.1215 -0.03913,-0.2886 -0.35471,-0.027 -0.27555,0.2282 -0.04903,0.5331 -0.234556,0.229 -0.185515,-0.3042 -0.510164,-0.8363 -0.496714,-0.6256 0.0135,0.2109 -0.06414,0.2959 -0.05747,0.4014 0.0067,0.1049 0.08202,0.5464 -0.0075,0.2122 -0.204223,-0.7653 -0.172061,-0.093 -0.27204,-0.033 -0.09998,0.06 -0.149714,-0.067 -0.277077,-0.111 -0.127368,-0.043 -0.366473,-0.2115 -0.372012,0.027 -0.006,0.2386 0.07206,0.1534 -0.0983,0.086 -0.170383,-0.066 -0.139142,-0.2281 -0.326819,-0.2407 -0.187693,-0.015 -0.422943,-0.4456 -0.384271,0.1604 0.03871,0.6059 -0.221804,-0.2221 -0.09157,0.1919 0.130233,0.414 -0.111037,0.5377 -0.127864,0.2741 -0.03532,-0.5538 -0.101169,-0.2836 -0.260971,-0.5102 -0.159803,-0.2266 -0.24801,0.018 -0.236233,0.2026 0.01185,0.1843 0.0052,0.08 -0.12401,0.015 -0.129048,-0.069 -0.104018,-0.654 -0.242464,-0.2203 -0.138436,0.4337 0.09562,0.5225 -0.207166,0.3328 -0.302797,-0.1897 -0.101154,-0.2839 -0.169891,-0.3847 -0.0687,-0.102 -0.243452,0.415 -0.287665,0.046 -0.340902,-0.5771 -0.222671,0.3503 -0.35688,0.2644 -0.108368,-0.072 0.04805,0.1035 -0.163162,-0.2792 -0.211222,-0.3816 -0.162625,-0.5969 -0.292209,-0.3492 -0.129558,0.2478 0.02356,0.369 -0.210525,0.2802 -0.234076,-0.089 -0.157631,-0.518 -0.381615,-0.4486 -0.223965,0.069 -0.172554,0.2244 -0.270842,0.3109 -0.0983,0.087 -0.109748,-0.4153 -0.290531,-0.3226 -0.180966,0.091 0.06533,0.048 -0.164143,0.3559 -0.229513,0.308 -0.04034,-0.6321 -0.425129,-0.154 -0.384758,0.4782 -0.379212,0.2395 -0.379212,0.2395 0,0 -0.01716,1.0334 -0.152387,0.5406 -0.135287,-0.4932 -0.07663,-0.5504 -0.164353,-0.6233 -0.08772,-0.073 -0.04715,-0.7378 -0.242966,0.097 -0.195889,0.8349 -0.366967,0.1065 -0.466947,0.1665 -0.09999,0.06 -0.241277,0.123 -0.269174,0.3373 -0.02792,0.2138 0.159323,0.5442 -0.06414,0.2959 -0.223493,-0.2484 -0.33523,-0.3724 -0.464762,-0.126 -0.129558,0.2477 -0.192527,0.8875 -0.165833,0.3298 0.02672,-0.5579 -0.310011,0.023 0.02328,-0.6106 0.333339,-0.6331 0.307624,-0.7107 0.164645,-0.6738 -0.142981,0.036 -0.660658,0.7103 -0.229018,-0.015 0.43162,-0.7197 0.481863,-0.9088 0.481863,-0.9088 0,0 0.09157,-0.1919 0.02672,-0.5577 -0.06488,-0.3658 -0.373709,0 -0.142021,-0.5984 0.231682,-0.5991 -0.182149,-0.485 0.386934,-0.7695 0.744519,-0.3721 0.473451,-1.0405 1.010317,-0.762 0.607906,0.3151 0.493634,-0.7245 0.815408,-0.5627 0.321777,0.1617 0.280445,0.1647 0.385461,0.1836 0.105024,0.018 0.307849,0.2684 0.563553,-0.2797 0.255711,-0.548 -0.07495,-0.5237 0.255711,-0.548 0.330689,-0.024 -0.135287,-0.4929 0.569793,0.144 0.705066,0.6366 0.561373,0.015 1.202067,-0.034 0.640683,-0.046 0.805532,0.2585 1.046813,0.1365 0.241284,-0.123 -0.150911,-0.4124 0.51836,-0.015 0.66927,0.401 0.75531,0.4476 0.75531,0.4476 0,0 0.382092,0.132 0.466446,0.1512 0.08436,0.02 -0.411173,-0.2612 0.542397,0.039 0.953561,0.3007 1.07757,0.2918 1.213336,0.4671 0.135782,0.1754 0.112447,0.7859 0.444324,1.1056 0.331864,0.3198 -0.09088,-0.5265 0.49047,0.2023 0.857667,1.0756 0.174919,0.6582 0.371733,1.2698 0.233089,0.7242 -0.181449,0.4103 -0.181449,0.4103 0,0 0.677044,1.3472 -0.0111,0.4774 -0.365373,-0.4619 -0.801191,-0.8413 -0.540218,-0.3313 0.594526,1.1627 0.34867,0.5835 0.160992,0.5706 -0.187685,-0.015 -0.784382,-0.5778 -0.784382,-0.5778 0.06204,-0.015 0.152597,0.439 0.152597,0.439 z"
       id="path3117"
       style="fill:#999999;stroke:none" />
    <path
       d="m 41.169946,1052.7389 c 0.848089,-1.7532 1.094277,-1.3352 1.655074,-2.3431 0.416132,-0.8172 0.624202,-4.7223 -0.104033,-5.4033 -0.728237,-0.6811 -3.995462,-4.1732 -3.995462,-5.399 0,-1.226 -0.113872,-1.5027 -0.477982,-1.8205 -0.364118,-0.3179 -0.858273,-1.5894 -0.858273,-1.5894 l 0.494155,-0.2725 c 0,0 0.80626,1.9073 1.144366,1.9073 0.338107,0 1.290586,-0.1049 1.625206,-0.7849 0.254558,-0.518 0.04957,-1.7545 0.04957,-1.7545 l 0.605039,-0.2551 c 0,0 -0.03031,1.2379 -0.134403,2.0096 -0.104033,0.772 -1.079028,1.6474 -1.443147,1.6021 -0.364117,-0.045 -0.416131,0.6812 -0.286093,1.0446 0.130053,0.3632 1.508486,2.0884 1.820591,2.4971 0.312095,0.4087 2.298429,2.1135 2.48049,2.0228 0.182057,-0.091 0.936306,-1.9979 1.144367,-2.6792 0.20807,-0.681 -0.529862,-3.0215 -0.91998,-3.6119 -0.390133,-0.59 -0.75425,-2.0432 -0.624214,-2.4973 0.130054,-0.4539 -0.520166,-2.9512 -0.520166,-2.9512 l 0.494166,-0.138 c 0,0 0.156049,1.5892 0.494156,1.6801 0.338115,0.09 0.884293,-0.227 1.118365,-0.1816 0.234071,0.045 0,-1.4076 0,-1.4076 l 0.41613,0 c 0,0 -0.02596,1.1804 0.156049,1.3166 0.18207,0.138 0.338116,-0.091 0.624212,-0.2269 0.286095,-0.1365 0.364118,-1.3622 0.364118,-1.3622 l 0.468142,-0.2723 c 0,0 -0.02596,1.0895 -0.156047,1.362 -0.130039,0.2725 -0.442142,0.8626 -0.754237,0.9991 -0.312107,0.1364 -1.118367,0.2269 -1.326437,0.3178 -0.208061,0.091 -0.702225,0.2725 -0.702225,0.6811 0,0.4085 0.442142,1.5437 0.676223,2.2703 0.234072,0.7264 0.781605,2.2385 0.989665,2.3293 0.20807,0.091 2.105331,-1.1942 2.313402,-1.9661 0.20807,-0.7719 0.477558,-1.3019 0.269415,-1.5098 -0.783105,-0.782 -0.607524,-2.2135 -0.607524,-2.5767 0,-0.3633 0.130038,-1.3168 0.130038,-1.3168 l 0.546187,-0.045 c 0,0 -0.354796,2.713 -0.146715,2.8948 0.20807,0.1816 0.598201,1.1807 0.858284,0.908 0.260082,-0.2723 1.030999,-1.7141 1.083022,-2.0774 0.05205,-0.3632 -0.260093,-1.6345 -0.260093,-1.6345 l 0.41614,-0.1379 c 0,0 0.494156,1.4074 0.364119,1.8615 -0.130053,0.454 -0.692902,2.2592 -0.952986,2.4405 -0.260083,0.1817 -0.702226,0.2725 -0.780249,0.4997 -0.07801,0.2269 -0.03527,0.6468 -0.32144,1.3279 -0.286083,0.6811 -1.062492,1.2749 -1.582659,1.5018 -0.520177,0.2272 -0.90445,1.0204 -1.060508,1.6107 -0.156048,0.5903 -0.780248,2.6335 -0.858272,3.0423 -0.07801,0.4085 -0.373814,1.2465 -0.373814,1.973 0,0.7264 -0.156047,2.8606 -0.156047,3.2692 0,0.4086 1.092354,2.7243 1.092354,2.7243 l -0.884284,0 c -0.09932,-0.1683 -0.882711,-0.7373 -0.85279,-0.1365 l -1.274413,0 c 0,0 0.410647,-0.863 0.0985,-1.09 -0.4806,0.3562 -0.843976,0.6017 -1.082888,1.3895 z"
       id="path3119"
       style="fill:#b3b3b3;stroke:none" />
    <path
       d="m 35.702479,1035.9296 c 0.338323,0.6814 0.120726,1.5147 0.364346,0.4089 0.130143,-0.5907 0,-0.8179 0.234226,0.2271 0.234227,1.045 0.226313,0.7461 0.390368,0.1818 0.173896,-0.5983 0.02606,-1.2268 0.208206,-0.091 0.182172,1.1357 -0.208206,0.5907 0.338323,0.091 0.546519,-0.4999 0.182173,-0.4543 0.546519,-0.2725 0.364347,0.1816 0.312293,0.1816 0.494465,0.045 0.182184,-0.138 0.05205,-0.7725 0.312301,-0.1818 0.260252,0.5907 0.182175,0.409 0.05205,0.5907 -0.130144,0.1818 0.208196,0 0.364347,0.091 0.156151,0.091 -0.442423,-0.9541 0.07812,-0.1816 0.462917,0.6868 0.416389,0.091 0.07812,-0.3635 -0.338326,-0.4544 -0.130129,-1.0452 0.28627,-0.09 0.4164,0.9541 -0.182172,0.3181 0.208205,0.4089 0.390367,0.091 0.02596,0.3636 0.520486,-0.6816 0.494477,-1.0451 0.416401,-0.318 0.70267,-0.045 0.286281,0.2727 0.286281,-0.8633 0.364358,-0.3635 0.07801,0.4997 0,0.138 0.416389,0.138 0.4164,0 0.468444,1.7267 0.338323,0.4998 -0.130128,-1.2266 -0.98894,-2.0899 -0.494475,-1.4085 0.494475,0.6815 0.780436,0.087 1.014973,0.2725 0.28627,0.2272 0.390305,0.1125 -0.02596,-0.4997 -0.621397,-0.9154 0.312302,0.091 0.02596,-0.8178 -0.286281,-0.9088 0.311702,-0.41 0.02596,-0.9088 -0.312302,-0.545 -0.286271,-0.2726 -0.624595,-0.4995 -0.631547,-0.4243 -0.156151,-0.5453 -0.4164,-0.5453 -0.260247,0 -0.260247,0.1365 -0.338323,0.4998 -0.07812,0.3634 -0.07812,0.138 -0.364347,-0.4544 -0.286269,-0.5907 -0.104094,-0.9541 -0.520496,-0.6816 -0.416391,0.2728 0.02606,-0.1817 -0.70267,0.409 -0.728692,0.5906 -0.650616,-0.6815 -1.067016,0.138 -0.255282,0.5013 0,-0.3181 -0.338325,-0.3181 -0.338313,0 0.182183,-0.409 -0.364345,0 -0.546519,0.4089 -0.96291,0.2726 -1.301244,0.3635 -0.338313,0.09 0.07812,0.3181 -0.338313,0.3181 -0.416399,0 -0.234227,-0.4999 -0.676649,0.09 -0.44242,0.5907 -0.598571,0.5453 -0.728692,0.9088 -0.130128,0.3635 -0.208196,0.4544 -0.02596,0.9541 0.182172,0.4998 0.156151,0.5453 0.208203,0.8179 0.05205,0.2725 0.509656,0.12 0.234218,0.8177 -0.28627,0.727 0.520498,0.1379 0.520498,0.1379 z"
       id="path3121"
       style="fill:#999999;stroke:none" />
    <path
       d="m 41.611962,1033.1458 c -0.01395,0.3546 0.247398,0.2523 0.197269,-0.1094 -0.05007,-0.3625 0.328785,-0.1834 0.320094,0.037 -0.0082,0.2218 -0.378108,1.0497 0.108968,0.503 0.179401,-0.2013 0.04046,-0.4852 0.36625,-0.045 0.284522,0.384 0.0506,0.8971 0.242194,0.3854 0.191557,-0.5117 0.526766,-1.4073 0.512883,-1.0526 -0.01395,0.3548 0.06623,0.498 0.0593,0.6753 -0.0072,0.1775 -0.08464,0.92 0.0072,0.3572 0.210873,-1.2881 0.177661,-0.1569 0.280891,-0.055 0.103254,0.1005 0.154588,-0.1155 0.286095,-0.1885 0.131508,-0.073 0.378405,-0.3557 0.384117,0.045 0.0061,0.4016 -0.07441,0.2585 0.101484,0.147 0.175935,-0.1125 0.143671,-0.3838 0.337456,-0.4053 0.193804,-0.021 0.436711,-0.7497 0.396784,0.2701 -0.03992,1.02 0.229021,-0.3735 0.09457,0.3232 -0.134477,0.6968 0.114666,0.9048 0.132018,0.4613 0.03652,-0.9322 0.104468,-0.4776 0.269467,-0.859 0.165008,-0.3811 0.256088,0.032 0.243922,0.3412 -0.01215,0.3103 -0.0051,0.1335 0.128044,0.015 0.133247,-0.117 0.107408,-1.1008 0.250355,-0.3709 0.142936,0.7298 -0.09871,0.8793 0.213919,0.5603 0.312644,-0.3191 0.104469,-0.4777 0.175416,-0.6476 0.07098,-0.1696 0.251371,0.6984 0.29702,0.079 0.352002,-0.971 0.229923,0.5895 0.368505,0.4448 0.111892,-0.1215 -0.04966,0.1725 0.168464,-0.4698 0.218098,-0.6421 0.167925,-1.0045 0.301717,-0.5876 0.133758,0.4167 -0.02431,0.6207 0.217384,0.4713 0.241697,-0.1499 0.162763,-0.8716 0.394029,-0.7549 0.231267,0.1185 0.178179,0.3776 0.279671,0.5235 0.101484,0.147 0.113302,-0.6993 0.299979,-0.5433 0.18685,0.156 -0.06746,0.081 0.169488,0.5993 0.236988,0.5183 0.04169,-1.0641 0.438965,-0.2595 0.397281,0.8048 0.391559,0.4031 0.391559,0.4031 0,0 0.01768,1.7395 0.157339,0.9098 0.139681,-0.8297 0.07917,-0.9261 0.169707,-1.0489 0.09052,-0.123 0.04863,-1.2416 0.250874,0.1636 0.202266,1.405 0.378915,0.1787 0.482142,0.2803 0.103269,0.1005 0.249127,0.208 0.277932,0.5676 0.02876,0.3599 -0.164501,0.9159 0.06623,0.4979 0.23077,-0.4177 0.346135,-0.6267 0.479886,-0.2098 0.133758,0.4168 0.198789,1.4937 0.171237,0.555 -0.02754,-0.9389 0.320104,0.037 -0.02411,-1.0276 -0.344192,-1.0658 -0.317641,-1.1963 -0.170005,-1.134 0.147629,0.062 0.682163,1.1952 0.236471,-0.017 -0.44566,-1.2115 -0.497548,-1.5296 -0.497548,-1.5296 0,0 -0.09457,-0.3231 -0.02754,-0.9386 0.06704,-0.6158 0.385868,0 0.14664,-1.0071 -0.239223,-1.0088 0.188072,-0.8164 -0.399524,-1.2952 -0.768753,-0.6263 -0.488868,-1.7512 -1.043209,-1.2827 -0.627687,0.5303 -0.509694,-1.2191 -0.841943,-0.9471 -0.332251,0.2722 -0.289573,0.2773 -0.398005,0.3088 -0.108428,0.032 -0.31787,0.4523 -0.581903,-0.4701 -0.264025,-0.9227 0.0774,-0.8819 -0.264025,-0.9227 -0.341451,-0.04 0.139681,-0.8297 -0.588341,0.2416 -0.728019,1.0716 -0.579649,0.02 -1.241191,-0.058 -0.661541,-0.078 -0.831744,0.4352 -1.080891,0.2275 -0.249128,-0.208 0.155831,-0.6944 -0.535231,-0.02 -0.691051,0.675 -0.779886,0.7533 -0.779886,0.7533 0,0 -0.394529,0.2203 -0.481626,0.2543 -0.08712,0.034 0.424553,-0.4393 -0.560051,0.067 -0.984606,0.5063 -1.112645,0.491 -1.252834,0.7861 -0.140191,0.295 -0.116106,1.3225 -0.458778,1.8607 -0.342669,0.5384 0.09385,-0.8862 -0.506435,0.3407 -0.885578,1.81 -0.180611,1.1077 -0.38383,2.1371 -0.240681,1.2185 0.187346,0.6906 0.187346,0.6906 0,0 -0.699069,2.2674 0.01155,0.8032 0.377267,-0.7774 0.827264,-1.416 0.557797,-0.5571 -0.613877,1.9565 -0.360022,0.9817 -0.166229,0.9603 0.19379,-0.021 0.809913,-0.9726 0.809913,-0.9726 -0.06405,-0.015 -0.15757,0.7387 -0.15757,0.7387 z"
       id="path3123"
       style="fill:#999999;stroke:none" />
    <path
       d="m 186.34751,1052.5199 c 0.59346,-1.4476 0.97853,-0.9316 1.26757,-1.8134 0.12507,-0.4132 0.15883,-0.234 0.29175,-0.9045 0.16817,-0.504 0.14127,-1.3358 0.0768,-1.506 -0.16417,-0.4331 -0.0747,-0.8165 -0.28338,-0.8013 -0.28121,0.034 -0.93732,0.5164 -1.43724,0.6542 -0.49988,0.138 -1.67152,0.3961 -1.85899,0.1551 -0.18745,-0.241 -0.37493,-0.7748 -0.37493,-0.7748 l 0.26559,-0.069 c 0,0 0.0105,0.3903 0.2187,0.6198 0.10947,0.1215 0.41042,0.126 0.60925,0.051 0.2812,-0.1035 0.76547,-0.1893 0.76547,-0.1893 0,0 -0.46866,0.1035 -0.62488,-0.1035 -0.15622,-0.2065 -0.31243,-0.5508 -0.31243,-0.5508 l 0.37491,0.034 c 0,0 -0.0625,0.1721 0.15624,0.31 0.2187,0.1379 0.68736,0.2065 0.90606,0.1034 0.21869,-0.1034 0.53115,-0.2754 0.81234,-0.3786 0.2812,-0.105 0.4843,-0.2238 0.4843,-0.2238 0,0 -2.35342,-2.2462 -2.34306,-2.6006 0.0158,-0.5336 0.0526,-0.4539 -0.16005,-0.7855 -0.11787,-0.1834 -0.33203,-0.1455 -0.5273,-0.2302 -0.40407,-0.1782 -0.9718,-0.108 -1.26538,-0.2926 -0.69769,-0.4384 -0.21968,-1.2166 -0.21968,-1.2166 l 0.20307,0.1549 c 0,0 -0.35407,0.3399 0.19368,0.7805 0.12627,0.1005 0.88522,0.057 1.13516,0.2641 0.24995,0.2066 0.4218,-0.4477 0.48428,-0.6543 0.0625,-0.2065 0.15622,-0.3961 0.15622,-0.3961 l 0.29682,-0.051 c 0,0 -0.21935,0.4235 -0.23431,0.6713 -0.13962,0.6921 0.4612,0.3912 0.53111,0.3962 0.60838,0.022 0.56993,-0.5619 -0.0676,-0.9252 l 0.3749,-0.105 c 0,0 0.73935,0.3742 0.66126,0.598 -0.12132,0.3475 -0.11637,0.3404 0.20308,0.2755 0.34658,-0.071 1.33708,-0.2203 1.43081,-0.3754 0.20211,-0.3341 0.12492,-0.9297 0.12492,-0.9297 l 0.24994,-0.1034 c 0,0 0.0468,0.1721 0.0157,0.5163 -0.039,0.4294 0.0229,0.9998 -1.68075,1.1672 -0.62938,0.062 -1.37474,0.2755 -1.3435,0.4478 0.0312,0.1719 -0.0468,0.5335 0.23434,0.6714 0.28119,0.138 0.90605,0.3442 1.09353,0.7574 0.18746,0.4133 0.21872,0.792 0.68736,0.792 0.46868,0 0.98417,-0.034 0.98417,-0.034 0.11157,-0.3613 -0.0439,-0.6698 -0.20306,-1.033 l 0.28119,-0.034 c 0.16267,0.614 0.24003,0.5187 0.18746,1.0673 0,0 0.4999,-0.069 0.90607,-0.069 0.40616,0 0.70298,-0.4302 0.51552,-0.6369 -0.18746,-0.2066 -0.67173,-0.4304 -0.67173,-0.4304 l 0.31243,-0.105 c 0,0 0.45305,0.2067 0.62488,0.4477 0.15916,0.2231 0.0468,0.5337 -0.15624,0.7059 -0.36562,0.31 -0.37492,0.241 -0.9373,0.3271 -0.71446,0.1094 -0.26557,0.069 -1.24976,0.241 -0.26363,0.047 -0.37493,0.017 -0.37493,0.017 0.73517,0.8621 0.8595,1.7827 0.88535,3.061 -0.0312,1.3083 -0.38944,1.618 -0.35419,2.0691 0.0376,0.4825 0.34292,0.5272 0.53113,0.9643 l -1.12134,-3e-4 c 0,0 0.0313,-0.6171 -0.26127,-0.6267 -0.31537,-0.015 -0.40705,0.6263 -0.40705,0.6263 z"
       id="path3125"
       style="fill:#aaaaaa;fill-opacity:1;stroke:none" />
    <path
       d="m 187.84578,1042.8967 c 0,0 0.93211,0.8851 0.29728,0.5549 -0.63482,-0.3301 -0.65238,-0.8919 -0.63482,-0.3301 0.0175,0.5618 -0.18298,0.2179 -0.38452,-0.3311 -0.20154,-0.5491 0.24695,0.7968 -0.11668,0.23 -0.3636,-0.5666 -0.27144,-1.2797 -0.57005,-0.6264 -0.29858,0.6536 -0.46037,0.1215 -0.55199,0.037 -0.65083,-0.584 -0.0477,0.7554 -0.49212,0.2314 -0.44439,-0.5243 -0.27021,0.4418 -0.4947,-0.2824 -0.0853,-0.2753 -0.21292,0.123 -0.38943,0.1582 -0.17653,0.036 -0.10378,-0.1335 -0.36052,0.05 -0.25678,0.1822 -0.0444,-0.042 -0.37548,0 -0.3311,0.043 -0.2085,-0.4706 -0.44877,0.067 -0.2403,0.5384 -0.24183,0.2302 -0.33809,0.123 -0.0963,-0.108 0.18299,-0.2181 -0.19947,-0.1395 -0.38244,0.08 -0.2952,-0.1455 -0.41935,0.062 -0.12417,0.2057 -0.021,0.2356 -0.18296,0.218 -0.16207,-0.018 0.14802,0.1748 -0.1915,-0.015 -0.3396,-0.1861 0.0243,-0.5066 -0.42838,-0.2702 -0.30843,0.1609 -0.2348,0.1578 -0.23586,-0.054 -0.001,-0.308 0.41161,-0.3743 -0.21342,0.018 -0.1835,0.1155 -0.99278,0.2329 -0.0448,-0.1455 0.94788,-0.3779 0.32258,-0.2729 0.32903,-0.4542 0.006,-0.1812 -0.0823,-0.2656 -0.0823,-0.2656 0,0 -0.55303,-0.1672 -0.009,-0.3322 0.54401,-0.165 0.50118,0.1005 0.57344,-0.1713 0.0721,-0.2719 0.0498,-0.3444 0.0498,-0.3444 0,0 0.28825,0.2227 0.23536,-0.05 -0.0529,-0.2718 0.14547,-0.3388 0.51406,-0.2616 0.36852,0.077 -0.17755,-0.1684 0.53007,-0.015 0.70761,0.1605 0.50863,0.126 0.11772,-0.024 -0.39097,-0.1499 -0.49522,-0.3849 0.32956,-0.3513 0.82477,0.033 1.23018,0.1304 1.23018,0.1304 0.66969,-0.063 0.12313,-0.4112 0.90502,-0.111 0.52266,0.2001 0.74094,-0.5401 1.05964,-0.1199 0.3187,0.422 0.10423,-0.3821 0.16799,-0.2664 0.21548,0.392 0.44834,0.105 0.35303,-0.073 -0.15847,-0.2967 -0.1561,-0.3015 0.41189,-0.085 0.56798,0.2155 0.44334,0.3186 0.73856,0.4626 0.29522,0.1455 0.82085,-0.1844 0.75947,0.2271 -0.0712,0.4775 1.45544,0.2357 1.04025,0.4253 -0.93292,0.426 0.58781,0.2416 -0.0423,0.3686 -1.0334,0.2088 -0.18195,0.4237 -0.0916,0.816 0.0903,0.3925 0.42245,0.5543 -0.13002,0.4898 -0.5525,-0.064 0.15123,0.5337 -0.82476,-0.033 -0.87869,-0.5105 -0.81781,-0.111 0.001,0.308 0.81933,0.4202 -0.58941,-0.082 -0.58941,-0.082 0,0 0.2738,0.277 0.10423,0.2352 -0.44929,-0.034 -1.23923,-0.461 -0.59691,-0.108 0.64232,0.3544 -0.22788,0.074 -0.30865,0.1155 z"
       id="path3127"
       style="fill:#999999;stroke:none" />
    <path
       d="m 191.31027,1045.171 c -0.20309,0.2582 -0.0724,0.5739 -0.21871,0.1549 -0.078,-0.2239 0,-0.3098 -0.14052,0.086 -0.14052,0.3959 -0.13588,0.2827 -0.23433,0.069 -0.10453,-0.2268 -0.0157,-0.4649 -0.12492,-0.034 -0.10948,0.4304 0.12492,0.2237 -0.20309,0.034 -0.32806,-0.1894 -0.10933,-0.1725 -0.32806,-0.105 -0.2187,0.069 -0.18746,0.069 -0.2968,0.018 -0.10948,-0.051 -0.0312,-0.2928 -0.18748,-0.069 -0.15621,0.2237 -0.10933,0.1551 -0.0312,0.2237 0.0781,0.069 -0.12478,0 -0.21869,0.034 -0.0937,0.034 0.26557,-0.3614 -0.0468,-0.069 -0.27789,0.2603 -0.24994,0.034 -0.0468,-0.138 0.2031,-0.1722 0.0781,-0.3961 -0.17183,-0.034 -0.24996,0.3616 0.10947,0.12 -0.12493,0.1551 -0.23433,0.035 -0.0157,0.1379 -0.31244,-0.2584 -0.29679,-0.396 -0.24996,-0.1215 -0.42178,-0.016 -0.17185,0.1034 -0.17185,-0.3273 -0.21871,-0.138 -0.0469,0.1894 0,0.051 -0.24996,0.051 -0.24994,0 -0.28119,0.6541 -0.20308,0.1894 0.078,-0.4648 0.59363,-0.7918 0.29683,-0.5337 -0.29683,0.2582 -0.46847,0.033 -0.60927,0.1034 -0.17183,0.085 -0.23429,0.042 0.0157,-0.1892 0.373,-0.3468 -0.18746,0.034 -0.0157,-0.3097 0.17185,-0.3443 -0.1871,-0.1554 -0.0157,-0.3443 0.18746,-0.2067 0.17183,-0.1035 0.37494,-0.1896 0.37907,-0.1608 0.0937,-0.2067 0.24993,-0.2067 0.15621,0 0.15621,0.051 0.20308,0.1896 0.0468,0.138 0.0468,0.051 0.21871,-0.1722 0.17184,-0.2239 0.0625,-0.3617 0.31243,-0.2582 0.24996,0.1035 -0.0157,-0.069 0.42179,0.1549 0.43743,0.2238 0.39055,-0.2584 0.64052,0.051 0.15321,0.19 0,-0.1215 0.20307,-0.1215 0.20309,0 -0.10932,-0.1549 0.21872,0 0.32804,0.1548 0.57799,0.1035 0.78108,0.1365 0.20308,0.034 -0.0468,0.1215 0.20308,0.1215 0.24996,0 0.14052,-0.1896 0.40617,0.034 0.26558,0.2237 0.3593,0.2066 0.43742,0.3443 0.078,0.138 0.12507,0.1722 0.0157,0.3614 -0.10932,0.1894 -0.0937,0.2067 -0.12507,0.3102 -0.0312,0.1034 -0.30592,0.045 -0.14052,0.3096 0.17183,0.2754 -0.31243,0.051 -0.31243,0.051 z"
       id="path3129"
       style="fill:#999999;stroke:none" />
    <path
       d="m 182.79934,1048.3296 c 0.0168,0.089 0.11143,0.032 0.0696,-0.049 -0.0418,-0.082 0.11577,-0.084 0.12627,-0.029 0.0105,0.054 -0.0811,0.3015 0.0733,0.1095 0.0568,-0.071 -0.0152,-0.1245 0.13887,-0.054 0.13392,0.06 0.0753,0.2131 0.11757,0.064 0.0423,-0.1485 0.11653,-0.4065 0.13303,-0.3181 0.0168,0.088 0.0565,0.114 0.0649,0.1578 0.009,0.043 0.0243,0.2347 0.0252,0.085 0.001,-0.3398 0.0589,-0.06 0.10528,-0.046 0.0462,0.015 0.0526,-0.046 0.099,-0.08 0.0463,-0.033 0.12432,-0.1335 0.15147,-0.034 0.027,0.098 -0.0135,0.072 0.0483,0.023 0.0612,-0.048 0.0316,-0.111 0.10542,-0.1395 0.0735,-0.029 0.12238,-0.2353 0.17026,0.018 0.0478,0.2541 0.0655,-0.1199 0.0565,0.067 -0.009,0.1863 0.10048,0.2071 0.0798,0.096 -0.0438,-0.2323 0.0105,-0.1305 0.051,-0.2422 0.0402,-0.114 0.10092,-0.023 0.11562,0.054 0.0152,0.077 0.006,0.033 0.0505,-0.015 0.0442,-0.045 -0.0265,-0.2819 0.0739,-0.1215 0.10048,0.1612 0.0165,0.2266 0.11757,0.111 0.10108,-0.117 0.0105,-0.1305 0.0276,-0.1789 0.0169,-0.05 0.14052,0.141 0.11982,-0.016 0.0759,-0.2791 0.12553,0.117 0.1702,0.064 0.0357,-0.042 -0.009,0.048 0.036,-0.1365 0.0445,-0.1827 0.003,-0.2654 0.0802,-0.1794 0.0775,0.085 0.0289,0.1545 0.11337,0.089 0.0843,-0.064 0.009,-0.2324 0.10558,-0.2314 0.0967,0 0.0924,0.071 0.14067,0.095 0.0483,0.022 3e-4,-0.1843 0.0823,-0.1687 0.082,0.017 -0.0212,0.027 0.10273,0.1275 0.12387,0.097 -0.0499,-0.2647 0.15373,-0.1155 0.20363,0.15 0.17651,0.051 0.17651,0.051 0,0 0.11488,0.4226 0.11743,0.2033 0.001,-0.2194 -0.0268,-0.2356 5.8e-4,-0.2764 0.0273,-0.041 -0.0583,-0.3091 0.10723,0.015 0.16548,0.3192 0.15769,0 0.20391,0.015 0.0462,0.015 0.10933,0.021 0.14263,0.1065 0.0333,0.084 -0.006,0.2433 0.0564,0.1125 0.0634,-0.1305 0.0949,-0.1945 0.17265,-0.108 0.0775,0.085 0.16961,0.3412 0.10063,0.1155 -0.069,-0.226 0.12642,-0.028 -0.0732,-0.2481 -0.19928,-0.2191 -0.1971,-0.2542 -0.13617,-0.2566 0.061,-0.015 0.33809,0.2104 0.0904,-0.032 -0.24758,-0.2426 -0.28741,-0.314 -0.28741,-0.314 0,0 -0.0565,-0.068 -0.069,-0.2261 -0.012,-0.1583 0.14937,-0.045 -0.006,-0.2634 -0.15513,-0.2179 0.0222,-0.2219 -0.23493,-0.2686 -0.33629,-0.062 -0.29779,-0.3694 -0.4832,-0.1886 -0.20991,0.2044 -0.27285,-0.237 -0.38449,-0.132 -0.11172,0.108 -0.0948,0.102 -0.13482,0.123 -0.04,0.019 -0.0949,0.1484 -0.25433,-0.045 -0.1594,-0.1938 -0.0248,-0.2245 -0.1594,-0.1938 -0.13453,0.03 10e-4,-0.2194 -0.21262,0.1305 -0.21517,0.3485 -0.22303,0.073 -0.48386,0.1349 -0.26084,0.06 -0.29476,0.2057 -0.40404,0.1847 -0.10933,-0.021 0.0172,-0.1881 -0.20829,0.058 -0.22547,0.2473 -0.25497,0.2772 -0.25497,0.2772 0,0 -0.13887,0.1005 -0.17056,0.1215 -0.0315,0.018 0.13692,-0.158 -0.21252,0.082 -0.3495,0.2411 -0.4,0.2527 -0.43593,0.3415 -0.0358,0.088 0.0372,0.3369 -0.0621,0.5092 -0.0991,0.1726 -0.0187,-0.2277 -0.1748,0.1439 -0.23029,0.548 -0.001,0.2923 -0.0159,0.5678 -0.0175,0.3265 0.11533,0.147 0.11533,0.147 0,0 -0.12987,0.6374 0.0541,0.1951 0.0976,-0.235 0.23217,-0.4447 0.18122,-0.2029 -0.11608,0.5513 -0.0783,0.2828 -0.005,0.2545 0.0736,-0.027 0.25301,-0.3341 0.25301,-0.3341 -0.0253,0 -0.0151,0.199 -0.0151,0.199 z"
       id="path3131"
       style="fill:#999999;stroke:none" />
  </g>
</svg>
